<svg enable-background="new 0 0 825 250" height="250" viewBox="0 0 825 250" width="825" xmlns="http://www.w3.org/2000/svg"><path d="m367 0v13.6l5.5-3.9 5.5 3.9v-13.6z" fill="#fec325"/><path d="m314.2 42.4h21.8v5.5h-21.8z" fill="#fff"/><path d="m314.2 34.2h21.8v5.5h-21.8z" fill="#fff"/><path d="m314.2 26h21.8v5.5h-21.8z" fill="#fff"/><circle cx="308.7" cy="36.9" fill="#fff" r="2.7"/><circle cx="308.7" cy="28.7" fill="#fff" r="2.7"/><circle cx="308.7" cy="45.1" fill="#fff" r="2.7"/><path d="m87 58.8h-3.1v-3.1h-2.5v3.1h-3.1v2.5h3.1v3.1h2.5v-3.1h3.1m-20-3.2v3.9h5.5c-.5 2.4-2.5 4.1-5.5 4.1-3.3 0-6-2.8-6-6.1s2.7-6.1 6-6.1c1.5 0 2.8.5 3.9 1.5l2.8-2.8c-1.7-1.6-4-2.6-6.7-2.6-5.5 0-10 4.5-10 10s4.5 10 10 10c5.8 0 9.6-4.1 9.6-9.8 0-.7-.1-1.4-.2-2.1z" fill="#fff"/><path d="m29.5 2.8c-1.1.5-2.3.8-3.5 1 1.3-.8 2.2-1.9 2.7-3.4-1.2.7-2.5 1.2-3.8 1.5-1.1-1.2-2.7-1.9-4.5-1.9-3.3 0-6.1 2.7-6.1 6.1 0 .5.1.9.2 1.4-5-.3-9.5-2.7-12.4-6.4-.6.9-.9 1.9-.9 3.1 0 2.1 1.1 4 2.7 5-1 0-1.9-.3-2.7-.8v.1c0 2.9 2.1 5.4 4.9 5.9-.5.1-1 .2-1.6.2-.4 0-.8 0-1.1-.1.8 2.4 3 4.2 5.7 4.2-2.1 1.6-4.7 2.6-7.5 2.6-.5 0-1 0-1.4-.1 2.5 1.8 5.7 2.8 9.1 2.8 11.1 0 17.2-9.2 17.2-17.2 0-.3 0-.5 0-.8 1.2-.9 2.2-1.9 3-3.2z" fill="#fff"/><path d="m155 10.5h-3.8v-3.7h-3v3.8h-3.8v3h3.8v3.8h3v-3.8h3.8m-24-3.8v4.7h6.5c-.5 2.8-2.9 4.9-6.5 4.9-4 0-7.2-3.4-7.2-7.3s3.2-7.3 7.2-7.3c1.8 0 3.4.6 4.6 1.8l3.4-3.4c-2.1-1.9-4.8-3.1-8-3.1-6.6 0-12 5.4-12 12s5.4 12 12 12c6.9 0 11.5-4.9 11.5-11.7 0-.9-.1-1.7-.2-2.5z" fill="#fff"/><path d="m42 0c-6.6 0-12 5.4-12 12 0 5.1 3.2 9.4 7.6 11.2-.1-.9-.2-2.4 0-3.4.2-.9 1.4-6 1.4-6s-.3-.8-.3-1.8c0-1.7 1-2.9 2.2-2.9 1 0 1.5.8 1.5 1.7 0 1-.7 2.6-1 4-.3 1.2.6 2.2 1.8 2.2 2.1 0 3.8-2.2 3.8-5.5 0-2.9-2.1-4.9-5-4.9-3.4 0-5.4 2.6-5.4 5.2 0 1 .4 2.1.9 2.7.1.1.1.2.1.3-.1.4-.3 1.2-.3 1.4-.1.2-.2.3-.4.2-1.5-.7-2.4-2.9-2.4-4.6 0-3.8 2.8-7.3 7.9-7.3 4.2 0 7.4 3 7.4 6.9 0 4.1-2.6 7.5-6.2 7.5-1.2 0-2.4-.6-2.8-1.4 0 0-.6 2.3-.7 2.9-.3 1-1 2.4-1.5 3.1 1.1.3 2.3.5 3.6.5 6.6 0 12-5.4 12-12s-5.6-12-12.2-12z" fill="#fff"/><path d="m116.7 1.3c-.9-.9-1.9-1.3-3.2-1.3h-15c-1.2 0-2.3.4-3.2 1.3s-1.3 2-1.3 3.2v15c0 1.2.4 2.3 1.3 3.2s1.9 1.3 3.2 1.3h15c1.2 0 2.3-.4 3.2-1.3s1.3-1.9 1.3-3.2v-15c0-1.2-.4-2.3-1.3-3.2zm-12.8 13c-.6.6-1.4 1-2.3 1s-1.7-.3-2.3-1c-.6-.6-1-1.4-1-2.3s.3-1.7 1-2.3 1.4-1 2.3-1 1.7.3 2.3 1c.6.6 1 1.4 1 2.3s-.3 1.7-1 2.3zm8.9 0c-.6.6-1.4 1-2.3 1s-1.7-.3-2.3-1c-.6-.6-1-1.4-1-2.3s.3-1.7 1-2.3 1.4-1 2.3-1 1.7.3 2.3 1c.6.6 1 1.4 1 2.3-.1.9-.4 1.7-1 2.3z" fill="#fff"/><path d="m203.6 11.4c-.1.1-.2.1-.3.2v-9.3c0-1.3-1-2.3-2.2-2.3h-16.8c-1.2 0-2.2 1-2.2 2.3v9.3c-.1-.1-.2-.1-.3-.2-.7-.5-1.2.2-.7.8.9 1 2.5 2.4 5 3.4-2.6 9 6.4 10.4 6.3 5.8 0 .1 0-2.6 0-4.5.2.1.4.1.6.2 0 1.9 0 4.5 0 4.4-.1 4.6 8.9 3.2 6.3-5.8 2.5-1 4.1-2.3 5-3.4.5-.7.1-1.4-.7-.9zm-8.9 2.3c-1.1-.1-1.5.4-1.6 1.2-.3-.2-.5-.4-.8-.7 0 0-.1-.1-.1-.1-.2-.3-.6-.4-1.3-.4-1.5 0-4.2.3-7.4-1.3v-9c0-1.6.4-2.1 1.9-2.1h14.9c1.4 0 1.9.6 1.9 2.1v8.9c-3.2 1.8-6 1.5-7.5 1.4z" fill="#fff"/><path d="m196.3 7.2c-1.6 0-2.9 1.2-2.9 2.7s1.3 2.7 2.9 2.7 2.9-1.2 2.9-2.7-1.3-2.7-2.9-2.7z" fill="#fff"/><path d="m192.5 9.9c0 1.5-1.3 2.7-2.9 2.7s-2.9-1.2-2.9-2.7 1.3-2.7 2.9-2.7 2.9 1.2 2.9 2.7z" fill="#fff"/><path d="m63.1 24v-10.9h3.7l.5-4.3h-4.2v-2.7c0-1.2.3-2.1 2.1-2.1h2.3v-3.8c-.4 0-1.7-.2-3.3-.2-3.3 0-5.5 2-5.5 5.6v3.1h-3.7v4.3h3.7v11z" fill="#fff"/><path d="m165.8 14.6c1.8-.9 3.6-1.9 5.4-2.8-1.8-.9-3.6-1.9-5.4-2.8z" fill="#fff"/><path d="m168 0c-6.6 0-12 5.4-12 12s5.4 12 12 12 12-5.4 12-12-5.4-12-12-12zm8.2 16c-.2.9-.9 1.6-1.8 1.7-2.1.2-4.2.2-6.3.2s-4.2 0-6.3-.2c-.9-.1-1.6-.8-1.8-1.7-.3-1.3-.3-2.7-.3-4s0-2.7.3-4c.2-.9.9-1.6 1.8-1.7 2.1-.2 4.2-.2 6.3-.2s4.2 0 6.3.2c.9.1 1.6.8 1.8 1.7.3 1.3.3 2.7.3 4s0 2.7-.3 4z" fill="#fff"/><path d="m29.5 27.8c-1.1.5-2.3.8-3.5 1 1.3-.8 2.2-1.9 2.7-3.4-1.2.7-2.5 1.2-3.8 1.5-1.1-1.2-2.7-1.9-4.4-1.9-3.3 0-6.1 2.7-6.1 6.1 0 .5.1.9.2 1.4-5-.3-9.5-2.7-12.5-6.3-.5.9-.8 1.9-.8 3 0 2.1 1.1 4 2.7 5-1 0-1.9-.3-2.7-.8v.1c0 2.9 2.1 5.4 4.9 5.9-.5.1-1 .2-1.6.2-.4 0-.8 0-1.1-.1.8 2.4 3 4.2 5.7 4.2-2.1 1.6-4.7 2.6-7.5 2.6-.5 0-1 0-1.4-.1 2.4 1.8 5.6 2.8 9 2.8 11.1 0 17.2-9.2 17.2-17.2 0-.3 0-.5 0-.8 1.2-.9 2.2-1.9 3-3.2z" fill="#fec325"/><path d="m155 35.5h-3.8v-3.8h-3v3.8h-3.8v3h3.8v3.8h3v-3.8h3.8m-24-3.7v4.7h6.5c-.5 2.8-2.9 4.9-6.5 4.9-4 0-7.2-3.4-7.2-7.3 0-4 3.2-7.3 7.2-7.3 1.8 0 3.4.6 4.6 1.8l3.4-3.4c-2.1-1.9-4.8-3.1-8-3.1-6.6 0-12 5.4-12 12s5.4 12 12 12c6.9 0 11.5-4.9 11.5-11.7 0-.9-.1-1.7-.2-2.5z" fill="#fec325"/><path d="m42 25c-6.6 0-12 5.4-12 12 0 5.1 3.2 9.4 7.6 11.2-.1-.9-.2-2.4 0-3.4.2-.9 1.4-6 1.4-6s-.3-.8-.3-1.8c0-1.7 1-2.9 2.2-2.9 1 0 1.5.8 1.5 1.7 0 1-.7 2.6-1 4-.3 1.2.6 2.2 1.8 2.2 2.1 0 3.8-2.2 3.8-5.5 0-2.9-2.1-4.9-5-4.9-3.4 0-5.4 2.6-5.4 5.2 0 1 .4 2.1.9 2.7.1.1.1.2.1.3-.1.4-.3 1.2-.3 1.4-.1.2-.2.3-.4.2-1.5-.7-2.4-2.9-2.4-4.6 0-3.8 2.8-7.3 7.9-7.3 4.2 0 7.4 3 7.4 6.9 0 4.1-2.6 7.5-6.2 7.5-1.2 0-2.4-.6-2.8-1.4 0 0-.6 2.3-.7 2.9-.3 1-1 2.4-1.5 3.1 1.1.3 2.3.5 3.6.5 6.6 0 12-5.4 12-12s-5.6-12-12.2-12z" fill="#fec325"/><path d="m116.7 26.3c-.9-.9-1.9-1.3-3.2-1.3h-15c-1.2 0-2.3.4-3.2 1.3s-1.3 1.9-1.3 3.2v15c0 1.2.4 2.3 1.3 3.2s1.9 1.3 3.2 1.3h15c1.2 0 2.3-.4 3.2-1.3s1.3-1.9 1.3-3.2v-15c0-1.2-.4-2.3-1.3-3.2zm-12.8 13c-.6.6-1.4 1-2.3 1s-1.7-.3-2.3-1c-.6-.6-1-1.4-1-2.3s.3-1.7 1-2.3 1.4-1 2.3-1 1.7.3 2.3 1c.6.6 1 1.4 1 2.3s-.3 1.7-1 2.3zm8.9 0c-.6.6-1.4 1-2.3 1s-1.7-.3-2.3-1c-.6-.6-1-1.4-1-2.3s.3-1.7 1-2.3 1.4-1 2.3-1 1.7.3 2.3 1c.6.6 1 1.4 1 2.3-.1.9-.4 1.7-1 2.3z" fill="#fec325"/><path d="m203.6 36.4c-.1.1-.2.1-.3.2v-9.3c0-1.3-1-2.3-2.2-2.3h-16.8c-1.2 0-2.2 1-2.2 2.3v9.3c-.1-.1-.2-.1-.3-.2-.7-.5-1.2.2-.7.8.9 1 2.5 2.4 5 3.4-2.6 9 6.4 10.4 6.3 5.8 0 .1 0-2.6 0-4.5.2.1.4.1.6.2 0 1.9 0 4.5 0 4.4-.1 4.6 8.9 3.2 6.3-5.8 2.5-1 4.1-2.3 5-3.4.5-.7.1-1.4-.7-.9zm-8.9 2.3c-1.1-.1-1.5.4-1.6 1.2-.3-.2-.5-.4-.8-.7 0 0-.1-.1-.1-.1-.2-.3-.6-.4-1.3-.4-1.5 0-4.2.3-7.4-1.3v-9c0-1.6.4-2.1 1.9-2.1h14.9c1.4 0 1.9.6 1.9 2.1v8.9c-3.2 1.8-6 1.5-7.5 1.4z" fill="#fec325"/><path d="m196.3 32.2c-1.6 0-2.9 1.2-2.9 2.7s1.3 2.7 2.9 2.7 2.9-1.2 2.9-2.7-1.3-2.7-2.9-2.7z" fill="#fec325"/><path d="m192.5 34.9c0 1.5-1.3 2.7-2.9 2.7s-2.9-1.2-2.9-2.7 1.3-2.7 2.9-2.7 2.9 1.2 2.9 2.7z" fill="#fec325"/><path d="m63.1 49v-10.9h3.7l.5-4.3h-4.2v-2.7c0-1.2.3-2.1 2.1-2.1h2.3v-3.8c-.4 0-1.7-.2-3.3-.2-3.3 0-5.5 2-5.5 5.6v3.1h-3.7v4.3h3.7v11z" fill="#fec325"/><path d="m165.8 39.6c1.8-.9 3.6-1.9 5.4-2.8-1.8-.9-3.6-1.9-5.4-2.8z" fill="#fec325"/><path d="m168 25c-6.6 0-12 5.4-12 12s5.4 12 12 12 12-5.4 12-12-5.4-12-12-12zm8.2 16c-.2.9-.9 1.6-1.8 1.7-2.1.2-4.2.2-6.3.2s-4.2 0-6.3-.2c-.9-.1-1.6-.8-1.8-1.7-.3-1.3-.3-2.7-.3-4s0-2.7.3-4c.2-.9.9-1.6 1.8-1.7 2.1-.2 4.2-.2 6.3-.2s4.2 0 6.3.2c.9.1 1.6.8 1.8 1.7.3 1.3.3 2.7.3 4s0 2.7-.3 4z" fill="#fec325"/><path d="m229.2 20c.6 0 1.1-.2 1.5-.6l-7.2-7.2c-.2.1-.3.2-.5.4-.5.4-1 .7-1.3.9s-.8.4-1.4.7c-.6.2-1.1.3-1.6.3-.5 0-1-.1-1.6-.3s-1-.5-1.3-.7-.8-.5-1.3-.9c-.1-.1-.3-.2-.5-.4l-7.2 7.2c.4.4.9.6 1.5.6z" fill="#fff"/><path d="m207.4 7.7c-.5-.4-1-.8-1.4-1.2v11l6.4-6.4c-1.3-.9-3-2-5-3.4z" fill="#fff"/><path d="m230 7.7c-1.9 1.3-3.6 2.4-4.9 3.4l6.4 6.4v-11c-.4.4-.9.8-1.5 1.2z" fill="#fff"/><path d="m229.2 0h-20.9c-.7 0-1.3.2-1.7.7s-.6 1.1-.6 1.8c0 .6.3 1.2.8 1.9s1.1 1.2 1.7 1.6c.3.2 1.3.9 2.9 2 .9.6 1.6 1.1 2.3 1.6.6.4 1 .7 1.4 1 0 0 .1.1.2.1.1.1.2.2.4.3.3.2.6.4.8.5s.5.3.7.5c.3.2.6.3.8.4.3.1.5.1.7.1.2 0 .5 0 .7-.1.3-.1.5-.2.8-.4s.5-.3.7-.5c.2-.1.5-.3.8-.5.1-.1.3-.2.4-.3s.2-.1.2-.1c.3-.2.8-.5 1.4-1 1.2-.8 2.9-2 5.2-3.6.7-.5 1.3-1.1 1.7-1.7.5-.7.7-1.4.7-2.1 0-.6-.2-1.2-.7-1.6-.3-.4-.8-.6-1.4-.6z" fill="#fff"/><path d="m455 0 4 4 4-4z" fill="#fff"/><path d="m233 0h25v4h-25z" fill="#fff"/><path d="m233 8h25v4h-25z" fill="#fff"/><path d="m233 16h25v4h-25z" fill="#fff"/><path d="m281.8 8.3h25v4h-25z" fill="#fff" transform="matrix(.7071 -.7071 .7071 .7071 78.9277 211.0888)"/><path d="m292.3-2.3h4v25h-4z" fill="#fff" transform="matrix(.7071 -.7071 .7071 .7071 78.9405 211.0688)"/><path d="m281.8 33.3h25v4h-25z" transform="matrix(.7071 -.7071 .7071 .7071 61.2499 218.411)"/><path d="m292.3 22.7h4v25h-4z" transform="matrix(.7071 -.7071 .7071 .7071 61.263 218.3912)"/><path d="m281.8 56.3h25v4h-25z" fill="#ffc627" transform="matrix(.7071 -.7071 .7071 .7071 44.9808 225.1499)"/><path d="m292.3 45.8h4v25h-4z" fill="#ffc627" transform="matrix(.7071 -.7071 .7071 .7071 44.9939 225.1301)"/><path d="m312.7 7.7v4.6h-3.3v-4.6h-4.4v-3.1h4.4v-4.6h3.3v4.6h4.4v3.1z" fill="#fff"/><path d="m318 3.3v-3.3h12.1v3.3z" fill="#fff"/><path d="m312.7 20.7v4.6h-3.3v-4.6h-4.4v-3.1h4.4v-4.6h3.3v4.6h4.4v3.1z"/><path d="m318 16.3v-3.3h12.1v3.3z"/><path d="m231 25c-13.8 0-25 11.2-25 25s11.2 25 25 25 25-11.2 25-25-11.2-25-25-25zm0 45.3c-11.2 0-20.3-9.1-20.3-20.3s9.1-20.3 20.3-20.3 20.3 9.1 20.3 20.3-9.1 20.3-20.3 20.3zm-6.6-31.2 18.8 10.9-18.8 10.9z" fill="#fff"/><path d="m449 10h-2.9l4-4h-8.1v-2h8.1l-4-4h2.9l5.1 5.1z" fill="#fec325"/><path d="m449 23h-2.9l4-4h-8.1v-2h8.1l-4-4h2.9l5.1 5.1z"/><path d="m449 36h-2.9l4-4h-8.1v-2h8.1l-4-4h2.9l5.1 5.1z" fill="#83847a"/><path d="m340.3 18-9.3-9 9.3-9 .5.5-8.8 8.5 8.8 8.5z" fill="#fff"/><path d="m342 17.5 8.8-8.5-8.8-8.5.5-.5 9.3 9-9.3 9z" fill="#fff"/><path d="m419 0c-3.9 0-7 3.1-7 7s3.1 7 7 7 7-3.1 7-7-3.1-7-7-7zm1 12.7v-3.6h-2v3.6c-2-.3-4.4-2.6-4.7-4.6h2.7v-2h-2.7c.3-2 2.7-4.5 4.7-4.7v2.7h2v-2.8c2 .3 4.4 2.7 4.7 4.7h-2.7v2h2.7c-.3 2.1-2.7 4.4-4.7 4.7z" fill="#fec325"/><path d="m408 0h-10c-1.7 0-3 1.4-3 3v6c0 1.7 1.3 3 3 3h10c1.6 0 3-1.3 3-3v-6c0-1.6-1.4-3-3-3zm-7 10v-8l5 4z" fill="#fec325"/><path d="m393.5 2.4c-.4-.4-.8-.3-1.3-.3h-1.8l-.4-1.3c-.1-.3-.3-.4-.5-.5-.3-.2-.5-.2-.8-.2h-4c-.3 0-.5-.2-.8 0s-.4.5-.5.8l-.4 1.2h-1.8c-.6 0-1.1-.1-1.5.3s-.7.6-.7 1.2v7c0 .6.3 1.3.7 1.7s.9.8 1.5.8h11c.6 0 .9-.4 1.3-.8s.5-1.1.5-1.7v-7c0-.6-.1-.8-.5-1.2zm-4.4 7.1c-.7.7-1.5 1-2.5 1s-1.8-.3-2.5-1-1-1.5-1-2.5.3-1.8 1-2.5 1.5-1 2.5-1 1.8.3 2.5 1 1 1.5 1 2.5c.1 1-.3 1.9-1 2.5z" fill="#fec325"/><path d="m386.7 4.8c-.6 0-1.1.2-1.6.7-.4.4-.7 1-.7 1.6s.2 1.1.7 1.6c.4.4 1 .7 1.6.7s1.1-.2 1.6-.7c.4-.4.7-1 .7-1.6s-.2-1.2-.7-1.6c-.5-.5-1-.7-1.6-.7z" fill="#fec325"/><path d="m359.4 0 1.7 5.3h5.6l-4.5 3.5 1.7 5.5-4.5-3.3-4.6 3.3 1.8-5.5-4.6-3.5h5.6z" fill="#fec325"/><path d="m435.2 12h-3.4l4.8-4.8h-9.6v-2.4h9.6l-4.8-4.8h3.4l6 6z" fill="#fec325"/><path d="m283 19-5.2-3.8c.9-1.5 1.4-3.2 1.4-5.1 0-5.6-4.5-10.1-10.1-10.1s-10.1 4.5-10.1 10.1 4.5 10.1 10.1 10.1c2.8 0 5.3-1.1 7.1-2.9l5.2 3.8zm-13.9-1.4c-4.1 0-7.5-3.4-7.5-7.5s3.4-7.5 7.5-7.5 7.5 3.4 7.5 7.5-3.4 7.5-7.5 7.5z" fill="#fff"/><path d="m283 44-5.2-3.8c.9-1.5 1.4-3.2 1.4-5.1 0-5.6-4.5-10.1-10.1-10.1s-10.1 4.5-10.1 10.1 4.5 10.1 10.1 10.1c2.8 0 5.3-1.1 7.1-2.9l5.2 3.8zm-13.9-1.4c-4.1 0-7.5-3.4-7.5-7.5s3.4-7.5 7.5-7.5 7.5 3.4 7.5 7.5-3.4 7.5-7.5 7.5z"/><path d="m283 93-5.2-3.8c.9-1.5 1.4-3.2 1.4-5.1 0-5.6-4.5-10.1-10.1-10.1s-10.1 4.5-10.1 10.1 4.5 10.1 10.1 10.1c2.8 0 5.3-1.1 7.1-2.9l5.2 3.8zm-13.9-1.4c-4.1 0-7.5-3.4-7.5-7.5s3.4-7.5 7.5-7.5 7.5 3.4 7.5 7.5-3.4 7.5-7.5 7.5z" fill="#ffc627"/><path d="m716 100c-27.6 0-50-22.4-50-50s22.4-50 50-50 50 22.4 50 50-22.4 50-50 50zm0-97c-25.9 0-47 21.1-47 47s21.1 47 47 47 47-21.1 47-47-21.1-47-47-47z" fill="#fec325"/><path d="m715.9 25c-13.8.1-24.9 11.3-24.9 25.1.1 13.8 11.3 24.9 25.1 24.9 13.8-.1 24.9-11.3 24.9-25.1-.1-13.8-11.3-25-25.1-24.9zm.2 45.9c-11.6.1-21-9.3-21-20.8-.1-11.6 9.3-21 20.8-21 11.6-.1 21 9.3 21 20.8.1 11.5-9.2 21-20.8 21zm3.7-10-.1-18.7-9.6.1v4.1h2.6l.1 14.6h-2.8v3.9l12.1-.1v-3.9zm-3.7-21.4c2.4 0 3.8-1.6 3.8-3.5-.1-2-1.4-3.5-3.7-3.5s-3.7 1.6-3.7 3.5 1.4 3.5 3.6 3.5z" fill="#fec325"/><path d="m615 100c-27.6 0-50-22.4-50-50s22.4-50 50-50 50 22.4 50 50-22.4 50-50 50zm0-97c-25.9 0-47 21.1-47 47s21.1 47 47 47 47-21.1 47-47-21.1-47-47-47z" fill="#fec325"/><path d="m640 32.8c-.3-.5-.8-.8-1.3-.9l-28.6-6.9c-.9-.2-1.9.3-2.2 1.2l-10.9 27.8 3.6 1.3 10.4-26.3 24.8 6.3c-1.6 4.8-5.2 14.9-8.8 24.2-3.1 8.2-4.9 10.9-8.2 11.5-6.9 1-6.8-7.8-6.8-7.8l-22-8.9c-1.6 9.9 6.1 12.3 6.1 12.3l16.1 7.3s2.5 1.2 5.3 1.1c7.4-.2 10-5.5 13.2-14.1 4.7-12.4 9.5-26.3 9.5-26.5.1-.5.1-1.1-.2-1.6z" fill="#fec325"/><path d="m626.9 44c.2 0 .3.1.5.1.8 0 1.6-.6 1.9-1.4.3-1-.3-2.1-1.4-2.4l-8.4-2.6c-1-.3-2.1.3-2.4 1.4-.3 1 .3 2.1 1.4 2.4z" fill="#fec325"/><path d="m613.8 46.8c-.3 1 .2 2.1 1.2 2.5l8.3 3c.2.1.4.1.6.1.8 0 1.6-.5 1.8-1.3.3-1-.2-2.1-1.2-2.4l-8.3-3c-.9-.5-2 .1-2.4 1.1z" fill="#fec325"/><path d="m613.1 53.7c-1-.3-2.1.2-2.4 1.2s.2 2.1 1.2 2.4l8.4 3c.2.1.4.1.6.1.8 0 1.6-.5 1.8-1.3.3-1-.2-2.1-1.2-2.4z" fill="#fec325"/><path d="m612.8 35.4c1.2 0 2.1.9 2.1 2.1s-1 2.1-2.1 2.1c-1.2 0-2.1-.9-2.1-2.1-.1-1.1.9-2.1 2.1-2.1z" fill="#fec325"/><path d="m609.7 43.2c1.2 0 2.1.9 2.1 2.1s-1 2.1-2.1 2.1c-1.2 0-2.1-.9-2.1-2.1s1-2.1 2.1-2.1z" fill="#fec325"/><path d="m606.5 51.2c1.2 0 2.1.9 2.1 2.1s-1 2.1-2.1 2.1-2.1-.9-2.1-2.1.9-2.1 2.1-2.1z" fill="#fec325"/><path d="m58.7 150v7.8h-1.9v-7.8h-2.8v-1.9h7.5v1.9z"/><path d="m69 157.8v-4.1h-4v4.1h-1.9v-9.7h1.9v3.7h4v-3.7h1.9v9.7z"/><path d="m73.3 157.8v-9.7h6.7v1.9h-4.8v1.7h2.8v1.9h-2.8v2.3h5v1.9z"/><path d="m90.1 157.9c-2.5 0-4.3-1.9-4.3-5s1.8-5 4.3-5 4.3 1.9 4.3 5c-.1 3.1-1.8 5-4.3 5zm-.1-8.1c-1.4 0-2.3 1.1-2.3 3.1s.9 3.1 2.3 3.1 2.3-1.1 2.3-3.1c0-1.9-.9-3.1-2.3-3.1z"/><path d="m98.1 150v1.8h2.9v1.9h-2.9v4.1h-1.9v-9.7h6.9v1.9z"/><path d="m106.6 150v1.8h2.9v1.9h-2.9v4.1h-1.9v-9.7h6.9v1.9z"/><path d="m113.1 157.8v-9.7h1.9v9.7z"/><path d="m123 150.9c-.3-.7-.9-1.1-1.8-1.1-1.5 0-2.3 1.3-2.3 3.1 0 1.7.8 3.1 2.3 3.1.9 0 1.4-.4 1.9-1.2l1.6 1c-.7 1.4-1.8 2.2-3.6 2.2-2.5 0-4.2-1.9-4.2-5 0-3 1.8-5 4.3-5 1.8 0 2.9.9 3.5 2.1z"/><path d="m126.6 157.8v-9.7h1.9v9.7z"/><path d="m137.2 157.8-.8-2.2h-3.5l-.8 2.2h-2.1l3.7-9.7h1.9l3.7 9.7zm-2-5.8c-.2-.6-.4-1.2-.5-1.5-.1.4-.3.9-.5 1.5l-.6 1.8h2.2z"/><path d="m140.9 157.8v-9.7h1.9v7.8h4.9v1.9z"/><path d="m155.5 150v1.8h2.9v1.9h-2.9v4.1h-1.9v-9.7h6.9v1.9z"/><path d="m165.7 157.9c-2.5 0-4.3-1.9-4.3-5s1.8-5 4.3-5 4.3 1.9 4.3 5-1.8 5-4.3 5zm0-8.1c-1.4 0-2.3 1.1-2.3 3.1s.9 3.1 2.3 3.1 2.3-1.1 2.3-3.1c0-1.9-1-3.1-2.3-3.1z"/><path d="m177.4 150.9c-.3-.7-.9-1.1-1.8-1.1-1.5 0-2.3 1.3-2.3 3.1 0 1.7.8 3.1 2.3 3.1.9 0 1.4-.4 1.9-1.2l1.6 1c-.7 1.4-1.8 2.2-3.6 2.2-2.5 0-4.2-1.9-4.2-5 0-3 1.8-5 4.3-5 1.8 0 2.9.9 3.5 2.1z"/><path d="m184.7 157.9c-2.3 0-3.9-1.6-3.9-4.4v-5.4h1.9v5.4c0 1.6.7 2.5 2 2.5s2-1 2-2.5v-5.4h1.9v5.4c0 2.8-1.5 4.4-3.9 4.4z"/><path d="m194 157.9c-1.6 0-3-.7-3.8-1.8l1.4-1.2c.7.8 1.6 1.1 2.5 1.1 1.1 0 1.7-.3 1.7-1.1 0-.6-.3-.9-2.2-1.3-1.8-.4-3-1-3-2.9 0-1.8 1.6-2.8 3.5-2.8 1.5 0 2.6.6 3.5 1.5l-1.4 1.4c-.6-.6-1.3-1-2.2-1-1 0-1.4.4-1.4.9 0 .6.4.8 2 1.2 1.5.4 3.2.9 3.2 3 0 1.8-1.2 3-3.8 3z"/><path d="m207.6 157.9c-2.5 0-4.3-1.9-4.3-5s1.8-5 4.3-5 4.3 1.9 4.3 5-1.8 5-4.3 5zm0-8.1c-1.4 0-2.3 1.1-2.3 3.1s.9 3.1 2.3 3.1 2.3-1.1 2.3-3.1c0-1.9-1-3.1-2.3-3.1z"/><path d="m215.7 150v1.8h2.9v1.9h-2.9v4.1h-1.9v-9.7h6.9v1.9z"/><path d="m230.5 150v7.8h-1.9v-7.8h-2.8v-1.9h7.5v1.9z"/><path d="m240.8 157.8v-4.1h-4v4.1h-1.9v-9.7h1.9v3.7h4v-3.7h1.9v9.7z"/><path d="m245.1 157.8v-9.7h6.7v1.9h-4.8v1.7h2.8v1.9h-2.8v2.3h5v1.9z"/><path d="m262 157.9c-2.3 0-3.9-1.6-3.9-4.4v-5.4h1.9v5.4c0 1.6.7 2.5 2 2.5s2-1 2-2.5v-5.4h1.9v5.4c0 2.8-1.5 4.4-3.9 4.4z"/><path d="m268.6 157.9c-.7 0-1.3-.6-1.3-1.3s.6-1.3 1.3-1.3 1.3.6 1.3 1.3-.6 1.3-1.3 1.3z"/><path d="m275.1 157.9c-1.6 0-3-.7-3.8-1.8l1.4-1.2c.7.8 1.6 1.1 2.5 1.1 1.2 0 1.7-.3 1.7-1.1 0-.6-.3-.9-2.2-1.3-1.8-.4-3-1-3-2.9 0-1.8 1.6-2.8 3.5-2.8 1.5 0 2.6.6 3.5 1.5l-1.4 1.4c-.6-.6-1.3-1-2.2-1-1 0-1.4.4-1.4.9 0 .6.4.8 2 1.2s3.2.9 3.2 3c.1 1.8-1.1 3-3.8 3z"/><path d="m281.7 157.9c-.7 0-1.3-.6-1.3-1.3s.6-1.3 1.3-1.3 1.3.6 1.3 1.3-.6 1.3-1.3 1.3z"/><path d="m295.3 157.8-.8-2.2h-3.5l-.8 2.2h-2.1l3.7-9.7h1.9l3.7 9.7zm-2-5.8c-.2-.6-.4-1.2-.5-1.5-.1.4-.3.9-.5 1.5l-.6 1.8h2.2z"/><path d="m304.6 157.8-1.7-3.5h-2v3.5h-1.9v-9.7h4.5c1.8 0 3.3 1 3.3 3.1 0 1.5-.6 2.4-1.9 2.9l1.9 3.8h-2.2zm-1.1-7.8h-2.5v2.5h2.5c.9 0 1.4-.4 1.4-1.3-.1-.9-.6-1.2-1.4-1.2z"/><path d="m315.9 157.8v-3.6c0-.5 0-1.8 0-2.1-.1.4-.4 1.1-.7 1.6l-2 4.3-2-4.3c-.3-.6-.5-1.2-.7-1.6v2.1 3.6h-1.9v-9.7h1.9l2 4.4c.3.5.5 1.3.7 1.6.1-.4.4-1.1.7-1.6l2-4.4h1.9v9.7z"/><path d="m324.8 153.9v3.8h-1.9v-3.7l-3.7-5.9h2.2l1.4 2.3c.3.6.9 1.5 1.1 1.9.2-.4.7-1.3 1.1-1.9l1.4-2.3h2.2z"/><path d="m54.3 123.5 10.1-.6c.2 1.6.7 2.9 1.3 3.7 1.1 1.4 2.6 2.1 4.7 2.1 1.5 0 2.7-.4 3.5-1.1s1.2-1.5 1.2-2.5c0-.9-.4-1.7-1.2-2.4s-2.6-1.4-5.4-2c-4.6-1-7.9-2.4-9.9-4.2-2-1.7-3-3.9-3-6.6 0-1.8.5-3.4 1.5-5s2.5-2.8 4.6-3.7c2-.9 4.8-1.3 8.4-1.3 4.4 0 7.7.8 10 2.4s3.7 4.2 4.1 7.8l-10 .6c-.3-1.5-.8-2.7-1.7-3.4-.8-.7-2-1-3.5-1-1.2 0-2.2.3-2.8.8s-.9 1.2-.9 1.9c0 .5.3 1 .8 1.5s1.7.9 3.5 1.3c4.6 1 7.9 2 9.9 3s3.5 2.3 4.4 3.8 1.4 3.2 1.4 5.1c0 2.2-.6 4.2-1.8 6.1s-2.9 3.3-5.1 4.2c-2.2 1-4.9 1.4-8.2 1.4-5.8 0-9.8-1.1-12.1-3.4-2.3-2.2-3.6-5.1-3.8-8.5z"/><path d="m87.4 100.6h32.1v8.4h-10.8v25.8h-10.5v-25.8h-10.8z"/><path d="m141 129.1h-12l-1.7 5.6h-10.8l12.9-34.2h11.5l12.8 34.2h-11.1zm-2.2-7.4-3.8-12.3-3.7 12.3z"/><path d="m156.8 100.6h9.9l12.9 18.9v-18.9h10v34.2h-10l-12.9-18.8v18.8h-9.9z"/><path d="m195.9 100.6h15.7c3.1 0 5.6.4 7.5 1.3s3.5 2 4.7 3.6 2.1 3.4 2.7 5.5.8 4.3.8 6.6c0 3.7-.4 6.5-1.2 8.5s-2 3.7-3.5 5.1-3.1 2.3-4.8 2.7c-2.3.6-4.4.9-6.3.9h-15.7zm10.6 7.7v18.7h2.6c2.2 0 3.8-.2 4.7-.7s1.7-1.3 2.2-2.6c.5-1.2.8-3.2.8-5.9 0-3.6-.6-6.1-1.8-7.4s-3.1-2-5.9-2z"/><path d="m231.8 118.6h13.8v7.3h-13.8z"/><path d="m243.8 100.6h32.1v8.4h-10.8v25.8h-10.6v-25.8h-10.8z"/><path d="m317.8 100.6h10.2v7.8l-2 15.7h-6.3l-1.9-15.7zm.4 25.8h9.5v8.4h-9.5z"/><path d="m309 104.6c-3.1-3.1-7.5-4.6-13.2-4.6-5.6 0-9.9 1.6-13 4.7s-4.7 7.5-4.7 13c0 4 .8 7.3 2.4 10s3.6 4.6 6.1 5.8 5.7 1.8 9.6 1.8c3.8 0 7-.7 9.5-2.1s4.5-3.4 5.8-6 2-5.8 2-9.8c.1-5.5-1.4-9.8-4.5-12.8zm-7.7 21.3-5.4-4-5.4 3.9 2.1-6.2-5.4-3.8h6.7l2.1-6.4 2.1 6.4h6.7l-5.4 3.8z"/><path d="m49.5 149.1c0-.7.6-1.2 1.2-1.2.7 0 1.2.5 1.2 1.2s-.6 1.2-1.2 1.2-1.2-.4-1.2-1.2zm1.3-.9c-.5 0-.9.4-.9 1s.4 1 .9 1 .9-.4.9-1-.4-1-.9-1zm-.2 1.6h-.3v-1.3h.5c.3 0 .5.1.5.4 0 .2-.2.3-.3.4l.3.6h-.3l-.3-.6h-.2v.5zm0-.8h.2c.2 0 .3-.1.3-.2s-.1-.2-.3-.2h-.2z" fill="#ffc627"/><path d="m4.1 148.2c-2.2 0-4.1 1.8-4.1 4.1v9.4c0 2.2 1.8 4.1 4.1 4.1h41.3c2.2 0 4.1-1.8 4.1-4.1v-9.4c0-2.2-1.8-4.1-4.1-4.1z" fill="#231f20"/><path d="m45.3 149.5h-41.2c-1.5 0-2.8 1.2-2.8 2.8v9.4c0 1.5 1.2 2.8 2.8 2.8h41.3c1.5 0 2.8-1.2 2.8-2.8v-9.4c-.1-1.5-1.3-2.8-2.9-2.8zm1.5 12.2c0 .8-.7 1.5-1.5 1.5h-41.2c-.8 0-1.5-.7-1.5-1.5v-9.4c0-.8.7-1.5 1.5-1.5h41.3c.8 0 1.5.7 1.5 1.5v9.4z" fill="#ffc627"/><path d="m4.1 100c-2.2 0-4.1 1.8-4.1 4.1v38.8c0 2.2 1.8 4.1 4.1 4.1h41.3c2.2 0 4.1-1.8 4.1-4.1v-38.8c0-2.2-1.8-4.1-4.1-4.1z" fill="#231f20"/><path d="m45.3 101.3h-41.2c-1.5 0-2.8 1.2-2.8 2.8v38.8c0 1.5 1.2 2.8 2.8 2.8h41.3c1.5 0 2.8-1.2 2.8-2.8v-38.8c-.1-1.6-1.3-2.8-2.9-2.8zm1.5 41.6c0 .8-.7 1.5-1.5 1.5h-41.2c-.8 0-1.5-.7-1.5-1.5v-38.8c0-.8.7-1.5 1.5-1.5h41.3c.8 0 1.5.7 1.5 1.5v38.8z" fill="#ffc627"/><path d="m10.2 159.9-1.3 1.1h-2l-1.2-1.2v-6.9h1.9v6.6h.8v-6.6h1.9v7z" fill="#fff"/><path d="m12.6 161h-1.9v-1.6h1.9z" fill="#fff"/><path d="m16.6 152.9 1.3 1.2v1.4h-1.9v-1.1h-.8v1.6l1.4.1 1.3 1.2v2.5l-1.2 1.2h-2.1l-1.2-1.2v-1.4h1.9v1.1h.8v-1.7l-1.3-.1-1.3-1.2v-2.4l1.2-1.2z" fill="#fff"/><path d="m20.4 161h-1.9v-1.6h1.9z" fill="#fff"/><path d="m24.2 158h-.8l.3-3.4h.2zm.9-5.1h-2.7l-1.1 8.1h1.8l.2-1.5h1.1l.2 1.5h1.8z" fill="#fff"/><path d="m29.7 154.5v1.8h-.8v-1.8zm1.8-.4-1.3-1.2h-3.2v8.1h1.9v-3.2h.8v3.2h1.8v-3.2l-.9-.8.9-.8z" fill="#fff"/><path d="m38.3 161h-1.7v-5.1h-.1l-.8 5.1h-.7l-.8-5.1h-.1v5.1h-1.7v-8.1h2.2l.7 3.9h.2l.6-3.9h2.2z" fill="#fff"/><path d="m42.5 157.6v3.4h-1.9v-3.4l-1.6-4.7h1.9l.7 2.9.7-2.9h1.9z" fill="#fff"/><path d="m36.2 141.2-11.5-8.4-11.5 8.4 4.4-13.6-11.5-8.3h14.2l4.4-13.6 4.4 13.6h14.2l-11.5 8.3z" fill="#ffc627"/><path d="m33.7 137.6-9-6.5-8.9 6.5 3.4-10.5-9-6.5h11.1l3.4-10.5 3.4 10.5h11.1l-9 6.5z" fill="#231f20"/><path d="m24.7 114.3 2.5 7.6h8l-6.5 4.7 2.5 7.6-6.5-4.7-6.5 4.7 2.5-7.6-6.5-4.7h8z" fill="#fff"/><path d="m132 54 3.2 4h2.7l-3.2-4 3.2-4h-2.7z" fill="#fff"/><path d="m122 56 4.8 6h4l-4.8-6 4.8-6h-4z" fill="#fff"/><path d="m141.7 50h-2.7l3.2 4-3.2 4h2.7l3.2-4z" fill="#fff"/><path d="m116 50h-4l4.8 6-4.8 6h4l4.8-6z" fill="#fff"/><path d="m52.7 70v-9.1h3.1l.5-3.6h-3.5v-2.3c0-1 .3-1.7 1.8-1.7h1.9v-3.2c-.3 0-1.4-.1-2.7-.1-2.7 0-4.6 1.7-4.6 4.7v2.6h-3.2v3.6h3.1v9.1z" fill="#fff"/><path d="m108.9 68c.5 0 1-.2 1.3-.5l-6.5-6.5c-.2.1-.3.2-.5.3-.5.4-.9.6-1.2.8s-.7.4-1.2.6-1 .3-1.4.3c-.4 0-.9-.1-1.4-.3s-.9-.4-1.2-.6-.7-.5-1.2-.8c-.1-.1-.3-.2-.4-.3l-6.5 6.5c.4.3.8.5 1.3.5z" fill="#fff"/><path d="m89.3 56.9c-.5-.3-.9-.7-1.3-1.1v9.9l5.7-5.7c-1.1-.8-2.6-1.9-4.4-3.1z" fill="#fff"/><path d="m109.6 56.9c-1.7 1.2-3.2 2.2-4.4 3l5.7 5.7v-9.9c-.4.5-.8.9-1.3 1.2z" fill="#fff"/><path d="m108.9 50h-18.8c-.7 0-1.2.2-1.5.7-.4.4-.5 1-.5 1.7 0 .5.2 1.1.7 1.7s1 1.1 1.5 1.5c.3.2 1.2.8 2.6 1.8.8.5 1.5 1 2.1 1.4.5.3.9.7 1.3.9 0 0 .1.1.2.1.1.1.2.2.4.3.3.2.5.4.7.5s.4.3.7.4c.3.2.5.3.7.3.2.1.4.1.6.1.2 0 .4 0 .6-.1s.5-.2.7-.3c.3-.2.5-.3.7-.4s.4-.3.7-.5c.1-.1.3-.2.4-.3s.2-.1.2-.1c.3-.2.7-.5 1.3-.9 1.1-.7 2.6-1.8 4.7-3.3.6-.4 1.1-1 1.6-1.6.4-.6.6-1.3.6-1.9s-.2-1-.6-1.4c-.6-.4-1.1-.6-1.6-.6z" fill="#fff"/><path d="m163.8 51.5c0-.8-.7-1.5-1.5-1.5h-11.1c-.8 0-1.5.7-1.5 1.5v4.1h14.1z" fill="#fff"/><path d="m150.5 68.6c0 .8.7 1.5 1.5 1.5h9.5c.8 0 1.5-.7 1.5-1.5v-5.3h-12.5zm1.2-3.8h10v1h-10zm0 2.3h10v1h-10z" fill="#fff"/><path d="m165.3 56.8h-17c-1.3 0-2.2 1-2.2 2.2v6.7c0 1.3 1 2.2 2.2 2.2h1.1v-5.7h14.9v5.7h1.1c1.3 0 2.2-1 2.2-2.2v-6.7c-.1-1.3-1.1-2.2-2.3-2.2zm-2.3 3.8c-.6 0-1.1-.5-1.1-1.1s.5-1.1 1.1-1.1 1.1.5 1.1 1.1-.5 1.1-1.1 1.1z" fill="#fff"/><path d="m179.9 53.7v-3.7l-5.4 4.4-5.5-4.4v3.7l5.5 4.3z"/><path d="m181 54.4v3.6l5.4-4.3 5.4 4.3v-3.6l-5.4-4.4z"/><path d="m179.9 62.7v-3.7l-5.4 4.4-5.5-4.4v3.7l5.5 4.3z" fill="#fff"/><path d="m181 63.4v3.6l5.4-4.3 5.4 4.3v-3.6l-5.4-4.4z" fill="#fff"/><path d="m18 78.5c0-3.2-2-6.2-5-7.4-.1 0-.2-.1-.3-.1-.4 0-.7.3-.7.7 0 .3.2.5.4.6.1.1.3.1.5.2.3.2.6.3.9.5 1.8 1.3 2.8 3.3 2.8 5.4 0 2.2-1 4.2-2.8 5.4-.3.2-.6.4-.9.5-.2.1-.3.1-.5.2-.2.4-.4.5-.4.8 0 .4.3.7.7.7.1 0 .2 0 .3-.1 3-1.2 5-4.2 5-7.4m-2.8 0c0-2.1-1.3-4.1-3.4-5-.1 0-.2-.1-.3-.1-.4 0-.7.3-.7.7 0 .3.2.5.4.6.3.1.6.3.8.5 1.1.8 1.7 2 1.7 3.3s-.6 2.5-1.7 3.3c-.3.2-.5.3-.8.5-.2.1-.4.3-.4.6 0 .4.3.7.7.7.1 0 .2 0 .3-.1 2.1-.9 3.4-2.9 3.4-5m-2.7 0c0-1.1-.7-2.1-1.7-2.5-.1 0-.2-.1-.3-.1-.4 0-.7.3-.7.7 0 .8 1.3.6 1.3 1.9s-1.3 1.1-1.3 1.9c0 .4.3.7.7.7.1 0 .2 0 .3-.1 1-.4 1.7-1.4 1.7-2.5m-4.2-5.7c0-.4-.3-.7-.7-.7-.2 0-.4.1-.5.2l-3.6 3.5h-2.8c-.4 0-.7.3-.7.7v4c0 .4.3.7.7.7h2.8l3.6 3.5c.1.1.3.2.5.2.4 0 .7-.3.7-.7z" fill="#fff"/><path d="m20 80.5c0-2 0-7 0-8.9 0-.6.2-.7.8-.4 1.9 1 6.7 3.4 8.7 4.4.7.3.7.5 0 .8-2.2 1.1-6.8 3.4-8.7 4.4-.6.3-.8.3-.8-.3z" fill="#fff"/><path d="m345.8 128.7c1.4-.5 2.7-.9 3.8-1.2s2.1-.4 3-.4c3.6 0 6.6 1.3 9.1 3.9s3.7 5.8 3.7 9.6c0 4.7-1.6 8.6-4.9 11.8s-7.4 4.8-12.5 4.8-9.4-2-12.8-6-5.1-9.1-5.1-15.3c0-9.3 3.1-17.2 9.3-23.8 6.2-6.5 14.6-10.6 25-12.2v10c-6 1.4-10.4 3.6-13.3 6.5-3 3-4.7 7.1-5.3 12.3zm47 0c1.4-.5 2.7-.9 3.8-1.2s2.1-.4 2.9-.4c3.6 0 6.7 1.3 9.2 3.9s3.7 5.8 3.7 9.6c0 4.7-1.7 8.6-5 11.8s-7.5 4.8-12.5 4.8c-5.1 0-9.4-2-12.7-6-3.4-4-5-9.1-5-15.3 0-9.4 3.1-17.3 9.2-23.8 6.2-6.5 14.5-10.5 25-12.1v10c-6 1.4-10.4 3.6-13.3 6.5-3 2.9-4.7 7-5.3 12.2z" fill="#ffc627" opacity=".75"/><path d="m414 157.2v-10.1c6-1.4 10.4-3.5 13.3-6.4s4.6-7 5.2-12.3c-1.4.5-2.7.9-3.8 1.2s-2.1.4-3 .4c-3.6 0-6.7-1.3-9.1-3.9s-3.7-5.7-3.7-9.5c0-4.8 1.6-8.7 4.9-11.9s7.4-4.7 12.5-4.7 9.4 2 12.8 6 5.1 9 5.1 15.2c0 9.4-3.1 17.3-9.3 23.9-6.1 6.5-14.4 10.6-24.9 12.1zm46.8 0v-10.1c6.1-1.4 10.5-3.6 13.5-6.5 2.9-2.9 4.7-7 5.3-12.3-1.4.5-2.7.9-3.8 1.2s-2.1.4-3 .4c-3.6 0-6.6-1.3-9.1-3.9s-3.7-5.7-3.7-9.5c0-4.8 1.6-8.7 4.9-11.9s7.4-4.7 12.5-4.7 9.4 2 12.7 5.9c3.4 3.9 5 9 5 15.3 0 9.4-3.1 17.3-9.3 23.9-6.1 6.6-14.5 10.7-25 12.2z" fill="#ffc627" opacity=".75"/><path d="m314.2 67.4h21.8v5.5h-21.8z" fill="#fec325"/><path d="m314.2 59.2h21.8v5.5h-21.8z" fill="#fec325"/><path d="m314.2 51h21.8v5.5h-21.8z" fill="#fec325"/><circle cx="308.7" cy="61.9" fill="#fec325" r="2.7"/><circle cx="308.7" cy="53.7" fill="#fec325" r="2.7"/><circle cx="308.7" cy="70.1" fill="#fec325" r="2.7"/><path d="m81 2.2c3.2 0 3.6 0 4.8.1s1.8.2 2.2.4c.6.2 1 .5 1.4.9s.7.8.9 1.4c.2.4.4 1.1.4 2.2.1 1.3.1 1.6.1 4.8s0 3.6-.1 4.8-.2 1.8-.4 2.2c-.2.6-.5 1-.9 1.4s-.8.7-1.4.9c-.4.2-1.1.4-2.2.4-1.3.1-1.6.1-4.8.1s-3.6 0-4.8-.1-1.8-.2-2.2-.4c-.6-.2-1-.5-1.4-.9s-.7-.8-.9-1.4c-.2-.4-.4-1.1-.4-2.2-.1-1.3-.1-1.6-.1-4.8s0-3.6.1-4.8.2-1.8.4-2.2c.2-.6.5-1 .9-1.4s.8-.7 1.4-.9c.4-.2 1.1-.4 2.2-.4 1.2-.1 1.6-.1 4.8-.1m0-2.2c-3.3 0-3.7 0-4.9.1-1.3.1-2.1.3-2.9.6-.8.2-1.5.6-2.2 1.3s-1.1 1.3-1.4 2.1-.5 1.6-.6 2.9v5s0 3.7.1 4.9c.1 1.3.3 2.2.6 2.9.3.8.7 1.5 1.4 2.1s1.3 1.1 2.1 1.4 1.6.5 2.9.6c1.2.1 1.6.1 4.9.1s3.7 0 4.9-.1c1.3-.1 2.1-.3 2.9-.6s1.5-.7 2.1-1.4 1.1-1.3 1.4-2.1.5-1.6.6-2.9c.1-1.2.1-1.6.1-4.9s0-3.7-.1-4.9c-.1-1.3-.3-2.2-.6-2.9-.2-.9-.6-1.5-1.3-2.2s-1.3-1.1-2.1-1.4-1.6-.5-2.9-.6c-1.3 0-1.7 0-5 0z" fill="#fff"/><path d="m81 5.8c-3.4 0-6.2 2.8-6.2 6.2s2.8 6.2 6.2 6.2 6.2-2.8 6.2-6.2-2.8-6.2-6.2-6.2zm0 10.2c-2.2 0-4-1.8-4-4s1.8-4 4-4 4 1.8 4 4-1.8 4-4 4z" fill="#fff"/><circle cx="87.4" cy="5.6" fill="#fff" r="1.4"/><path d="m81 27.2c3.2 0 3.6 0 4.8.1s1.8.2 2.2.4c.6.2 1 .5 1.4.9s.7.8.9 1.4c.2.4.4 1.1.4 2.2.1 1.3.1 1.6.1 4.8s0 3.6-.1 4.8-.2 1.8-.4 2.2c-.2.6-.5 1-.9 1.4s-.8.7-1.4.9c-.4.2-1.1.4-2.2.4-1.3.1-1.6.1-4.8.1s-3.6 0-4.8-.1-1.8-.2-2.2-.4c-.6-.2-1-.5-1.4-.9s-.7-.8-.9-1.4c-.2-.4-.4-1.1-.4-2.2-.1-1.3-.1-1.6-.1-4.8s0-3.6.1-4.8.2-1.8.4-2.2c.2-.6.5-1 .9-1.4s.8-.7 1.4-.9c.4-.2 1.1-.4 2.2-.4 1.2-.1 1.6-.1 4.8-.1m0-2.2c-3.3 0-3.7 0-4.9.1-1.3.1-2.1.3-2.9.6s-1.5.7-2.1 1.4-1.1 1.3-1.4 2.1-.5 1.6-.6 2.9c-.1 1.2-.1 1.6-.1 4.9s0 3.7.1 4.9c.1 1.3.3 2.2.6 2.9.3.8.7 1.5 1.4 2.1s1.3 1.1 2.1 1.4 1.6.5 2.9.6c1.2.1 1.6.1 4.9.1s3.7 0 4.9-.1c1.3-.1 2.1-.3 2.9-.6s1.5-.7 2.1-1.4 1.1-1.3 1.4-2.1.5-1.6.6-2.9c.1-1.2.1-1.6.1-4.9s0-3.7-.1-4.9c-.1-1.3-.3-2.2-.6-2.9-.3-.8-.7-1.5-1.4-2.1s-1.3-1.1-2.1-1.4-1.6-.5-2.9-.6c-1.2-.1-1.6-.1-4.9-.1z" fill="#fec325"/><path d="m81 30.8c-3.4 0-6.2 2.8-6.2 6.2s2.8 6.2 6.2 6.2 6.2-2.8 6.2-6.2-2.8-6.2-6.2-6.2zm0 10.2c-2.2 0-4-1.8-4-4s1.8-4 4-4 4 1.8 4 4-1.8 4-4 4z" fill="#fec325"/><circle cx="87.4" cy="30.6" fill="#fec325" r="1.4"/><path d="m443.4 176.2h2.6c.5 0 .9-.4.9-.9s-.4-.9-.9-.9h-2.6c-.5 0-.9.4-.9.9s.4.9.9.9z"/><path d="m448.6 179.7h-5.2c-.5 0-.9.4-.9.9s.4.9.9.9h5.2c.5 0 .9-.4.9-.9s-.4-.9-.9-.9z"/><path d="m454 166h-16c-2.2 0-4 1.8-4 4v16c0 2.2 1.8 4 4 4h16c2.2 0 4-1.8 4-4v-16c0-2.2-1.8-4-4-4zm-.7 14.7c0 2.5-2.1 4.6-4.6 4.6h-5.3c-2.6 0-4.6-2.1-4.6-4.6v-5.4c0-2.6 2.1-4.6 4.6-4.6h3.2c1.2.1 2.9 1.2 3.6 2.5.2.4.3.4.4 1.6.1.6.1 1 .4 1.3.4.3 1.7.1 2 .3l.2.2.1.3v.2z"/><path d="m232.7 171.6c-.1 2.7-2 6.4-5.7 11.1-3.8 4.9-7 7.4-9.6 7.4-1.6 0-3-1.5-4.1-4.5-.7-2.7-1.5-5.5-2.2-8.2-.8-3-1.7-4.5-2.7-4.5-.2 0-.9.4-2.2 1.3l-1.3-1.7c1.4-1.2 2.7-2.4 4-3.6 1.8-1.6 3.2-2.4 4.1-2.5 2.2-.2 3.5 1.3 4 4.4.5 3.4.9 5.5 1.1 6.4.6 2.8 1.3 4.2 2.1 4.2.6 0 1.5-.9 2.6-2.8 1.2-1.8 1.8-3.2 1.9-4.2.2-1.6-.5-2.4-1.9-2.4-.7 0-1.3.2-2.1.5 1.4-4.5 4-6.6 7.8-6.5 3 .1 4.4 1.9 4.2 5.6z"/><path d="m246.3 176.2.9 3.1h3.3l-2.6 1.9.9 3-2.5-1.8-2.6 1.8.9-3-2.6-1.9h3.3z"/><path d="m255.3 166h-18c-2.3 0-4.3 1.9-4.3 4.3v15.5c0 2.3 1.9 4.3 4.3 4.3h18c2.3 0 4.2-1.9 4.2-4.3v-15.5c0-2.4-1.9-4.3-4.2-4.3zm-10.3 2.5c.7 0 1.3.6 1.3 1.3s-.6 1.3-1.3 1.3-1.3-.6-1.3-1.3.6-1.3 1.3-1.3zm-4 0c.7 0 1.3.6 1.3 1.3s-.6 1.3-1.3 1.3-1.3-.6-1.3-1.3.6-1.3 1.3-1.3zm-4 0c.7 0 1.3.6 1.3 1.3s-.6 1.3-1.3 1.3-1.3-.6-1.3-1.3.6-1.3 1.3-1.3zm20 17.3c0 1-.8 1.8-1.7 1.8h-18c-1 0-1.8-.8-1.8-1.8v-12.8h21.5z"/><path d="m29.5 168.8c-1.1.5-2.3.8-3.5 1 1.3-.8 2.2-1.9 2.7-3.4-1.2.7-2.5 1.2-3.8 1.5-1.1-1.2-2.7-1.9-4.4-1.9-3.3 0-6.1 2.7-6.1 6.1 0 .5.1.9.2 1.4-5-.3-9.5-2.7-12.5-6.3-.5.9-.8 1.9-.8 3 0 2.1 1.1 4 2.7 5-1 0-1.9-.3-2.7-.8v.1c0 2.9 2.1 5.4 4.9 5.9-.5.1-1 .2-1.6.2-.4 0-.8 0-1.1-.1.8 2.4 3 4.2 5.7 4.2-2.1 1.6-4.7 2.6-7.5 2.6-.5 0-1 0-1.4-.1 2.7 1.7 5.9 2.7 9.3 2.7 11.1 0 17.2-9.2 17.2-17.2 0-.3 0-.5 0-.8.9-.8 1.9-1.8 2.7-3.1z"/><path d="m154 176.5h-3.8v-3.8h-3v3.8h-3.8v3h3.8v3.8h3v-3.8h3.8m-24-3.7v4.7h6.5c-.5 2.8-2.9 4.9-6.5 4.9-4 0-7.2-3.4-7.2-7.3s3.2-7.3 7.2-7.3c1.8 0 3.4.6 4.6 1.8l3.4-3.4c-2.1-1.9-4.8-3.1-8-3.1-6.6 0-12 5.4-12 12s5.4 12 12 12c6.9 0 11.5-4.9 11.5-11.7 0-.9-.1-1.7-.2-2.5z"/><path d="m42 166c-6.6 0-12 5.4-12 12 0 5.1 3.2 9.4 7.6 11.2-.1-.9-.2-2.4 0-3.4.2-.9 1.4-6 1.4-6s-.4-.7-.4-1.8c0-1.7 1-2.9 2.2-2.9 1 0 1.5.8 1.5 1.7 0 1-.7 2.6-1 4-.3 1.2.6 2.2 1.8 2.2 2.1 0 3.8-2.2 3.8-5.5 0-2.9-2.1-4.9-5-4.9-3.4 0-5.4 2.6-5.4 5.2 0 1 .4 2.1.9 2.7.1.1.1.2.1.3-.1.4-.3 1.2-.3 1.4-.1.2-.2.3-.4.2-1.5-.7-2.4-2.9-2.4-4.6 0-3.8 2.8-7.3 7.9-7.3 4.2 0 7.4 3 7.4 6.9 0 4.1-2.6 7.5-6.2 7.5-1.2 0-2.4-.6-2.8-1.4 0 0-.6 2.3-.7 2.9-.3 1-1 2.4-1.5 3.1 1.1.3 2.3.5 3.6.5 6.6 0 12-5.4 12-12s-5.5-12-12.1-12z"/><path d="m115.7 167.3c-.9-.9-1.9-1.3-3.2-1.3h-15c-1.2 0-2.3.4-3.2 1.3s-1.3 1.9-1.3 3.2v15c0 1.2.4 2.3 1.3 3.2s1.9 1.3 3.2 1.3h15c1.2 0 2.3-.4 3.2-1.3s1.3-1.9 1.3-3.2v-15c0-1.2-.4-2.3-1.3-3.2zm-12.8 13c-.6.6-1.4 1-2.3 1s-1.7-.3-2.3-1c-.6-.6-1-1.4-1-2.3s.3-1.7 1-2.3 1.4-1 2.3-1 1.7.3 2.3 1c.6.6 1 1.4 1 2.3s-.3 1.7-1 2.3zm8.8 0c-.6.6-1.4 1-2.3 1s-1.7-.3-2.3-1c-.6-.6-1-1.4-1-2.3s.3-1.7 1-2.3 1.4-1 2.3-1 1.7.3 2.3 1c.6.6 1 1.4 1 2.3s-.3 1.7-1 2.3z"/><path d="m202.6 177.4c-.1.1-.2.1-.3.2v-9.3c0-1.3-1-2.3-2.2-2.3h-16.8c-1.2 0-2.2 1-2.2 2.3v9.3c-.1-.1-.2-.1-.3-.2-.7-.5-1.2.2-.7.8.9 1 2.5 2.4 5 3.4-2.6 9 6.4 10.4 6.3 5.8 0 .1 0-2.6 0-4.5.2.1.4.1.6.2 0 1.9 0 4.5 0 4.4-.1 4.6 8.9 3.2 6.3-5.8 2.5-1 4.1-2.3 5-3.4.5-.7.1-1.4-.7-.9zm-8.9 2.3c-1.1-.1-1.5.4-1.6 1.2-.3-.2-.5-.4-.8-.7 0 0-.1-.1-.1-.1-.2-.3-.6-.4-1.3-.4-1.5 0-4.2.3-7.4-1.3v-9c0-1.6.4-2.1 1.9-2.1h14.9c1.4 0 1.9.6 1.9 2.1v8.9c-3.2 1.8-6 1.5-7.5 1.4z"/><path d="m195.3 173.2c-1.6 0-2.9 1.2-2.9 2.7s1.3 2.7 2.9 2.7 2.9-1.2 2.9-2.7-1.3-2.7-2.9-2.7z"/><path d="m191.5 175.9c0 1.5-1.3 2.7-2.9 2.7s-2.9-1.2-2.9-2.7 1.3-2.7 2.9-2.7 2.9 1.2 2.9 2.7z"/><path d="m63.1 190v-10.9h3.7l.5-4.3h-4.2v-2.7c0-1.2.3-2.1 2.1-2.1h2.3v-3.8c-.4 0-1.7-.2-3.3-.2-3.3 0-5.5 2-5.5 5.6v3.1h-3.7v4.3h3.7v11z"/><path d="m164.8 180.6c1.8-.9 3.6-1.9 5.4-2.8-1.8-.9-3.6-1.9-5.4-2.8z"/><path d="m167 166c-6.6 0-12 5.4-12 12s5.4 12 12 12 12-5.4 12-12-5.4-12-12-12zm8.2 16c-.2.9-.9 1.6-1.8 1.7-2.1.2-4.2.2-6.3.2s-4.2 0-6.3-.2c-.9-.1-1.6-.8-1.8-1.7-.3-1.3-.3-2.7-.3-4s0-2.7.3-4c.2-.9.9-1.6 1.8-1.7 2.1-.2 4.2-.2 6.3-.2s4.2 0 6.3.2c.9.1 1.6.8 1.8 1.7.3 1.3.3 2.7.3 4s0 2.7-.3 4z"/><path d="m80 168.2c3.2 0 3.6 0 4.8.1s1.8.2 2.2.4c.6.2 1 .5 1.4.9s.7.8.9 1.4c.2.4.4 1.1.4 2.2.1 1.3.1 1.6.1 4.8s0 3.6-.1 4.8-.2 1.8-.4 2.2c-.2.6-.5 1-.9 1.4s-.8.7-1.4.9c-.4.2-1.1.4-2.2.4-1.3.1-1.6.1-4.8.1s-3.6 0-4.8-.1-1.8-.2-2.2-.4c-.6-.2-1-.5-1.4-.9s-.7-.8-.9-1.4c-.2-.4-.4-1.1-.4-2.2-.1-1.3-.1-1.6-.1-4.8s0-3.6.1-4.8.2-1.8.4-2.2c.2-.6.5-1 .9-1.4s.8-.7 1.4-.9c.4-.2 1.1-.4 2.2-.4 1.2-.1 1.6-.1 4.8-.1m0-2.2c-3.3 0-3.7 0-4.9.1-1.3.1-2.1.3-2.9.6s-1.5.7-2.1 1.4-1.1 1.3-1.4 2.1-.5 1.6-.6 2.9-.1 1.7-.1 4.9 0 3.7.1 4.9c.1 1.3.3 2.2.6 2.9.3.8.7 1.5 1.4 2.1s1.3 1.1 2.1 1.4 1.6.5 2.9.6 1.7.1 4.9.1 3.7 0 4.9-.1c1.3-.1 2.1-.3 2.9-.6s1.5-.7 2.1-1.4 1.1-1.3 1.4-2.1.5-1.6.6-2.9.1-1.7.1-4.9 0-3.7-.1-4.9c-.1-1.3-.3-2.2-.6-2.9-.3-.8-.7-1.5-1.4-2.1s-1.3-1.1-2.1-1.4-1.6-.5-2.9-.6c-1.2-.1-1.6-.1-4.9-.1z"/><path d="m80 171.8c-3.4 0-6.2 2.8-6.2 6.2s2.8 6.2 6.2 6.2 6.2-2.8 6.2-6.2-2.8-6.2-6.2-6.2zm0 10.2c-2.2 0-4-1.8-4-4s1.8-4 4-4 4 1.8 4 4-1.8 4-4 4z"/><circle cx="86.4" cy="171.6" r="1.4"/><path d="m385.4 190c-.3 0-.6-.3-.6-.6v-21.2c0-.3.3-.6.6-.6.3 0 .6.3.6.6v21.2c0 .3-.2.6-.6.6z"/><path d="m383.2 190c-.3 0-.6-.3-.6-.6v-19.9c0-.3.3-.6.6-.6.3 0 .6.3.6.6v19.9c0 .3-.3.6-.6.6z"/><path d="m381 190c-.3 0-.6-.3-.6-.6v-17.6c0-.3.3-.6.6-.6.3 0 .6.3.6.6v17.6c0 .3-.3.6-.6.6z"/><path d="m378.7 190c-.3 0-.6-.3-.6-.6v-18c0-.3.3-.6.6-.6.3 0 .6.3.6.6v18c0 .3-.2.6-.6.6z"/><path d="m376.5 190c-.3 0-.6-.3-.6-.6v-18.3c0-.3.3-.6.6-.6.3 0 .6.3.6.6v18.3c0 .3-.3.6-.6.6z"/><path d="m374.3 190c-.3 0-.6-.3-.6-.6v-17.8c0-.3.3-.6.6-.6.3 0 .6.3.6.6v17.8c0 .3-.3.6-.6.6z"/><path d="m358.6 186.9c-.3 0-.6-.3-.6-.6v-5.3c0-.3.3-.6.6-.6.3 0 .6.3.6.6v5.3c0 .3-.3.6-.6.6z"/><path d="m360.8 188.7c-.3 0-.6-.3-.6-.6v-9.1c0-.3.3-.6.6-.6.3 0 .6.3.6.6v9.1c0 .4-.2.6-.6.6z"/><path d="m363.1 189.6c-.3 0-.6-.3-.6-.6v-10.9c0-.3.3-.6.6-.6.3 0 .6.3.6.6v10.9c0 .3-.3.6-.6.6z"/><path d="m365.3 189.8c-.3 0-.6-.3-.6-.6v-11.4c0-.3.3-.6.6-.6.3 0 .6.3.6.6v11.4c0 .3-.3.6-.6.6z"/><path d="m367.5 189.9c-.3 0-.6-.3-.6-.6v-11.1c0-.3.3-.6.6-.6.3 0 .6.3.6.6v11.1c0 .3-.2.6-.6.6z"/><path d="m369.8 190c-.3 0-.6-.3-.6-.6v-14.7c0-.3.3-.6.6-.6.3 0 .6.3.6.6v14.7c0 .3-.3.6-.6.6z"/><path d="m372 190c-.3 0-.6-.3-.6-.6v-16.8c0-.3.3-.6.6-.6.3 0 .6.3.6.6v16.8c0 .3-.3.6-.6.6z"/><path d="m406.4 176.4c-.9 0-1.8.2-2.6.5-.5-6.1-5.7-10.9-11.9-10.9-1.5 0-3 .3-4.3.8-.5.2-.6.4-.7.8v21.6c0 .4.3.8.7.8h18.8c3.8 0 6.8-3 6.8-6.8s-3-6.8-6.8-6.8z"/><path d="m345.1 172c-3.3 0-6.1 2.6-6.1 6s2.6 6.1 6 6.1c3.3 0 6.1-2.6 6.1-6s-2.6-6.1-6-6.1zm-.1 9c-1.7 0-3-1.4-3-3.1s1.4-3 3.1-3 3 1.4 3 3.1-1.4 3.1-3.1 3z"/><path d="m345 166h-7.8-2.5-.7c-.5 0-1 .4-1 1v.6 2 8.4c0 6.6 5.4 12 12 12s12-5.4 12-12-5.4-12-12-12zm-8.2 11.8c0-4.6 3.8-8.3 8.4-8.3s8.3 3.8 8.3 8.4-3.8 8.3-8.4 8.3c-4.7 0-8.4-3.8-8.3-8.4z"/><path d="m316.2 170.7c2.2 0 3.3-1.3 3.1-2.5-.1-1-1.1-1.9-2.9-1.9-1.5 0-2.5 1.1-2.6 2.2-.1 1.2.6 2.3 2.4 2.2z"/><path d="m327.2 170.5c2.1-.1 3-1.2 3.1-2.2 0-1.2-1.1-2.4-3-2.2-1.5.1-2.4 1.2-2.6 2.2-.1 1.1.7 2.3 2.5 2.2z"/><path d="m328.6 175.2c-5.3.5-5.5.6-15.2.8-4.1 0-3.2 14 5.5 14 8.3 0 18.3-15.7 9.7-14.8zm-9.5 12.3c-7.6 0-6.6-9.1-5.3-9.1 8.9-.4 11.1-.7 14.3-.7s-2.9 9.8-9 9.8z"/><path d="m305.8 166h-15.6c-2.3 0-4.2 1.9-4.2 4.2v15.6c0 2.3 1.9 4.2 4.2 4.2h15.6c2.3 0 4.2-1.9 4.2-4.2v-15.6c0-2.3-1.8-4.2-4.2-4.2zm-1.7 14.1c0 1.9-.5 3.3-1.5 4.3s-2.7 1.5-4.6 1.5-3.6-.5-4.6-1.5-1.5-2.4-1.5-4.3v-8.7h3.8v8.4c0 1 .2 1.7.6 2.2s1 .7 1.7.7 1.4-.3 1.7-.7c.4-.5.6-1.2.6-2.2v-8.4h3.8z"/><path d="m283.2 166h-20.5c-1 0-1.8.8-1.8 1.7v20.5c0 1 .8 1.7 1.8 1.7h20.5c1 0 1.8-.8 1.8-1.7v-20.5c0-.9-.8-1.7-1.8-1.7zm-15.1 20.5h-3.6v-11.5h3.6zm-1.8-13.1c-1.1 0-2.1-.9-2.1-2.1 0-1.1.9-2.1 2.1-2.1 1.1 0 2.1.9 2.1 2.1s-.9 2.1-2.1 2.1zm15.2 13.1h-3.6v-5.6c0-1.3 0-3-1.8-3-1.9 0-2.1 1.4-2.1 2.9v5.7h-3.6v-11.5h3.4v1.6c.5-.9 1.6-1.8 3.4-1.8 3.6 0 4.3 2.4 4.3 5.5z"/><path d="m423.6 166c-5.4 0-9.6 4.5-9.6 9.9 0 5.7 7.4 14.1 9.6 14.1 1.9 0 9.3-8.4 9.3-14.1 0-5.4-4.2-9.9-9.3-9.9zm0 15.1c-3.3 0-5.9-2.5-5.9-5.5 0-1.4.5-2.6 1.2-3.6 0 1.2 1 2.2 2.3 2.2s2.3-1 2.3-2.2c0-.9-.6-1.7-1.4-2.1.5-.1 1-.2 1.5-.2 3 0 5.6 2.5 5.6 5.9 0 2.9-2.6 5.5-5.6 5.5z"/><path d="m443.4 201.2h2.6c.5 0 .9-.4.9-.9s-.4-.9-.9-.9h-2.6c-.5 0-.9.4-.9.9s.4.9.9.9z" fill="#ffc627"/><path d="m448.6 204.7h-5.2c-.5 0-.9.4-.9.9s.4.9.9.9h5.2c.5 0 .9-.4.9-.9s-.4-.9-.9-.9z" fill="#ffc627"/><path d="m454 191h-16c-2.2 0-4 1.8-4 4v16c0 2.2 1.8 4 4 4h16c2.2 0 4-1.8 4-4v-16c0-2.2-1.8-4-4-4zm-.7 14.7c0 2.5-2.1 4.6-4.6 4.6h-5.3c-2.6 0-4.6-2.1-4.6-4.6v-5.4c0-2.6 2.1-4.6 4.6-4.6h3.2c1.2.1 2.9 1.2 3.6 2.5.2.4.3.4.4 1.6.1.6.1 1 .4 1.3.4.3 1.7.1 2 .3l.2.2.1.3v.2z" fill="#ffc627"/><path d="m232.7 196.6c-.1 2.7-2 6.4-5.7 11.1-3.8 4.9-7 7.4-9.6 7.4-1.6 0-3-1.5-4.1-4.5-.7-2.7-1.5-5.5-2.2-8.2-.8-3-1.7-4.5-2.7-4.5-.2 0-.9.4-2.2 1.3l-1.3-1.7c1.4-1.2 2.7-2.4 4-3.6 1.8-1.6 3.2-2.4 4.1-2.5 2.2-.2 3.5 1.3 4 4.4.5 3.4.9 5.5 1.1 6.4.6 2.8 1.3 4.2 2.1 4.2.6 0 1.5-.9 2.6-2.8 1.2-1.8 1.8-3.2 1.9-4.2.2-1.6-.5-2.4-1.9-2.4-.7 0-1.3.2-2.1.5 1.4-4.5 4-6.6 7.8-6.5 3 .1 4.4 1.9 4.2 5.6z" fill="#ffc627"/><path d="m246.3 201.2.9 3.1h3.3l-2.6 1.9.9 3-2.5-1.8-2.6 1.8.9-3-2.6-1.9h3.3z" fill="#ffc627"/><path d="m255.3 191h-18c-2.3 0-4.3 1.9-4.3 4.3v15.5c0 2.3 1.9 4.3 4.3 4.3h18c2.3 0 4.2-1.9 4.2-4.3v-15.5c0-2.4-1.9-4.3-4.2-4.3zm-10.3 2.5c.7 0 1.3.6 1.3 1.3s-.6 1.3-1.3 1.3-1.3-.6-1.3-1.3.6-1.3 1.3-1.3zm-4 0c.7 0 1.3.6 1.3 1.3s-.6 1.3-1.3 1.3-1.3-.6-1.3-1.3.6-1.3 1.3-1.3zm-4 0c.7 0 1.3.6 1.3 1.3s-.6 1.3-1.3 1.3-1.3-.6-1.3-1.3.6-1.3 1.3-1.3zm20 17.3c0 1-.8 1.8-1.7 1.8h-18c-1 0-1.8-.8-1.8-1.8v-12.8h21.5z" fill="#ffc627"/><path d="m29.5 193.8c-1.1.5-2.3.8-3.5 1 1.3-.8 2.2-1.9 2.7-3.4-1.2.7-2.5 1.2-3.8 1.5-1.1-1.2-2.7-1.9-4.4-1.9-3.3 0-6.1 2.7-6.1 6.1 0 .5.1.9.2 1.4-5-.3-9.5-2.7-12.5-6.3-.5.9-.8 1.9-.8 3 0 2.1 1.1 4 2.7 5-1 0-1.9-.3-2.7-.8v.1c0 2.9 2.1 5.4 4.9 5.9-.5.1-1 .2-1.6.2-.4 0-.8 0-1.1-.1.8 2.4 3 4.2 5.7 4.2-2.1 1.6-4.7 2.6-7.5 2.6-.5 0-1 0-1.4-.1 2.7 1.7 5.9 2.7 9.3 2.7 11.1 0 17.2-9.2 17.2-17.2 0-.3 0-.5 0-.8.9-.8 1.9-1.8 2.7-3.1z" fill="#ffc627"/><path d="m154 201.5h-3.8v-3.8h-3v3.8h-3.8v3h3.8v3.8h3v-3.8h3.8m-24-3.7v4.7h6.5c-.5 2.8-2.9 4.9-6.5 4.9-4 0-7.2-3.4-7.2-7.3s3.2-7.3 7.2-7.3c1.8 0 3.4.6 4.6 1.8l3.4-3.4c-2.1-1.9-4.8-3.1-8-3.1-6.6 0-12 5.4-12 12s5.4 12 12 12c6.9 0 11.5-4.9 11.5-11.7 0-.9-.1-1.7-.2-2.5z" fill="#ffc627"/><path d="m42 191c-6.6 0-12 5.4-12 12 0 5.1 3.2 9.4 7.6 11.2-.1-.9-.2-2.4 0-3.4.2-.9 1.4-6 1.4-6s-.4-.7-.4-1.8c0-1.7 1-2.9 2.2-2.9 1 0 1.5.8 1.5 1.7 0 1-.7 2.6-1 4-.3 1.2.6 2.2 1.8 2.2 2.1 0 3.8-2.2 3.8-5.5 0-2.9-2.1-4.9-5-4.9-3.4 0-5.4 2.6-5.4 5.2 0 1 .4 2.1.9 2.7.1.1.1.2.1.3-.1.4-.3 1.2-.3 1.4-.1.2-.2.3-.4.2-1.5-.7-2.4-2.9-2.4-4.6 0-3.8 2.8-7.3 7.9-7.3 4.2 0 7.4 3 7.4 6.9 0 4.1-2.6 7.5-6.2 7.5-1.2 0-2.4-.6-2.8-1.4 0 0-.6 2.3-.7 2.9-.3 1-1 2.4-1.5 3.1 1.1.3 2.3.5 3.6.5 6.6 0 12-5.4 12-12s-5.5-12-12.1-12z" fill="#ffc627"/><path d="m115.7 192.3c-.9-.9-1.9-1.3-3.2-1.3h-15c-1.2 0-2.3.4-3.2 1.3s-1.3 1.9-1.3 3.2v15c0 1.2.4 2.3 1.3 3.2s1.9 1.3 3.2 1.3h15c1.2 0 2.3-.4 3.2-1.3s1.3-1.9 1.3-3.2v-15c0-1.2-.4-2.3-1.3-3.2zm-12.8 13c-.6.6-1.4 1-2.3 1s-1.7-.3-2.3-1c-.6-.6-1-1.4-1-2.3s.3-1.7 1-2.3 1.4-1 2.3-1 1.7.3 2.3 1c.6.6 1 1.4 1 2.3s-.3 1.7-1 2.3zm8.8 0c-.6.6-1.4 1-2.3 1s-1.7-.3-2.3-1c-.6-.6-1-1.4-1-2.3s.3-1.7 1-2.3 1.4-1 2.3-1 1.7.3 2.3 1c.6.6 1 1.4 1 2.3s-.3 1.7-1 2.3z" fill="#ffc627"/><path d="m202.6 202.4c-.1.1-.2.1-.3.2v-9.3c0-1.3-1-2.3-2.2-2.3h-16.8c-1.2 0-2.2 1-2.2 2.3v9.3c-.1-.1-.2-.1-.3-.2-.7-.5-1.2.2-.7.8.9 1 2.5 2.4 5 3.4-2.6 9 6.4 10.4 6.3 5.8 0 .1 0-2.6 0-4.5.2.1.4.1.6.2 0 1.9 0 4.5 0 4.4-.1 4.6 8.9 3.2 6.3-5.8 2.5-1 4.1-2.3 5-3.4.5-.7.1-1.4-.7-.9zm-8.9 2.3c-1.1-.1-1.5.4-1.6 1.2-.3-.2-.5-.4-.8-.7 0 0-.1-.1-.1-.1-.2-.3-.6-.4-1.3-.4-1.5 0-4.2.3-7.4-1.3v-9c0-1.6.4-2.1 1.9-2.1h14.9c1.4 0 1.9.6 1.9 2.1v8.9c-3.2 1.8-6 1.5-7.5 1.4z" fill="#ffc627"/><path d="m195.3 198.2c-1.6 0-2.9 1.2-2.9 2.7s1.3 2.7 2.9 2.7 2.9-1.2 2.9-2.7-1.3-2.7-2.9-2.7z" fill="#ffc627"/><path d="m191.5 200.9c0 1.5-1.3 2.7-2.9 2.7s-2.9-1.2-2.9-2.7 1.3-2.7 2.9-2.7 2.9 1.2 2.9 2.7z" fill="#ffc627"/><path d="m63.1 215v-10.9h3.7l.5-4.3h-4.2v-2.7c0-1.2.3-2.1 2.1-2.1h2.3v-3.8c-.4 0-1.7-.2-3.3-.2-3.3 0-5.5 2-5.5 5.6v3.1h-3.7v4.3h3.7v11z" fill="#ffc627"/><path d="m164.8 205.6c1.8-.9 3.6-1.9 5.4-2.8-1.8-.9-3.6-1.9-5.4-2.8z" fill="#ffc627"/><path d="m167 191c-6.6 0-12 5.4-12 12s5.4 12 12 12 12-5.4 12-12-5.4-12-12-12zm8.2 16c-.2.9-.9 1.6-1.8 1.7-2.1.2-4.2.2-6.3.2s-4.2 0-6.3-.2c-.9-.1-1.6-.8-1.8-1.7-.3-1.3-.3-2.7-.3-4s0-2.7.3-4c.2-.9.9-1.6 1.8-1.7 2.1-.2 4.2-.2 6.3-.2s4.2 0 6.3.2c.9.1 1.6.8 1.8 1.7.3 1.3.3 2.7.3 4s0 2.7-.3 4z" fill="#ffc627"/><path d="m80 193.2c3.2 0 3.6 0 4.8.1s1.8.2 2.2.4c.6.2 1 .5 1.4.9s.7.8.9 1.4c.2.4.4 1.1.4 2.2.1 1.3.1 1.6.1 4.8s0 3.6-.1 4.8-.2 1.8-.4 2.2c-.2.6-.5 1-.9 1.4s-.8.7-1.4.9c-.4.2-1.1.4-2.2.4-1.3.1-1.6.1-4.8.1s-3.6 0-4.8-.1-1.8-.2-2.2-.4c-.6-.2-1-.5-1.4-.9s-.7-.8-.9-1.4c-.2-.4-.4-1.1-.4-2.2-.1-1.3-.1-1.6-.1-4.8s0-3.6.1-4.8.2-1.8.4-2.2c.2-.6.5-1 .9-1.4s.8-.7 1.4-.9c.4-.2 1.1-.4 2.2-.4 1.2-.1 1.6-.1 4.8-.1m0-2.2c-3.3 0-3.7 0-4.9.1-1.3.1-2.1.3-2.9.6s-1.5.7-2.1 1.4-1.1 1.3-1.4 2.1-.5 1.6-.6 2.9-.1 1.7-.1 4.9 0 3.7.1 4.9c.1 1.3.3 2.2.6 2.9.3.8.7 1.5 1.4 2.1s1.3 1.1 2.1 1.4 1.6.5 2.9.6 1.7.1 4.9.1 3.7 0 4.9-.1c1.3-.1 2.1-.3 2.9-.6s1.5-.7 2.1-1.4 1.1-1.3 1.4-2.1.5-1.6.6-2.9.1-1.7.1-4.9 0-3.7-.1-4.9c-.1-1.3-.3-2.2-.6-2.9-.3-.8-.7-1.5-1.4-2.1s-1.3-1.1-2.1-1.4-1.6-.5-2.9-.6c-1.2-.1-1.6-.1-4.9-.1z" fill="#ffc627"/><path d="m80 196.8c-3.4 0-6.2 2.8-6.2 6.2s2.8 6.2 6.2 6.2 6.2-2.8 6.2-6.2-2.8-6.2-6.2-6.2zm0 10.2c-2.2 0-4-1.8-4-4s1.8-4 4-4 4 1.8 4 4-1.8 4-4 4z" fill="#ffc627"/><circle cx="86.4" cy="196.6" fill="#ffc627" r="1.4"/><path d="m385.4 215c-.3 0-.6-.3-.6-.6v-21.2c0-.3.3-.6.6-.6.3 0 .6.3.6.6v21.2c0 .3-.2.6-.6.6z" fill="#ffc627"/><path d="m383.2 215c-.3 0-.6-.3-.6-.6v-19.9c0-.3.3-.6.6-.6.3 0 .6.3.6.6v19.9c0 .3-.3.6-.6.6z" fill="#ffc627"/><path d="m381 215c-.3 0-.6-.3-.6-.6v-17.6c0-.3.3-.6.6-.6.3 0 .6.3.6.6v17.6c0 .3-.3.6-.6.6z" fill="#ffc627"/><path d="m378.7 215c-.3 0-.6-.3-.6-.6v-18c0-.3.3-.6.6-.6.3 0 .6.3.6.6v18c0 .3-.2.6-.6.6z" fill="#ffc627"/><path d="m376.5 215c-.3 0-.6-.3-.6-.6v-18.3c0-.3.3-.6.6-.6.3 0 .6.3.6.6v18.3c0 .3-.3.6-.6.6z" fill="#ffc627"/><path d="m374.3 215c-.3 0-.6-.3-.6-.6v-17.8c0-.3.3-.6.6-.6.3 0 .6.3.6.6v17.8c0 .3-.3.6-.6.6z" fill="#ffc627"/><path d="m358.6 211.9c-.3 0-.6-.3-.6-.6v-5.3c0-.3.3-.6.6-.6.3 0 .6.3.6.6v5.3c0 .3-.3.6-.6.6z" fill="#ffc627"/><path d="m360.8 213.7c-.3 0-.6-.3-.6-.6v-9.1c0-.3.3-.6.6-.6.3 0 .6.3.6.6v9.1c0 .4-.2.6-.6.6z" fill="#ffc627"/><path d="m363.1 214.6c-.3 0-.6-.3-.6-.6v-10.9c0-.3.3-.6.6-.6.3 0 .6.3.6.6v10.9c0 .3-.3.6-.6.6z" fill="#ffc627"/><path d="m365.3 214.8c-.3 0-.6-.3-.6-.6v-11.4c0-.3.3-.6.6-.6.3 0 .6.3.6.6v11.4c0 .3-.3.6-.6.6z" fill="#ffc627"/><path d="m367.5 214.9c-.3 0-.6-.3-.6-.6v-11.1c0-.3.3-.6.6-.6.3 0 .6.3.6.6v11.1c0 .3-.2.6-.6.6z" fill="#ffc627"/><path d="m369.8 215c-.3 0-.6-.3-.6-.6v-14.7c0-.3.3-.6.6-.6.3 0 .6.3.6.6v14.7c0 .3-.3.6-.6.6z" fill="#ffc627"/><path d="m372 215c-.3 0-.6-.3-.6-.6v-16.8c0-.3.3-.6.6-.6.3 0 .6.3.6.6v16.8c0 .3-.3.6-.6.6z" fill="#ffc627"/><path d="m406.4 201.4c-.9 0-1.8.2-2.6.5-.5-6.1-5.7-10.9-11.9-10.9-1.5 0-3 .3-4.3.8-.5.2-.6.4-.7.8v21.6c0 .4.3.8.7.8h18.8c3.8 0 6.8-3 6.8-6.8s-3-6.8-6.8-6.8z" fill="#ffc627"/><path d="m345.1 197c-3.3 0-6.1 2.6-6.1 6s2.6 6.1 6 6.1c3.3 0 6.1-2.6 6.1-6s-2.6-6.1-6-6.1zm-.1 9c-1.7 0-3-1.4-3-3.1s1.4-3 3.1-3 3 1.4 3 3.1-1.4 3.1-3.1 3z" fill="#ffc627"/><path d="m345 191h-7.8-2.5-.7c-.5 0-1 .4-1 1v.6 2 8.4c0 6.6 5.4 12 12 12s12-5.4 12-12-5.4-12-12-12zm-8.2 11.8c0-4.6 3.8-8.3 8.4-8.3s8.3 3.8 8.3 8.4-3.8 8.3-8.4 8.3c-4.7 0-8.4-3.8-8.3-8.4z" fill="#ffc627"/><path d="m316.2 195.7c2.2 0 3.3-1.3 3.1-2.5-.1-1-1.1-1.9-2.9-1.9-1.5 0-2.5 1.1-2.6 2.2-.1 1.2.6 2.3 2.4 2.2z" fill="#ffc627"/><path d="m327.2 195.5c2.1-.1 3-1.2 3.1-2.2 0-1.2-1.1-2.4-3-2.2-1.5.1-2.4 1.2-2.6 2.2-.1 1.1.7 2.3 2.5 2.2z" fill="#ffc627"/><path d="m328.6 200.2c-5.3.5-5.5.6-15.2.8-4.1 0-3.2 14 5.5 14 8.3 0 18.3-15.7 9.7-14.8zm-9.5 12.3c-7.6 0-6.6-9.1-5.3-9.1 8.9-.4 11.1-.7 14.3-.7s-2.9 9.8-9 9.8z" fill="#ffc627"/><path d="m305.8 191h-15.6c-2.3 0-4.2 1.9-4.2 4.2v15.6c0 2.3 1.9 4.2 4.2 4.2h15.6c2.3 0 4.2-1.9 4.2-4.2v-15.6c0-2.3-1.8-4.2-4.2-4.2zm-1.7 14.1c0 1.9-.5 3.3-1.5 4.3s-2.7 1.5-4.6 1.5-3.6-.5-4.6-1.5-1.5-2.4-1.5-4.3v-8.7h3.8v8.4c0 1 .2 1.7.6 2.2s1 .7 1.7.7 1.4-.3 1.7-.7c.4-.5.6-1.2.6-2.2v-8.4h3.8z" fill="#ffc627"/><path d="m283.2 191h-20.5c-1 0-1.8.8-1.8 1.7v20.5c0 1 .8 1.7 1.8 1.7h20.5c1 0 1.8-.8 1.8-1.7v-20.5c0-.9-.8-1.7-1.8-1.7zm-15.1 20.5h-3.6v-11.5h3.6zm-1.8-13.1c-1.1 0-2.1-.9-2.1-2.1 0-1.1.9-2.1 2.1-2.1 1.1 0 2.1.9 2.1 2.1s-.9 2.1-2.1 2.1zm15.2 13.1h-3.6v-5.6c0-1.3 0-3-1.8-3-1.9 0-2.1 1.4-2.1 2.9v5.7h-3.6v-11.5h3.4v1.6c.5-.9 1.6-1.8 3.4-1.8 3.6 0 4.3 2.4 4.3 5.5z" fill="#ffc627"/><path d="m423.6 191c-5.4 0-9.6 4.5-9.6 9.9 0 5.7 7.4 14.1 9.6 14.1 1.9 0 9.3-8.4 9.3-14.1 0-5.4-4.2-9.9-9.3-9.9zm0 15.1c-3.3 0-5.9-2.5-5.9-5.5 0-1.4.5-2.6 1.2-3.6 0 1.2 1 2.2 2.3 2.2s2.3-1 2.3-2.2c0-.9-.6-1.7-1.4-2.1.5-.1 1-.2 1.5-.2 3 0 5.6 2.5 5.6 5.9 0 2.9-2.6 5.5-5.6 5.5z" fill="#ffc627"/><g fill="#fff"><path d="m443.4 226.2h2.6c.5 0 .9-.4.9-.9s-.4-.9-.9-.9h-2.6c-.5 0-.9.4-.9.9s.4.9.9.9z"/><path d="m448.6 229.7h-5.2c-.5 0-.9.4-.9.9s.4.9.9.9h5.2c.5 0 .9-.4.9-.9s-.4-.9-.9-.9z"/><path d="m454 216h-16c-2.2 0-4 1.8-4 4v16c0 2.2 1.8 4 4 4h16c2.2 0 4-1.8 4-4v-16c0-2.2-1.8-4-4-4zm-.7 14.7c0 2.5-2.1 4.6-4.6 4.6h-5.3c-2.6 0-4.6-2.1-4.6-4.6v-5.4c0-2.6 2.1-4.6 4.6-4.6h3.2c1.2.1 2.9 1.2 3.6 2.5.2.4.3.4.4 1.6.1.6.1 1 .4 1.3.4.3 1.7.1 2 .3l.2.2.1.3v.2z"/><path d="m232.7 221.6c-.1 2.7-2 6.4-5.7 11.1-3.8 4.9-7 7.4-9.6 7.4-1.6 0-3-1.5-4.1-4.5-.7-2.7-1.5-5.5-2.2-8.2-.8-3-1.7-4.5-2.7-4.5-.2 0-.9.4-2.2 1.3l-1.3-1.7c1.4-1.2 2.7-2.4 4-3.6 1.8-1.6 3.2-2.4 4.1-2.5 2.2-.2 3.5 1.3 4 4.4.5 3.4.9 5.5 1.1 6.4.6 2.8 1.3 4.2 2.1 4.2.6 0 1.5-.9 2.6-2.8 1.2-1.8 1.8-3.2 1.9-4.2.2-1.6-.5-2.4-1.9-2.4-.7 0-1.3.2-2.1.5 1.4-4.5 4-6.6 7.8-6.5 3 .1 4.4 1.9 4.2 5.6z"/><path d="m246.3 226.2.9 3.1h3.3l-2.6 1.9.9 3-2.5-1.8-2.6 1.8.9-3-2.6-1.9h3.3z"/><path d="m255.3 216h-18c-2.3 0-4.3 1.9-4.3 4.3v15.5c0 2.3 1.9 4.3 4.3 4.3h18c2.3 0 4.2-1.9 4.2-4.3v-15.5c0-2.4-1.9-4.3-4.2-4.3zm-10.3 2.5c.7 0 1.3.6 1.3 1.3s-.6 1.3-1.3 1.3-1.3-.6-1.3-1.3.6-1.3 1.3-1.3zm-4 0c.7 0 1.3.6 1.3 1.3s-.6 1.3-1.3 1.3-1.3-.6-1.3-1.3.6-1.3 1.3-1.3zm-4 0c.7 0 1.3.6 1.3 1.3s-.6 1.3-1.3 1.3-1.3-.6-1.3-1.3.6-1.3 1.3-1.3zm20 17.3c0 1-.8 1.8-1.7 1.8h-18c-1 0-1.8-.8-1.8-1.8v-12.8h21.5z"/><path d="m29.5 218.8c-1.1.5-2.3.8-3.5 1 1.3-.8 2.2-1.9 2.7-3.4-1.2.7-2.5 1.2-3.8 1.5-1.1-1.2-2.7-1.9-4.4-1.9-3.3 0-6.1 2.7-6.1 6.1 0 .5.1.9.2 1.4-5-.3-9.5-2.7-12.5-6.3-.5.9-.8 1.9-.8 3 0 2.1 1.1 4 2.7 5-1 0-1.9-.3-2.7-.8v.1c0 2.9 2.1 5.4 4.9 5.9-.5.1-1 .2-1.6.2-.4 0-.8 0-1.1-.1.8 2.4 3 4.2 5.7 4.2-2.1 1.6-4.7 2.6-7.5 2.6-.5 0-1 0-1.4-.1 2.7 1.7 5.9 2.7 9.3 2.7 11.1 0 17.2-9.2 17.2-17.2 0-.3 0-.5 0-.8.9-.8 1.9-1.8 2.7-3.1z"/><path d="m154 226.5h-3.8v-3.8h-3v3.8h-3.8v3h3.8v3.8h3v-3.8h3.8m-24-3.7v4.7h6.5c-.5 2.8-2.9 4.9-6.5 4.9-4 0-7.2-3.4-7.2-7.3s3.2-7.3 7.2-7.3c1.8 0 3.4.6 4.6 1.8l3.4-3.4c-2.1-1.9-4.8-3.1-8-3.1-6.6 0-12 5.4-12 12s5.4 12 12 12c6.9 0 11.5-4.9 11.5-11.7 0-.9-.1-1.7-.2-2.5z"/><path d="m42 216c-6.6 0-12 5.4-12 12 0 5.1 3.2 9.4 7.6 11.2-.1-.9-.2-2.4 0-3.4.2-.9 1.4-6 1.4-6s-.4-.7-.4-1.8c0-1.7 1-2.9 2.2-2.9 1 0 1.5.8 1.5 1.7 0 1-.7 2.6-1 4-.3 1.2.6 2.2 1.8 2.2 2.1 0 3.8-2.2 3.8-5.5 0-2.9-2.1-4.9-5-4.9-3.4 0-5.4 2.6-5.4 5.2 0 1 .4 2.1.9 2.7.1.1.1.2.1.3-.1.4-.3 1.2-.3 1.4-.1.2-.2.3-.4.2-1.5-.7-2.4-2.9-2.4-4.6 0-3.8 2.8-7.3 7.9-7.3 4.2 0 7.4 3 7.4 6.9 0 4.1-2.6 7.5-6.2 7.5-1.2 0-2.4-.6-2.8-1.4 0 0-.6 2.3-.7 2.9-.3 1-1 2.4-1.5 3.1 1.1.3 2.3.5 3.6.5 6.6 0 12-5.4 12-12s-5.5-12-12.1-12z"/><path d="m115.7 217.3c-.9-.9-1.9-1.3-3.2-1.3h-15c-1.2 0-2.3.4-3.2 1.3s-1.3 1.9-1.3 3.2v15c0 1.2.4 2.3 1.3 3.2s1.9 1.3 3.2 1.3h15c1.2 0 2.3-.4 3.2-1.3s1.3-1.9 1.3-3.2v-15c0-1.2-.4-2.3-1.3-3.2zm-12.8 13c-.6.6-1.4 1-2.3 1s-1.7-.3-2.3-1c-.6-.6-1-1.4-1-2.3s.3-1.7 1-2.3 1.4-1 2.3-1 1.7.3 2.3 1c.6.6 1 1.4 1 2.3s-.3 1.7-1 2.3zm8.8 0c-.6.6-1.4 1-2.3 1s-1.7-.3-2.3-1c-.6-.6-1-1.4-1-2.3s.3-1.7 1-2.3 1.4-1 2.3-1 1.7.3 2.3 1c.6.6 1 1.4 1 2.3s-.3 1.7-1 2.3z"/><path d="m202.6 227.4c-.1.1-.2.1-.3.2v-9.3c0-1.3-1-2.3-2.2-2.3h-16.8c-1.2 0-2.2 1-2.2 2.3v9.3c-.1-.1-.2-.1-.3-.2-.7-.5-1.2.2-.7.8.9 1 2.5 2.4 5 3.4-2.6 9 6.4 10.4 6.3 5.8 0 .1 0-2.6 0-4.5.2.1.4.1.6.2 0 1.9 0 4.5 0 4.4-.1 4.6 8.9 3.2 6.3-5.8 2.5-1 4.1-2.3 5-3.4.5-.7.1-1.4-.7-.9zm-8.9 2.3c-1.1-.1-1.5.4-1.6 1.2-.3-.2-.5-.4-.8-.7 0 0-.1-.1-.1-.1-.2-.3-.6-.4-1.3-.4-1.5 0-4.2.3-7.4-1.3v-9c0-1.6.4-2.1 1.9-2.1h14.9c1.4 0 1.9.6 1.9 2.1v8.9c-3.2 1.8-6 1.5-7.5 1.4z"/><path d="m195.3 223.2c-1.6 0-2.9 1.2-2.9 2.7s1.3 2.7 2.9 2.7 2.9-1.2 2.9-2.7-1.3-2.7-2.9-2.7z"/><path d="m191.5 225.9c0 1.5-1.3 2.7-2.9 2.7s-2.9-1.2-2.9-2.7 1.3-2.7 2.9-2.7 2.9 1.2 2.9 2.7z"/><path d="m63.1 240v-10.9h3.7l.5-4.3h-4.2v-2.7c0-1.2.3-2.1 2.1-2.1h2.3v-3.8c-.4 0-1.7-.2-3.3-.2-3.3 0-5.5 2-5.5 5.6v3.1h-3.7v4.3h3.7v11z"/><path d="m164.8 230.6c1.8-.9 3.6-1.9 5.4-2.8-1.8-.9-3.6-1.9-5.4-2.8z"/><path d="m167 216c-6.6 0-12 5.4-12 12s5.4 12 12 12 12-5.4 12-12-5.4-12-12-12zm8.2 16c-.2.9-.9 1.6-1.8 1.7-2.1.2-4.2.2-6.3.2s-4.2 0-6.3-.2c-.9-.1-1.6-.8-1.8-1.7-.3-1.3-.3-2.7-.3-4s0-2.7.3-4c.2-.9.9-1.6 1.8-1.7 2.1-.2 4.2-.2 6.3-.2s4.2 0 6.3.2c.9.1 1.6.8 1.8 1.7.3 1.3.3 2.7.3 4s0 2.7-.3 4z"/><path d="m80 218.2c3.2 0 3.6 0 4.8.1s1.8.2 2.2.4c.6.2 1 .5 1.4.9s.7.8.9 1.4c.2.4.4 1.1.4 2.2.1 1.3.1 1.6.1 4.8s0 3.6-.1 4.8-.2 1.8-.4 2.2c-.2.6-.5 1-.9 1.4s-.8.7-1.4.9c-.4.2-1.1.4-2.2.4-1.3.1-1.6.1-4.8.1s-3.6 0-4.8-.1-1.8-.2-2.2-.4c-.6-.2-1-.5-1.4-.9s-.7-.8-.9-1.4c-.2-.4-.4-1.1-.4-2.2-.1-1.3-.1-1.6-.1-4.8s0-3.6.1-4.8.2-1.8.4-2.2c.2-.6.5-1 .9-1.4s.8-.7 1.4-.9c.4-.2 1.1-.4 2.2-.4 1.2-.1 1.6-.1 4.8-.1m0-2.2c-3.3 0-3.7 0-4.9.1-1.3.1-2.1.3-2.9.6s-1.5.7-2.1 1.4-1.1 1.3-1.4 2.1-.5 1.6-.6 2.9-.1 1.7-.1 4.9 0 3.7.1 4.9c.1 1.3.3 2.2.6 2.9.3.8.7 1.5 1.4 2.1s1.3 1.1 2.1 1.4 1.6.5 2.9.6 1.7.1 4.9.1 3.7 0 4.9-.1c1.3-.1 2.1-.3 2.9-.6s1.5-.7 2.1-1.4 1.1-1.3 1.4-2.1.5-1.6.6-2.9.1-1.7.1-4.9 0-3.7-.1-4.9c-.1-1.3-.3-2.2-.6-2.9-.3-.8-.7-1.5-1.4-2.1s-1.3-1.1-2.1-1.4-1.6-.5-2.9-.6c-1.2-.1-1.6-.1-4.9-.1z"/><path d="m80 221.8c-3.4 0-6.2 2.8-6.2 6.2s2.8 6.2 6.2 6.2 6.2-2.8 6.2-6.2-2.8-6.2-6.2-6.2zm0 10.2c-2.2 0-4-1.8-4-4s1.8-4 4-4 4 1.8 4 4-1.8 4-4 4z"/><circle cx="86.4" cy="221.6" r="1.4"/><path d="m385.4 240c-.3 0-.6-.3-.6-.6v-21.2c0-.3.3-.6.6-.6.3 0 .6.3.6.6v21.2c0 .3-.2.6-.6.6z"/><path d="m383.2 240c-.3 0-.6-.3-.6-.6v-19.9c0-.3.3-.6.6-.6.3 0 .6.3.6.6v19.9c0 .3-.3.6-.6.6z"/><path d="m381 240c-.3 0-.6-.3-.6-.6v-17.6c0-.3.3-.6.6-.6.3 0 .6.3.6.6v17.6c0 .3-.3.6-.6.6z"/><path d="m378.7 240c-.3 0-.6-.3-.6-.6v-18c0-.3.3-.6.6-.6.3 0 .6.3.6.6v18c0 .3-.2.6-.6.6z"/><path d="m376.5 240c-.3 0-.6-.3-.6-.6v-18.3c0-.3.3-.6.6-.6.3 0 .6.3.6.6v18.3c0 .3-.3.6-.6.6z"/><path d="m374.3 240c-.3 0-.6-.3-.6-.6v-17.8c0-.3.3-.6.6-.6.3 0 .6.3.6.6v17.8c0 .3-.3.6-.6.6z"/><path d="m358.6 236.9c-.3 0-.6-.3-.6-.6v-5.3c0-.3.3-.6.6-.6.3 0 .6.3.6.6v5.3c0 .3-.3.6-.6.6z"/><path d="m360.8 238.7c-.3 0-.6-.3-.6-.6v-9.1c0-.3.3-.6.6-.6.3 0 .6.3.6.6v9.1c0 .4-.2.6-.6.6z"/><path d="m363.1 239.6c-.3 0-.6-.3-.6-.6v-10.9c0-.3.3-.6.6-.6.3 0 .6.3.6.6v10.9c0 .3-.3.6-.6.6z"/><path d="m365.3 239.8c-.3 0-.6-.3-.6-.6v-11.4c0-.3.3-.6.6-.6.3 0 .6.3.6.6v11.4c0 .3-.3.6-.6.6z"/><path d="m367.5 239.9c-.3 0-.6-.3-.6-.6v-11.1c0-.3.3-.6.6-.6.3 0 .6.3.6.6v11.1c0 .3-.2.6-.6.6z"/><path d="m369.8 240c-.3 0-.6-.3-.6-.6v-14.7c0-.3.3-.6.6-.6.3 0 .6.3.6.6v14.7c0 .3-.3.6-.6.6z"/><path d="m372 240c-.3 0-.6-.3-.6-.6v-16.8c0-.3.3-.6.6-.6.3 0 .6.3.6.6v16.8c0 .3-.3.6-.6.6z"/><path d="m406.4 226.4c-.9 0-1.8.2-2.6.5-.5-6.1-5.7-10.9-11.9-10.9-1.5 0-3 .3-4.3.8-.5.2-.6.4-.7.8v21.6c0 .4.3.8.7.8h18.8c3.8 0 6.8-3 6.8-6.8s-3-6.8-6.8-6.8z"/><path d="m345.1 222c-3.3 0-6.1 2.6-6.1 6s2.6 6.1 6 6.1c3.3 0 6.1-2.6 6.1-6s-2.6-6.1-6-6.1zm-.1 9c-1.7 0-3-1.4-3-3.1s1.4-3 3.1-3 3 1.4 3 3.1-1.4 3.1-3.1 3z"/><path d="m345 216h-7.8-2.5-.7c-.5 0-1 .4-1 1v.6 2 8.4c0 6.6 5.4 12 12 12s12-5.4 12-12-5.4-12-12-12zm-8.2 11.8c0-4.6 3.8-8.3 8.4-8.3s8.3 3.8 8.3 8.4-3.8 8.3-8.4 8.3c-4.7 0-8.4-3.8-8.3-8.4z"/><path d="m316.2 220.7c2.2 0 3.3-1.3 3.1-2.5-.1-1-1.1-1.9-2.9-1.9-1.5 0-2.5 1.1-2.6 2.2-.1 1.2.6 2.3 2.4 2.2z"/><path d="m327.2 220.5c2.1-.1 3-1.2 3.1-2.2 0-1.2-1.1-2.4-3-2.2-1.5.1-2.4 1.2-2.6 2.2-.1 1.1.7 2.3 2.5 2.2z"/><path d="m328.6 225.2c-5.3.5-5.5.6-15.2.8-4.1 0-3.2 14 5.5 14 8.3 0 18.3-15.7 9.7-14.8zm-9.5 12.3c-7.6 0-6.6-9.1-5.3-9.1 8.9-.4 11.1-.7 14.3-.7s-2.9 9.8-9 9.8z"/><path d="m305.8 216h-15.6c-2.3 0-4.2 1.9-4.2 4.2v15.6c0 2.3 1.9 4.2 4.2 4.2h15.6c2.3 0 4.2-1.9 4.2-4.2v-15.6c0-2.3-1.8-4.2-4.2-4.2zm-1.7 14.1c0 1.9-.5 3.3-1.5 4.3s-2.7 1.5-4.6 1.5-3.6-.5-4.6-1.5-1.5-2.4-1.5-4.3v-8.7h3.8v8.4c0 1 .2 1.7.6 2.2s1 .7 1.7.7 1.4-.3 1.7-.7c.4-.5.6-1.2.6-2.2v-8.4h3.8z"/><path d="m283.2 216h-20.5c-1 0-1.8.8-1.8 1.7v20.5c0 1 .8 1.7 1.8 1.7h20.5c1 0 1.8-.8 1.8-1.7v-20.5c0-.9-.8-1.7-1.8-1.7zm-15.1 20.5h-3.6v-11.5h3.6zm-1.8-13.1c-1.1 0-2.1-.9-2.1-2.1 0-1.1.9-2.1 2.1-2.1 1.1 0 2.1.9 2.1 2.1s-.9 2.1-2.1 2.1zm15.2 13.1h-3.6v-5.6c0-1.3 0-3-1.8-3-1.9 0-2.1 1.4-2.1 2.9v5.7h-3.6v-11.5h3.4v1.6c.5-.9 1.6-1.8 3.4-1.8 3.6 0 4.3 2.4 4.3 5.5z"/><path d="m423.6 216c-5.4 0-9.6 4.5-9.6 9.9 0 5.7 7.4 14.1 9.6 14.1 1.9 0 9.3-8.4 9.3-14.1 0-5.4-4.2-9.9-9.3-9.9zm0 15.1c-3.3 0-5.9-2.5-5.9-5.5 0-1.4.5-2.6 1.2-3.6 0 1.2 1 2.2 2.3 2.2s2.3-1 2.3-2.2c0-.9-.6-1.7-1.4-2.1.5-.1 1-.2 1.5-.2 3 0 5.6 2.5 5.6 5.9 0 2.9-2.6 5.5-5.6 5.5z"/></g><path d="m819.7 107.9c-.2 3.4-2.5 8-7.1 13.9-4.7 6.1-8.7 9.2-12 9.2-2 0-3.7-1.9-5.1-5.6-.9-3.4-1.9-6.8-2.8-10.3-1-3.7-2.2-5.6-3.3-5.6-.3 0-1.2.5-2.7 1.6l-1.6-2.1c1.7-1.5 3.4-3 5.1-4.5 2.3-2 4-3 5.1-3.1 2.7-.3 4.4 1.6 5 5.5.7 4.3 1.1 6.9 1.4 7.9.8 3.5 1.6 5.3 2.6 5.3.7 0 1.8-1.1 3.3-3.4s2.2-4 2.3-5.2c.2-2-.6-3-2.3-3-.8 0-1.7.2-2.6.6 1.7-5.6 5-8.3 9.8-8.1 3.4.1 5.1 2.4 4.9 6.9z" fill="#ffc627"/><path d="m735.6 113.8 1.2 3.8h4l-3.2 2.4 1.2 3.8-3.2-2.4-3.3 2.4 1.3-3.8-3.3-2.4h4z" fill="#ffc627"/><path d="m746.8 101h-22.5c-2.9 0-5.3 2.4-5.3 5.3v19.4c0 2.9 2.4 5.3 5.3 5.3h22.5c2.9 0 5.3-2.4 5.3-5.3v-19.4c0-2.9-2.4-5.3-5.3-5.3zm-12.8 3.1c.9 0 1.6.7 1.6 1.6s-.7 1.6-1.6 1.6-1.6-.7-1.6-1.6.7-1.6 1.6-1.6zm-5 0c.9 0 1.6.7 1.6 1.6s-.7 1.6-1.6 1.6-1.6-.7-1.6-1.6.7-1.6 1.6-1.6zm-5 0c.9 0 1.6.7 1.6 1.6s-.7 1.6-1.6 1.6-1.6-.7-1.6-1.6.7-1.6 1.6-1.6zm25 21.6c0 1.2-1 2.2-2.2 2.2h-22.5c-1.2 0-2.2-1-2.2-2.2v-15.9h26.9z" fill="#ffc627"/><path d="m548.9 104.6c-1.4.6-2.8 1-4.3 1.2 1.6-.9 2.8-2.4 3.3-4.2-1.5.9-3.1 1.5-4.8 1.8-1.4-1.5-3.3-2.4-5.5-2.4-4.2 0-7.6 3.4-7.6 7.6 0 .6.1 1.2.2 1.7-6.3-.3-11.9-3.3-15.6-7.9-.7 1.1-1 2.4-1 3.8 0 2.6 1.3 4.9 3.4 6.3-1.2 0-2.4-.4-3.4-1v.1c0 3.7 2.6 6.7 6.1 7.4-.6.2-1.3.3-2 .3-.5 0-1 0-1.4-.1 1 3 3.8 5.2 7.1 5.3-2.6 2-5.9 3.2-9.4 3.2-.6 0-1.2 0-1.8-.1 3.4 2.1 7.3 3.4 11.6 3.4 13.9 0 21.5-11.5 21.5-21.5 0-.3 0-.7 0-1 1.3-1.1 2.6-2.4 3.6-3.9z" fill="#ffc627"/><path d="m688 114.1h-4.7v-4.7h-3.8v4.7h-4.7v3.8h4.7v4.7h3.8v-4.7h4.7m-30-4.7v5.8h8.2c-.6 3.5-3.7 6.1-8.2 6.1-4.9 0-9-4.2-9-9.1s4-9.1 9-9.1c2.2 0 4.2.8 5.8 2.3l4.2-4.2c-2.6-2.4-6-3.9-10-3.9-8.3 0-15 6.7-15 15s6.7 15 15 15c8.7 0 14.4-6.1 14.4-14.7 0-1.1-.1-2.1-.3-3.2z" fill="#ffc627"/><path d="m596 101c-8.3 0-15 6.7-15 15 0 6.4 4 11.8 9.5 14-.1-1.2-.3-3 .1-4.3.3-1.2 1.8-7.5 1.8-7.5s-.4-.9-.4-2.2c0-2.1 1.2-3.6 2.7-3.6 1.3 0 1.9 1 1.9 2.1 0 1.3-.8 3.2-1.2 5-.4 1.5.7 2.7 2.2 2.7 2.7 0 4.7-2.8 4.7-6.9 0-3.6-2.6-6.1-6.3-6.1-4.3 0-6.8 3.2-6.8 6.5 0 1.3.5 2.7 1.1 3.4.1.1.1.3.1.4-.1.5-.4 1.5-.4 1.7-.1.3-.2.3-.5.2-1.9-.9-3-3.6-3-5.8 0-4.7 3.4-9.1 9.9-9.1 5.2 0 9.2 3.7 9.2 8.7 0 5.2-3.3 9.3-7.8 9.3-1.5 0-2.9-.8-3.4-1.7 0 0-.8 2.9-.9 3.6-.3 1.3-1.3 2.9-1.9 3.9 1.4.4 2.9.7 4.4.7 8.3 0 15-6.7 15-15s-6.7-15-15-15z" fill="#ffc627"/><path d="m640.4 102.7c-1.1-1.1-2.4-1.7-4-1.7h-18.8c-1.5 0-2.9.5-4 1.7-1.1 1.1-1.7 2.4-1.7 4v18.8c0 1.5.5 2.9 1.7 4 1.1 1.1 2.4 1.7 4 1.7h18.8c1.5 0 2.9-.5 4-1.7 1.1-1.1 1.7-2.4 1.7-4v-18.8c-.1-1.6-.7-2.9-1.7-4zm-16 16.2c-.8.8-1.8 1.2-2.9 1.2s-2.1-.4-2.9-1.2-1.2-1.8-1.2-2.9.4-2.1 1.2-2.9 1.8-1.2 2.9-1.2 2.1.4 2.9 1.2 1.2 1.8 1.2 2.9-.4 2.1-1.2 2.9zm11 0c-.8.8-1.8 1.2-2.9 1.2s-2.1-.4-2.9-1.2-1.2-1.8-1.2-2.9.4-2.1 1.2-2.9 1.8-1.2 2.9-1.2 2.1.4 2.9 1.2 1.2 1.8 1.2 2.9-.4 2.1-1.2 2.9z" fill="#ffc627"/><path d="m717.3 115.3c-.1.1-.2.2-.3.2v-11.6c0-1.6-1.2-2.9-2.7-2.9h-21c-1.5 0-2.7 1.3-2.7 2.9v11.6c-.1-.1-.2-.2-.4-.2-.9-.6-1.5.2-.9 1 1.1 1.3 3.1 2.9 6.2 4.2-3.3 11.2 8 13 7.9 7.3 0 .1 0-3.3 0-5.7.3.1.6.1.8.2 0 2.4 0 5.6 0 5.5-.2 5.8 11.2 4 7.9-7.3 3.1-1.3 5.2-2.9 6.2-4.2.5-.8-.1-1.6-1-1zm-11.2 2.8c-1.4-.1-1.9.5-2 1.4-.3-.2-.7-.5-1-.8-.1-.1-.1-.1-.2-.1-.3-.3-.8-.5-1.6-.5-1.9.1-5.3.4-9.2-1.7v-11.3c0-2 .5-2.7 2.4-2.7h18.6c1.8 0 2.4.8 2.4 2.7v11.2c-4 2.3-7.5 1.9-9.4 1.8z" fill="#ffc627"/><path d="m708.1 110c-2 0-3.6 1.5-3.6 3.4s1.6 3.4 3.6 3.4 3.6-1.5 3.6-3.4-1.6-3.4-3.6-3.4z" fill="#ffc627"/><path d="m703.3 113.4c0 1.9-1.6 3.4-3.6 3.4s-3.6-1.5-3.6-3.4 1.6-3.4 3.6-3.4 3.6 1.5 3.6 3.4z" fill="#ffc627"/><path d="m506.1 131v-13.7h4.6l.7-5.3h-5.3v-3.4c0-1.5.4-2.6 2.6-2.6h2.8v-4.8c-.5-.1-2.2-.2-4.1-.2-4.1 0-6.9 2.5-6.9 7v3.9h-4.5v5.3h4.6v13.8z" fill="#ffc627"/><path d="m766.3 119.3c2.3-1.2 4.5-2.3 6.7-3.5-2.3-1.2-4.5-2.3-6.7-3.5z" fill="#ffc627"/><path d="m769 101c-8.3 0-15 6.7-15 15s6.7 15 15 15 15-6.7 15-15-6.7-15-15-15zm10.2 20c-.3 1.1-1.2 2-2.3 2.1-2.6.3-5.3.3-7.9.3s-5.3 0-7.9-.3c-1.1-.1-2-1-2.3-2.1-.4-1.6-.4-3.4-.4-5 0-1.7 0-3.4.4-5 .3-1.1 1.2-2 2.3-2.1 2.6-.3 5.3-.3 7.9-.3s5.3 0 7.9.3c1.1.1 2 1 2.3 2.1.4 1.6.4 3.4.4 5 0 1.7 0 3.4-.4 5z" fill="#ffc627"/><path d="m565 103.7c4 0 4.5 0 6.1.1 1.5.1 2.3.3 2.8.5.7.3 1.2.6 1.7 1.1s.8 1 1.1 1.7c.2.5.5 1.3.5 2.8.1 1.6.1 2.1.1 6.1s0 4.5-.1 6.1c-.1 1.5-.3 2.3-.5 2.8-.3.7-.6 1.2-1.1 1.7s-1 .8-1.7 1.1c-.5.2-1.3.5-2.8.5-1.6.1-2.1.1-6.1.1s-4.5 0-6.1-.1c-1.5-.1-2.3-.3-2.8-.5-.7-.3-1.2-.6-1.7-1.1s-.8-1-1.1-1.7c-.2-.5-.5-1.3-.5-2.8-.1-1.6-.1-2.1-.1-6.1s0-4.5.1-6.1c.1-1.5.3-2.3.5-2.8.3-.7.6-1.2 1.1-1.7s1-.8 1.7-1.1c.5-.2 1.3-.5 2.8-.5 1.6-.1 2.1-.1 6.1-.1m0-2.7c-4.1 0-4.6 0-6.2.1s-2.7.3-3.6.7c-1 .4-1.8.9-2.7 1.7s-1.3 1.7-1.7 2.7-.6 2-.7 3.6-.1 2.1-.1 6.2 0 4.6.1 6.2.3 2.7.7 3.6c.4 1 .9 1.8 1.7 2.7s1.7 1.3 2.7 1.7 2 .6 3.6.7 2.1.1 6.2.1 4.6 0 6.2-.1 2.7-.3 3.6-.7c1-.4 1.8-.9 2.7-1.7s1.3-1.7 1.7-2.7.6-2 .7-3.6.1-2.1.1-6.2 0-4.6-.1-6.2-.3-2.7-.7-3.6c-.4-1-.9-1.8-1.7-2.7s-1.7-1.3-2.7-1.7-2-.6-3.6-.7-2.1-.1-6.2-.1z" fill="#ffc627"/><path d="m565 108.3c-4.3 0-7.7 3.4-7.7 7.7s3.4 7.7 7.7 7.7 7.7-3.4 7.7-7.7-3.4-7.7-7.7-7.7zm0 12.7c-2.8 0-5-2.2-5-5s2.2-5 5-5 5 2.2 5 5-2.2 5-5 5z" fill="#ffc627"/><circle cx="573" cy="108" fill="#ffc627" r="1.8"/><path d="m819.7 138.9c-.2 3.4-2.5 8-7.1 13.9-4.7 6.1-8.7 9.2-12 9.2-2 0-3.7-1.9-5.1-5.6-.9-3.4-1.9-6.8-2.8-10.3-1-3.7-2.2-5.6-3.3-5.6-.3 0-1.2.5-2.7 1.6l-1.6-2.1 5.1-4.5c2.3-2 4-3 5.1-3.1 2.7-.3 4.4 1.6 5 5.5.7 4.3 1.1 6.9 1.4 7.9.8 3.5 1.6 5.3 2.6 5.3.7 0 1.8-1.1 3.3-3.4s2.2-4 2.3-5.2c.2-2-.6-3-2.3-3-.8 0-1.7.2-2.6.6 1.7-5.6 5-8.3 9.8-8.1 3.4.1 5.1 2.4 4.9 6.9z" fill="#fff"/><path d="m735.6 144.8 1.2 3.8h4l-3.2 2.4 1.2 3.8-3.2-2.4-3.3 2.4 1.3-3.8-3.3-2.4h4z" fill="#fff"/><path d="m746.8 132h-22.5c-2.9 0-5.3 2.4-5.3 5.3v19.4c0 2.9 2.4 5.3 5.3 5.3h22.5c2.9 0 5.3-2.4 5.3-5.3v-19.4c0-2.9-2.4-5.3-5.3-5.3zm-12.8 3.1c.9 0 1.6.7 1.6 1.6s-.7 1.6-1.6 1.6-1.6-.7-1.6-1.6.7-1.6 1.6-1.6zm-5 0c.9 0 1.6.7 1.6 1.6s-.7 1.6-1.6 1.6-1.6-.7-1.6-1.6.7-1.6 1.6-1.6zm-5 0c.9 0 1.6.7 1.6 1.6s-.7 1.6-1.6 1.6-1.6-.7-1.6-1.6.7-1.6 1.6-1.6zm25 21.6c0 1.2-1 2.2-2.2 2.2h-22.5c-1.2 0-2.2-1-2.2-2.2v-15.9h26.9z" fill="#fff"/><path d="m548.9 135.6c-1.4.6-2.8 1-4.3 1.2 1.6-.9 2.8-2.4 3.3-4.2-1.5.9-3.1 1.5-4.8 1.8-1.4-1.5-3.3-2.4-5.5-2.4-4.2 0-7.6 3.4-7.6 7.6 0 .6.1 1.2.2 1.7-6.3-.3-11.9-3.3-15.6-7.9-.7 1.1-1 2.4-1 3.8 0 2.6 1.3 4.9 3.4 6.3-1.2 0-2.4-.4-3.4-1v.1c0 3.7 2.6 6.7 6.1 7.4-.6.2-1.3.3-2 .3-.5 0-1 0-1.4-.1 1 3 3.8 5.2 7.1 5.3-2.6 2-5.9 3.2-9.4 3.2-.6 0-1.2 0-1.8-.1 3.4 2.1 7.3 3.4 11.6 3.4 13.9 0 21.5-11.5 21.5-21.5 0-.3 0-.7 0-1 1.3-1.1 2.6-2.4 3.6-3.9z" fill="#fff"/><path d="m688 145.1h-4.7v-4.7h-3.8v4.7h-4.7v3.8h4.7v4.7h3.8v-4.7h4.7m-30-4.7v5.8h8.2c-.6 3.5-3.7 6.1-8.2 6.1-4.9 0-9-4.2-9-9.1s4-9.1 9-9.1c2.2 0 4.2.8 5.8 2.3l4.2-4.2c-2.6-2.4-6-3.9-10-3.9-8.3 0-15 6.7-15 15s6.7 15 15 15c8.7 0 14.4-6.1 14.4-14.7 0-1.1-.1-2.1-.3-3.2z" fill="#fff"/><path d="m596 132c-8.3 0-15 6.7-15 15 0 6.4 4 11.8 9.5 14-.1-1.2-.3-3 .1-4.3.3-1.2 1.8-7.5 1.8-7.5s-.4-.9-.4-2.2c0-2.1 1.2-3.6 2.7-3.6 1.3 0 1.9 1 1.9 2.1 0 1.3-.8 3.2-1.2 5-.4 1.5.7 2.7 2.2 2.7 2.7 0 4.7-2.8 4.7-6.9 0-3.6-2.6-6.1-6.3-6.1-4.3 0-6.8 3.2-6.8 6.5 0 1.3.5 2.7 1.1 3.4.1.1.1.3.1.4-.1.5-.4 1.5-.4 1.7-.1.3-.2.3-.5.2-1.9-.9-3-3.6-3-5.8 0-4.7 3.4-9.1 9.9-9.1 5.2 0 9.2 3.7 9.2 8.7 0 5.2-3.3 9.3-7.8 9.3-1.5 0-2.9-.8-3.4-1.7 0 0-.8 2.9-.9 3.6-.3 1.3-1.3 2.9-1.9 3.9 1.4.4 2.9.7 4.4.7 8.3 0 15-6.7 15-15s-6.7-15-15-15z" fill="#fff"/><path d="m640.4 133.7c-1.1-1.1-2.4-1.7-4-1.7h-18.8c-1.5 0-2.9.5-4 1.7-1.1 1.1-1.7 2.4-1.7 4v18.8c0 1.5.5 2.9 1.7 4 1.1 1.1 2.4 1.7 4 1.7h18.8c1.5 0 2.9-.5 4-1.7 1.1-1.1 1.7-2.4 1.7-4v-18.8c-.1-1.6-.7-2.9-1.7-4zm-16 16.2c-.8.8-1.8 1.2-2.9 1.2s-2.1-.4-2.9-1.2-1.2-1.8-1.2-2.9.4-2.1 1.2-2.9 1.8-1.2 2.9-1.2 2.1.4 2.9 1.2 1.2 1.8 1.2 2.9-.4 2.1-1.2 2.9zm11 0c-.8.8-1.8 1.2-2.9 1.2s-2.1-.4-2.9-1.2-1.2-1.8-1.2-2.9.4-2.1 1.2-2.9 1.8-1.2 2.9-1.2 2.1.4 2.9 1.2 1.2 1.8 1.2 2.9-.4 2.1-1.2 2.9z" fill="#fff"/><path d="m717.3 146.3c-.1.1-.2.2-.3.2v-11.6c0-1.6-1.2-2.9-2.7-2.9h-21c-1.5 0-2.7 1.3-2.7 2.9v11.6c-.1-.1-.2-.2-.4-.2-.9-.6-1.5.2-.9 1 1.1 1.3 3.1 2.9 6.2 4.2-3.3 11.2 8 13 7.9 7.3 0 .1 0-3.3 0-5.7.3.1.6.1.8.2 0 2.4 0 5.6 0 5.5-.2 5.8 11.2 4 7.9-7.3 3.1-1.3 5.2-2.9 6.2-4.2.5-.8-.1-1.6-1-1zm-11.2 2.8c-1.4-.1-1.9.5-2 1.4-.3-.2-.7-.5-1-.8-.1-.1-.1-.1-.2-.1-.3-.3-.8-.5-1.6-.5-1.9.1-5.3.4-9.2-1.7v-11.3c0-2 .5-2.7 2.4-2.7h18.6c1.8 0 2.4.8 2.4 2.7v11.2c-4 2.3-7.5 1.9-9.4 1.8z" fill="#fff"/><path d="m708.1 141c-2 0-3.6 1.5-3.6 3.4s1.6 3.4 3.6 3.4 3.6-1.5 3.6-3.4-1.6-3.4-3.6-3.4z" fill="#fff"/><path d="m703.3 144.4c0 1.9-1.6 3.4-3.6 3.4s-3.6-1.5-3.6-3.4 1.6-3.4 3.6-3.4 3.6 1.5 3.6 3.4z" fill="#fff"/><path d="m506.1 162v-13.7h4.6l.7-5.3h-5.3v-3.4c0-1.5.4-2.6 2.6-2.6h2.8v-4.8c-.5-.1-2.2-.2-4.1-.2-4.1 0-6.9 2.5-6.9 7v3.9h-4.5v5.3h4.6v13.8z" fill="#fff"/><path d="m766.3 150.3c2.3-1.2 4.5-2.3 6.7-3.5-2.3-1.2-4.5-2.3-6.7-3.5z" fill="#fff"/><path d="m769 132c-8.3 0-15 6.7-15 15s6.7 15 15 15 15-6.7 15-15-6.7-15-15-15zm10.2 20c-.3 1.1-1.2 2-2.3 2.1-2.6.3-5.3.3-7.9.3s-5.3 0-7.9-.3c-1.1-.1-2-1-2.3-2.1-.4-1.6-.4-3.4-.4-5 0-1.7 0-3.4.4-5 .3-1.1 1.2-2 2.3-2.1 2.6-.3 5.3-.3 7.9-.3s5.3 0 7.9.3c1.1.1 2 1 2.3 2.1.4 1.6.4 3.4.4 5 0 1.7 0 3.4-.4 5z" fill="#fff"/><path d="m565 134.7c4 0 4.5 0 6.1.1 1.5.1 2.3.3 2.8.5.7.3 1.2.6 1.7 1.1s.8 1 1.1 1.7c.2.5.5 1.3.5 2.8.1 1.6.1 2.1.1 6.1s0 4.5-.1 6.1c-.1 1.5-.3 2.3-.5 2.8-.3.7-.6 1.2-1.1 1.7s-1 .8-1.7 1.1c-.5.2-1.3.5-2.8.5-1.6.1-2.1.1-6.1.1s-4.5 0-6.1-.1c-1.5-.1-2.3-.3-2.8-.5-.7-.3-1.2-.6-1.7-1.1s-.8-1-1.1-1.7c-.2-.5-.5-1.3-.5-2.8-.1-1.6-.1-2.1-.1-6.1s0-4.5.1-6.1c.1-1.5.3-2.3.5-2.8.3-.7.6-1.2 1.1-1.7s1-.8 1.7-1.1c.5-.2 1.3-.5 2.8-.5 1.6-.1 2.1-.1 6.1-.1m0-2.7c-4.1 0-4.6 0-6.2.1s-2.7.3-3.6.7c-1 .4-1.8.9-2.7 1.7s-1.3 1.7-1.7 2.7-.6 2-.7 3.6-.1 2.1-.1 6.2 0 4.6.1 6.2.3 2.7.7 3.6c.4 1 .9 1.8 1.7 2.7s1.7 1.3 2.7 1.7 2 .6 3.6.7 2.1.1 6.2.1 4.6 0 6.2-.1 2.7-.3 3.6-.7c1-.4 1.8-.9 2.7-1.7s1.3-1.7 1.7-2.7.6-2 .7-3.6.1-2.1.1-6.2 0-4.6-.1-6.2-.3-2.7-.7-3.6c-.4-1-.9-1.8-1.7-2.7s-1.7-1.3-2.7-1.7-2-.6-3.6-.7-2.1-.1-6.2-.1z" fill="#fff"/><path d="m565 139.3c-4.3 0-7.7 3.4-7.7 7.7s3.4 7.7 7.7 7.7 7.7-3.4 7.7-7.7-3.4-7.7-7.7-7.7zm0 12.7c-2.8 0-5-2.2-5-5s2.2-5 5-5 5 2.2 5 5-2.2 5-5 5z" fill="#fff"/><circle cx="573" cy="139" fill="#fff" r="1.8"/><path d="m48 84.3v4.1h-13.3v-4.1h-2.7v4.1.6 2h18.7v-2-.6-4.1z" fill="#fff"/><path d="m41.4 85.6 5.3-6.5h-2.6v-8.1h-5.4v8.1h-2.6z" fill="#fff"/><path d="m112 84.3v4.1h-13.3v-4.1h-2.7v4.1.6 2h18.7v-2-.6-4.1z" fill="#fec325"/><path d="m105.4 85.6 5.3-6.5h-2.6v-8.1h-5.4v8.1h-2.6z" fill="#fec325"/><path d="m52 71h8v8h-8z" fill="#fff"/><path d="m64 71h8v8h-8z" fill="#fff"/><path d="m52 83h8v8h-8z" fill="#fff"/><path d="m64 83h8v8h-8z" fill="#fff"/><path d="m93 72v18h-18v-18zm1-1h-20v20h20z" fill="#fff"/><path d="m79 76h10v10h-10z" fill="#fff"/><path d="m116 71h8v8h-8z" fill="#fec325"/><path d="m128 71h8v8h-8z" fill="#fec325"/><path d="m116 83h8v8h-8z" fill="#fec325"/><path d="m128 83h8v8h-8z" fill="#fec325"/><path d="m157 72v18h-18v-18zm1-1h-20v20h20z" fill="#fec325"/><path d="m143 76h10v10h-10z" fill="#fec325"/><path d="m176.8 84.1c-1 0-1.9.4-2.6 1.1l-7.3-3.7c0-.2 0-.3 0-.5s0-.3 0-.5l7.5-3.5c.6.6 1.4.9 2.3.9 1.9 0 3.5-1.6 3.5-3.5s-1.6-3.5-3.5-3.5-3.5 1.6-3.5 3.5c0 .3 0 .6.1.9l-7.3 3.4c-.6-.7-1.6-1.2-2.6-1.2-1.9 0-3.5 1.6-3.5 3.5s1.6 3.5 3.5 3.5c1 0 2-.5 2.6-1.2l7.2 3.6v.5c0 1.9 1.6 3.5 3.5 3.5s3.5-1.6 3.5-3.5c.1-1.8-1.5-3.3-3.4-3.3z" fill="#fff"/><path d="m198.8 84.1c-1 0-1.9.4-2.6 1.1l-7.3-3.7c0-.2 0-.3 0-.5s0-.3 0-.5l7.5-3.5c.6.6 1.4.9 2.3.9 1.9 0 3.5-1.6 3.5-3.5s-1.6-3.5-3.5-3.5-3.5 1.6-3.5 3.5c0 .3 0 .6.1.9l-7.3 3.4c-.6-.7-1.6-1.2-2.6-1.2-1.9 0-3.5 1.6-3.5 3.5s1.6 3.5 3.5 3.5c1 0 2-.5 2.6-1.2l7.2 3.6v.5c0 1.9 1.6 3.5 3.5 3.5s3.5-1.6 3.5-3.5c.1-1.8-1.5-3.3-3.4-3.3z" fill="#fec325"/><path d="m484.1 234c-3.5-.6-5-4.1-5.1-4.3-.2-.4-.2-.7-.1-.9.2-.5.9-.7 1.4-.9.1 0 .3-.1.4-.1.9-.3 1.3-.8 1.3-1.2s-.3-.7-.8-.9c-.2-.1-.3-.1-.5-.1-.1 0-.3 0-.5.1-.4.2-.8.3-1.1.3-.2 0-.3-.1-.4-.1 0-.2 0-.4 0-.5v-.1c.1-1.7.2-3.9-.3-5.2-1.7-3.8-5.3-4.1-6.3-4.1s0 0-.1 0h-.4c-1.1 0-4.6.3-6.3 4.1-.6 1.3-.4 3.4-.3 5.2v.6c-.1 0-.2.1-.5.1s-.7-.1-1.2-.3c-.1-.1-.3-.1-.4-.1-.5 0-1.1.3-1.2.9-.1.4.1.9 1.3 1.4.1 0 .2.1.4.1.5.2 1.2.4 1.4.9.1.2.1.6-.1.9-.1.2-1.6 3.7-5.1 4.3-.3 0-.5.3-.4.6 0 .1 0 .2.1.2.3.6 1.4 1.1 3.4 1.4.1.1.1.4.2.6 0 .2.1.4.1.6.1.2.2.5.6.5.2 0 .4 0 .6-.1.3-.1.8-.2 1.4-.2.3 0 .6 0 1 .1.6.1 1.2.5 1.8.9.9.6 1.9 1.4 3.5 1.4h.1.2c1.6 0 2.6-.7 3.5-1.4.6-.5 1.2-.8 1.8-.9.3-.1.7-.1 1-.1.5 0 1 .1 1.4.1.2 0 .4.1.6.1.3 0 .5-.2.6-.4s.1-.4.1-.6.1-.5.2-.6c2-.3 3.1-.8 3.4-1.4 0-.1.1-.2.1-.2-.4-.4-.5-.6-.8-.7z" fill="#fff"/><path d="m484.1 209c-3.5-.6-5-4.1-5.1-4.3-.2-.4-.2-.7-.1-.9.2-.5.9-.7 1.4-.9.1 0 .3-.1.4-.1.9-.3 1.3-.8 1.3-1.2s-.3-.7-.8-.9c-.2-.1-.3-.1-.5-.1-.1 0-.3 0-.5.1-.4.2-.8.3-1.1.3-.2 0-.3-.1-.4-.1 0-.2 0-.4 0-.5v-.1c.1-1.7.2-3.9-.3-5.2-1.7-3.8-5.3-4.1-6.3-4.1s0 0-.1 0h-.4c-1.1 0-4.6.3-6.3 4.1-.6 1.3-.4 3.4-.3 5.2v.6c-.1 0-.2.1-.5.1s-.7-.1-1.2-.3c-.1-.1-.3-.1-.4-.1-.5 0-1.1.3-1.2.9-.1.4.1.9 1.3 1.4.1 0 .2.1.4.1.5.2 1.2.4 1.4.9.1.2.1.6-.1.9-.1.2-1.6 3.7-5.1 4.3-.3 0-.5.3-.4.6 0 .1 0 .2.1.2.3.6 1.4 1.1 3.4 1.4.1.1.1.4.2.6 0 .2.1.4.1.6.1.2.2.5.6.5.2 0 .4 0 .6-.1.3-.1.8-.2 1.4-.2.3 0 .6 0 1 .1.6.1 1.2.5 1.8.9.9.6 1.9 1.4 3.5 1.4h.1.2c1.6 0 2.6-.7 3.5-1.4.6-.5 1.2-.8 1.8-.9.3-.1.7-.1 1-.1.5 0 1 .1 1.4.1.2 0 .4.1.6.1.3 0 .5-.2.6-.4s.1-.4.1-.6.1-.5.2-.6c2-.3 3.1-.8 3.4-1.4 0-.1.1-.2.1-.2-.4-.4-.5-.6-.8-.7z" fill="#ffc627"/><path d="m484.1 184c-3.5-.6-5-4.1-5.1-4.3-.2-.4-.2-.7-.1-.9.2-.5.9-.7 1.4-.9.1 0 .3-.1.4-.1.9-.3 1.3-.8 1.3-1.2s-.3-.7-.8-.9c-.2-.1-.3-.1-.5-.1-.1 0-.3 0-.5.1-.4.2-.8.3-1.1.3-.2 0-.3-.1-.4-.1 0-.2 0-.4 0-.5v-.1c.1-1.7.2-3.9-.3-5.2-1.7-3.8-5.3-4.1-6.3-4.1s0 0-.1 0h-.4c-1.1 0-4.6.3-6.3 4.1-.6 1.3-.4 3.4-.3 5.2v.6c-.1 0-.2.1-.5.1s-.7-.1-1.2-.3c-.1-.1-.3-.1-.4-.1-.5 0-1.1.3-1.2.9-.1.4.1.9 1.3 1.4.1 0 .2.1.4.1.5.2 1.2.4 1.4.9.1.2.1.6-.1.9-.1.2-1.6 3.7-5.1 4.3-.3 0-.5.3-.4.6 0 .1 0 .2.1.2.3.6 1.4 1.1 3.4 1.4.1.1.1.4.2.6 0 .2.1.4.1.6.1.2.2.5.6.5.2 0 .4 0 .6-.1.3-.1.8-.2 1.4-.2.3 0 .6 0 1 .1.6.1 1.2.5 1.8.9.9.6 1.9 1.4 3.5 1.4h.1.2c1.6 0 2.6-.7 3.5-1.4.6-.5 1.2-.8 1.8-.9.3-.1.7-.1 1-.1.5 0 1 .1 1.4.1.2 0 .4.1.6.1.3 0 .5-.2.6-.4s.1-.4.1-.6.1-.5.2-.6c2-.3 3.1-.8 3.4-1.4 0-.1.1-.2.1-.2-.4-.4-.5-.6-.8-.7z"/><path d="m525 70.5c0 1.1-.4 2.3-1.5 2.7-3.6 1.3-7 1.8-11.3 1.8-11.9 0-22.5-8.5-22.5-22.6 0-14.7 10.6-27.4 26.8-27.4 12.6 0 21.7 8.7 21.7 20.8 0 10.5-5.9 16.9-13.7 16.9-3.4 0-5.8-1.7-6.2-5.7h-.1c-2.2 4-5.5 5.7-9.3 5.7-4.7 0-8-3.4-8-9.3 0-8.8 6.5-16.7 16.8-16.7 1.7 0 3.6.3 5.2.6 1.9.4 3.2 2.3 2.9 4.3l-1.7 10.2c-.7 4.2-.2 6.2 1.8 6.3 3.1.1 7-3.9 7-12.1 0-9.3-6-16.6-17.2-16.6-11 0-20.6 8.6-20.6 22.3 0 12 7.7 18.8 18.4 18.8 2.8 0 5.8-.5 8.4-1.4.5-.2 1.3-.2 1.8.1.6.3 1.3.8 1.3 1.3zm-6.1-27.8c-.6-.1-1.3-.3-2.2-.3-4.7 0-8.5 4.7-8.5 10.2 0 2.7 1.2 4.5 3.6 4.5 2.7 0 5.5-3.4 6.1-7.5z" fill="#fec325"/><path d="m514 100c-27.6 0-50-22.4-50-50s22.4-50 50-50 50 22.4 50 50-22.4 50-50 50zm0-97c-25.9 0-47 21.1-47 47s21.1 47 47 47 47-21.1 47-47-21.1-47-47-47z" fill="#fec325"/><path d="m259 53 4.8 6h4l-4.8-6 4.8-6h-4z" fill="#4d4d4d"/><path d="m272 47h-4l4.8 6-4.8 6h4l4.8-6z" fill="#4d4d4d"/><path d="m259 66 4.8 6h4l-4.8-6 4.8-6h-4z"/><path d="m272 60h-4l4.8 6-4.8 6h4l4.8-6z"/><ellipse cx="489.3" cy="186.7" rx="3.3" ry="3.3"/><path d="m501.7 190h-4.6c0-6.2-5-11.2-11.1-11.2v-4.7c8.7 0 15.7 7.1 15.7 15.9z"/><path d="m505 190c0-10.6-8.5-19.2-19-19.2v-4.8c13.1 0 23.7 10.7 23.7 24z"/><ellipse cx="489.3" cy="211.7" fill="#ffc627" rx="3.3" ry="3.3"/><path d="m501.7 215h-4.6c0-6.2-5-11.2-11.1-11.2v-4.7c8.7 0 15.7 7.1 15.7 15.9z" fill="#ffc627"/><path d="m505 215c0-10.6-8.5-19.2-19-19.2v-4.8c13.1 0 23.7 10.7 23.7 24z" fill="#ffc627"/><ellipse cx="489.3" cy="236.7" fill="#fff" rx="3.3" ry="3.3"/><path d="m501.7 240h-4.6c0-6.2-5-11.2-11.1-11.2v-4.7c8.7 0 15.7 7.1 15.7 15.9z" fill="#fff"/><path d="m505 240c0-10.6-8.5-19.2-19-19.2v-4.8c13.1 0 23.7 10.7 23.7 24z" fill="#fff"/><path d="m337.3 32.6h4.2v13.4h-4.2zm2.1-6.6c1.3 0 2.4 1.1 2.4 2.4s-1.1 2.4-2.4 2.4-2.4-1.1-2.4-2.4 1.1-2.4 2.4-2.4" fill="#fff"/><path d="m344.1 32.6h4v1.8h.1c.6-1 1.9-2.2 3.9-2.2 4.2 0 5 2.8 5 6.4v7.4h-4.2v-6.5c0-1.5 0-3.5-2.2-3.5s-2.5 1.7-2.5 3.4v6.6h-4.1z" fill="#fff"/><path d="m534.2 188c.6 0 1.1-.2 1.5-.6l-7.2-7.2c-.2.1-.3.2-.5.4-.5.4-1 .7-1.3.9s-.8.4-1.4.7c-.6.2-1.1.3-1.6.3-.5 0-1-.1-1.6-.3s-1-.5-1.3-.7-.8-.5-1.3-.9c-.2-.1-.3-.2-.5-.4l-7.2 7.2c.4.4.9.6 1.5.6z"/><path d="m512.4 175.7c-.5-.4-1-.8-1.4-1.2v11l6.4-6.4c-1.3-.9-3-2-5-3.4z"/><path d="m535 175.7c-1.9 1.3-3.6 2.4-4.9 3.4l6.4 6.4v-11c-.4.4-.9.8-1.5 1.2z"/><path d="m534.2 168h-20.9c-.7 0-1.3.2-1.7.7s-.6 1.1-.6 1.8c0 .6.3 1.2.8 1.9s1.1 1.2 1.7 1.6c.3.2 1.3.9 2.9 2 .9.6 1.6 1.1 2.3 1.6.6.4 1 .7 1.4 1 0 0 .1.1.2.1.1.1.2.2.4.3.3.2.6.4.8.5s.5.3.7.5c.3.2.6.3.8.4.3.1.5.1.7.1.2 0 .5 0 .7-.1.3-.1.5-.2.8-.4s.5-.3.7-.5c.2-.1.5-.3.8-.5.2-.1.3-.2.4-.3s.2-.1.2-.1c.3-.2.8-.5 1.4-1 1.2-.8 2.9-2 5.2-3.6.7-.5 1.3-1.1 1.7-1.7.5-.7.7-1.4.7-2.1 0-.6-.2-1.2-.7-1.6-.3-.4-.8-.6-1.4-.6z"/><path d="m534.2 213c.6 0 1.1-.2 1.5-.6l-7.2-7.2c-.2.1-.3.2-.5.4-.5.4-1 .7-1.3.9s-.8.4-1.4.7c-.6.2-1.1.3-1.6.3-.5 0-1-.1-1.6-.3s-1-.5-1.3-.7-.8-.5-1.3-.9c-.2-.1-.3-.2-.5-.4l-7.2 7.2c.4.4.9.6 1.5.6z" fill="#ffc627"/><path d="m512.4 200.7c-.5-.4-1-.8-1.4-1.2v11l6.4-6.4c-1.3-.9-3-2-5-3.4z" fill="#ffc627"/><path d="m535 200.7c-1.9 1.3-3.6 2.4-4.9 3.4l6.4 6.4v-11c-.4.4-.9.8-1.5 1.2z" fill="#ffc627"/><path d="m534.2 193h-20.9c-.7 0-1.3.2-1.7.7s-.6 1.1-.6 1.8c0 .6.3 1.2.8 1.9s1.1 1.2 1.7 1.6c.3.2 1.3.9 2.9 2 .9.6 1.6 1.1 2.3 1.6.6.4 1 .7 1.4 1 0 0 .1.1.2.1.1.1.2.2.4.3.3.2.6.4.8.5s.5.3.7.5c.3.2.6.3.8.4.3.1.5.1.7.1.2 0 .5 0 .7-.1.3-.1.5-.2.8-.4s.5-.3.7-.5c.2-.1.5-.3.8-.5.2-.1.3-.2.4-.3s.2-.1.2-.1c.3-.2.8-.5 1.4-1 1.2-.8 2.9-2 5.2-3.6.7-.5 1.3-1.1 1.7-1.7.5-.7.7-1.4.7-2.1 0-.6-.2-1.2-.7-1.6-.3-.4-.8-.6-1.4-.6z" fill="#ffc627"/><path d="m534.2 238c.6 0 1.1-.2 1.5-.6l-7.2-7.2c-.2.1-.3.2-.5.4-.5.4-1 .7-1.3.9s-.8.4-1.4.7c-.6.2-1.1.3-1.6.3-.5 0-1-.1-1.6-.3s-1-.5-1.3-.7-.8-.5-1.3-.9c-.2-.1-.3-.2-.5-.4l-7.2 7.2c.4.4.9.6 1.5.6z" fill="#fff"/><path d="m512.4 225.7c-.5-.4-1-.8-1.4-1.2v11l6.4-6.4c-1.3-.9-3-2-5-3.4z" fill="#fff"/><path d="m535 225.7c-1.9 1.3-3.6 2.4-4.9 3.4l6.4 6.4v-11c-.4.4-.9.8-1.5 1.2z" fill="#fff"/><path d="m534.2 218h-20.9c-.7 0-1.3.2-1.7.7s-.6 1.1-.6 1.8c0 .6.3 1.2.8 1.9s1.1 1.2 1.7 1.6c.3.2 1.3.9 2.9 2 .9.6 1.6 1.1 2.3 1.6.6.4 1 .7 1.4 1 0 0 .1.1.2.1.1.1.2.2.4.3.3.2.6.4.8.5s.5.3.7.5c.3.2.6.3.8.4.3.1.5.1.7.1.2 0 .5 0 .7-.1.3-.1.5-.2.8-.4s.5-.3.7-.5c.2-.1.5-.3.8-.5.2-.1.3-.2.4-.3s.2-.1.2-.1c.3-.2.8-.5 1.4-1 1.2-.8 2.9-2 5.2-3.6.7-.5 1.3-1.1 1.7-1.7.5-.7.7-1.4.7-2.1 0-.6-.2-1.2-.7-1.6-.3-.4-.8-.6-1.4-.6z" fill="#fff"/><path d="m381.7 36.2c0-1.4-1.1-2.5-2.5-2.5-.7 0-1.3.3-1.7.7-1.7-1.2-4-2-6.6-2l1.1-5.3 3.8.8c.1.9.8 1.6 1.7 1.6 1 0 1.7-.8 1.7-1.7s-.8-1.7-1.7-1.7c-.7 0-1.3.4-1.6 1l-3.7-.8-.8-.2-.2.8-1.2 5.4c-2.6.1-5 .8-6.8 2.1-.5-.4-1.1-.7-1.7-.7-1.4 0-2.5 1.1-2.5 2.5 0 1 .6 1.9 1.5 2.3 0 .2-.1.5-.1.7 0 3.8 4.5 6.8 10 6.8s10-3.1 10-6.8c0-.2 0-.5-.1-.7.8-.5 1.4-1.3 1.4-2.3zm-16.9 1.7c0-.9.8-1.7 1.7-1.7s1.7.8 1.7 1.7-.8 1.7-1.7 1.7c-1 0-1.7-.8-1.7-1.7zm9.7 4.7c-.1.1-1.4 1.3-4.2 1.3s-4.1-1.3-4.1-1.3c-.2-.2-.1-.5 0-.6.2-.2.5-.1.6 0 0 0 1.1 1 3.4 1 2.4 0 3.6-1 3.6-1 .2-.2.4-.2.6 0 .3.1.3.4.1.6zm-.2-3c-.9 0-1.7-.8-1.7-1.7s.8-1.7 1.7-1.7 1.7.8 1.7 1.7-.8 1.7-1.7 1.7z" fill="#fff"/><path d="m24.6 52.4c-.9.4-1.9.7-2.9.8 1-.6 1.8-1.6 2.2-2.8-1 .6-2.1 1-3.2 1.2-.9-1-2.2-1.6-3.7-1.6-2.8 0-5 2.3-5 5 0 .4 0 .8.1 1.2-4.2-.2-7.9-2.2-10.4-5.3-.4.8-.7 1.6-.7 2.6 0 1.8.9 3.3 2.2 4.2-.8 0-1.6-.3-2.3-.6v.1c0 2.4 1.7 4.5 4.1 5-.4.1-.9.2-1.3.2-.3 0-.6 0-.9-.1.6 2 2.5 3.5 4.7 3.5-1.7 1.4-3.9 2.2-6.3 2.2-.4 0-.8 0-1.2-.1 2.2 1.3 4.9 2.1 7.7 2.1 9.3 0 14.4-7.7 14.4-14.4 0-.2 0-.4 0-.7 1-.6 1.8-1.5 2.5-2.5z" fill="#fff"/><path d="m35 50c-5.5 0-10 4.5-10 10 0 4.2 2.6 7.9 6.4 9.3-.1-.8-.2-2 0-2.9.2-.8 1.2-5 1.2-5s-.3-.6-.3-1.5c0-1.4.8-2.4 1.8-2.4.9 0 1.3.6 1.3 1.4 0 .9-.5 2.1-.8 3.3-.2 1 .5 1.8 1.5 1.8 1.8 0 3.1-1.9 3.1-4.6 0-2.4-1.7-4.1-4.2-4.1-2.8 0-4.5 2.1-4.5 4.3 0 .9.3 1.8.7 2.3.1.1.1.2.1.3-.1.3-.2 1-.3 1.1 0 .2-.1.2-.3.1-1.2-.6-2-2.4-2-3.9 0-3.2 2.3-6.1 6.6-6.1 3.5 0 6.2 2.5 6.2 5.8 0 3.5-2.2 6.2-5.2 6.2-1 0-2-.5-2.3-1.1 0 0-.5 1.9-.6 2.4-.2.9-.8 2-1.2 2.6.8.5 1.8.7 2.8.7 5.5 0 10-4.5 10-10s-4.5-10-10-10z" fill="#fff"/><path d="m565.3 178.2c0-1.7-1.3-3-3-3-.8 0-1.5.3-2.1.8-2-1.4-4.8-2.3-7.9-2.5l1.4-6.3 4.5.9c.1 1.1 1 2 2.1 2s2.1-.9 2.1-2.1-.9-2.1-2.1-2.1c-.8 0-1.6.5-1.9 1.2l-4.5-.9-1-.2-.2 1-1.4 6.5c-3.2.1-6 1-8.1 2.5-.5-.5-1.3-.9-2.1-.9-1.7 0-3 1.3-3 3 0 1.2.7 2.2 1.7 2.7 0 .3-.1.6-.1.9 0 4.5 5.4 8.2 12 8.2s12-3.7 12-8.2c0-.3 0-.6-.1-.9.9-.4 1.7-1.4 1.7-2.6zm-20.4 2.1c0-1.1.9-2 2-2s2 .9 2 2-.9 2-2 2-2-.9-2-2zm11.7 5.6c-.1.1-1.7 1.6-5 1.6s-4.9-1.5-4.9-1.6c-.2-.2-.2-.5.1-.7.2-.2.5-.2.7.1 0 0 1.4 1.2 4.1 1.2 2.8 0 4.3-1.2 4.3-1.2.2-.2.5-.2.7 0 .2 0 .2.4 0 .6zm-.3-3.6c-1.1 0-2-.9-2-2s.9-2 2-2 2 .9 2 2c.1 1.1-.9 2-2 2z"/><path d="m565.3 203.2c0-1.7-1.3-3-3-3-.8 0-1.5.3-2.1.8-2-1.4-4.8-2.3-7.9-2.5l1.4-6.3 4.5.9c.1 1.1 1 2 2.1 2s2.1-.9 2.1-2.1-.9-2.1-2.1-2.1c-.8 0-1.6.5-1.9 1.2l-4.5-.9-1-.2-.2 1-1.4 6.5c-3.2.1-6 1-8.1 2.5-.5-.5-1.3-.9-2.1-.9-1.7 0-3 1.3-3 3 0 1.2.7 2.2 1.7 2.7 0 .3-.1.6-.1.9 0 4.5 5.4 8.2 12 8.2s12-3.7 12-8.2c0-.3 0-.6-.1-.9.9-.4 1.7-1.4 1.7-2.6zm-20.4 2.1c0-1.1.9-2 2-2s2 .9 2 2-.9 2-2 2-2-.9-2-2zm11.7 5.6c-.1.1-1.7 1.6-5 1.6s-4.9-1.5-4.9-1.6c-.2-.2-.2-.5.1-.7.2-.2.5-.2.7.1 0 0 1.4 1.2 4.1 1.2 2.8 0 4.3-1.2 4.3-1.2.2-.2.5-.2.7 0 .2 0 .2.4 0 .6zm-.3-3.6c-1.1 0-2-.9-2-2s.9-2 2-2 2 .9 2 2c.1 1.1-.9 2-2 2z" fill="#ffc627"/><path d="m565.3 228.2c0-1.7-1.3-3-3-3-.8 0-1.5.3-2.1.8-2-1.4-4.8-2.3-7.9-2.5l1.4-6.3 4.5.9c.1 1.1 1 2 2.1 2s2.1-.9 2.1-2.1-.9-2.1-2.1-2.1c-.8 0-1.6.5-1.9 1.2l-4.5-.9-1-.2-.2 1-1.4 6.5c-3.2.1-6 1-8.1 2.5-.5-.5-1.3-.9-2.1-.9-1.7 0-3 1.3-3 3 0 1.2.7 2.2 1.7 2.7 0 .3-.1.6-.1.9 0 4.5 5.4 8.2 12 8.2s12-3.7 12-8.2c0-.3 0-.6-.1-.9.9-.4 1.7-1.4 1.7-2.6zm-20.4 2.1c0-1.1.9-2 2-2s2 .9 2 2-.9 2-2 2-2-.9-2-2zm11.7 5.6c-.1.1-1.7 1.6-5 1.6s-4.9-1.5-4.9-1.6c-.2-.2-.2-.5.1-.7.2-.2.5-.2.7.1 0 0 1.4 1.2 4.1 1.2 2.8 0 4.3-1.2 4.3-1.2.2-.2.5-.2.7 0 .2 0 .2.4 0 .6zm-.3-3.6c-1.1 0-2-.9-2-2s.9-2 2-2 2 .9 2 2c.1 1.1-.9 2-2 2z" fill="#fff"/></svg>