<svg enable-background="new 0 0 112 24" height="24" viewBox="0 0 112 24" width="112" xmlns="http://www.w3.org/2000/svg"><path d="m41.434 24c6.627 0 12-5.373 12-12s-5.373-12-12-12-12 5.373-12 12 5.373 12 12 12zm0-20.641c4.772 0 8.641 3.869 8.641 8.641 0 2.226-.764 5.162-2.492 7.289-1.976 2.434-5.248 3.754-7.794 3.754-.4 0-.024-1.386.027-2.161.017-.255.16-.56-.133-.564-4.093-.061-6.89-4.079-6.89-8.319 0-4.771 3.869-8.64 8.641-8.64z" fill="#fec327"/><g fill="#fff"><path d="m98.082 2.75v7.673h11.776v2.569h-11.776v8.005h13.61v2.536h-16.279v-23.351h15.845v2.568z"/><path d="m20.716 3.518-1.602 2.034c-1.801-1.835-4.336-2.935-6.905-2.935-5.27 0-9.507 4.069-9.507 9.207 0 5.103 4.237 9.206 9.507 9.206 2.569 0 5.071-1.067 6.905-2.801l1.635 1.834c-2.301 2.17-5.438 3.604-8.673 3.604-6.739 0-12.076-5.239-12.076-11.843 0-6.539 5.404-11.71 12.176-11.71 3.202 0 6.305 1.302 8.54 3.404z"/><path d="m73.778 16.094c-.5.033-1.034.066-1.568.066h-6.205v7.372h-2.668v-23.35h8.873c5.838 0 9.206 2.869 9.206 7.839 0 3.869-1.867 6.471-5.237 7.572l5.471 7.939h-3.035zm-1.568-2.502c4.236 0 6.638-1.868 6.638-5.504 0-3.536-2.402-5.338-6.638-5.338h-6.205v10.842z"/></g></svg>