<?xml version="1.0" encoding="utf-8"?>
<!-- Generator: Adobe Illustrator 16.0.0, SVG Export Plug-In . SVG Version: 6.00 Build 0)  -->
<!DOCTYPE svg PUBLIC "-//W3C//DTD SVG 1.1//EN" "http://www.w3.org/Graphics/SVG/1.1/DTD/svg11.dtd">
<svg version="1.1" id="USARMY_x5F_2D_x5F_2C_x5F_A4_x5F_NS_x5F_NG"
	 xmlns="http://www.w3.org/2000/svg" xmlns:xlink="http://www.w3.org/1999/xlink" x="0px" y="0px" width="94.912px" height="120px"
	 viewBox="0 0 94.912 120" enable-background="new 0 0 94.912 120" xml:space="preserve">
<g>
	<g>
		<path fill="#231F20" d="M90.401,89.697c0-1.336,1.062-2.209,2.253-2.209c1.196,0,2.258,0.874,2.258,2.209
			c0,1.338-1.062,2.199-2.258,2.199C91.463,91.896,90.401,91.035,90.401,89.697z M92.654,87.957c-0.942,0-1.676,0.721-1.676,1.74
			c0,1.009,0.733,1.736,1.676,1.736c0.932,0,1.681-0.727,1.681-1.736C94.335,88.678,93.586,87.957,92.654,87.957z M92.265,90.921
			h-0.49v-2.462h0.94c0.61,0,0.954,0.198,0.954,0.727c0,0.452-0.281,0.632-0.602,0.667l0.602,1.068h-0.542l-0.559-1.053h-0.303
			V90.921z M92.265,89.489h0.422c0.351,0,0.481-0.104,0.481-0.344c0-0.227-0.155-0.311-0.501-0.311h-0.402V89.489z"/>
	</g>
	<path d="M7.439,87.995C3.337,87.995,0,91.332,0,95.435v17.125c0,4.102,3.337,7.44,7.439,7.44h75.324
		c4.102,0,7.438-3.338,7.438-7.44V95.435c0-4.103-3.337-7.44-7.438-7.44H7.439z"/>
	<g>
		<path fill="#FFC425" d="M82.764,90.37H7.439c-2.793,0-5.065,2.272-5.065,5.065v17.125c0,2.793,2.272,5.065,5.065,5.065h75.324
			c2.792,0,5.064-2.272,5.064-5.065V95.435C87.828,92.642,85.556,90.37,82.764,90.37z M85.453,112.56
			c0,1.481-1.211,2.691-2.689,2.691H7.439c-1.479,0-2.69-1.21-2.69-2.691V95.435c0-1.48,1.21-2.69,2.69-2.69h75.324
			c1.479,0,2.689,1.21,2.689,2.69V112.56z"/>
	</g>
	<path d="M7.439,0C3.337,0,0,3.337,0,7.44v70.837c0,4.103,3.337,7.441,7.439,7.441h75.324c4.102,0,7.438-3.338,7.438-7.441V7.44
		c0-4.103-3.337-7.44-7.438-7.44H7.439z"/>
	<g>
		<path fill="#FFC425" d="M82.764,2.375H7.439c-2.793,0-5.065,2.272-5.065,5.065v70.837c0,2.793,2.272,5.066,5.065,5.066h75.324
			c2.792,0,5.064-2.272,5.064-5.066V7.44C87.828,4.647,85.556,2.375,82.764,2.375z M85.453,78.277c0,1.481-1.211,2.691-2.689,2.691
			H7.439c-1.479,0-2.69-1.21-2.69-2.691V7.44c0-1.48,1.21-2.69,2.69-2.69h75.324c1.479,0,2.689,1.21,2.689,2.69V78.277z"/>
	</g>
	<g>
		<path fill="#FFFFFF" d="M18.525,109.245l-2.206,2.144h-3.814l-2.269-2.144V96.605h3.403v12h1.484v-12h3.401V109.245z"/>
		<path fill="#FFFFFF" d="M23.082,111.389H19.68v-2.844h3.402V111.389z"/>
		<path fill="#FFFFFF" d="M30.342,96.605l2.392,2.145v2.619h-3.402v-1.98H27.93v3.011l2.476,0.206l2.329,2.144v4.496l-2.227,2.144
			h-3.772l-2.207-2.144v-2.599h3.401v1.959h1.402v-3.092l-2.433-0.185l-2.371-2.145V98.75l2.227-2.145H30.342z"/>
		<path fill="#FFFFFF" d="M37.313,111.389H33.91v-2.844h3.402V111.389z"/>
		<path fill="#FFFFFF" d="M44.098,105.884h-1.485l0.516-6.144h0.33L44.098,105.884z M45.768,96.605h-4.929l-2.082,14.783h3.319
			l0.288-2.721h1.981l0.288,2.721h3.34L45.768,96.605z"/>
		<path fill="#FFFFFF" d="M54.164,99.389v3.319h-1.424v-3.319H54.164z M57.461,98.75l-2.288-2.145h-5.836v14.783h3.402v-5.896h1.424
			v5.896h3.297v-5.896l-1.711-1.444l1.711-1.422V98.75z"/>
		<path fill="#FFFFFF" d="M69.814,111.389h-3.113v-9.381h-0.144l-1.424,9.381h-1.258l-1.423-9.381h-0.143v9.381h-3.114V96.605h4
			l1.196,7.155h0.31l1.112-7.155h4V111.389z"/>
		<path fill="#FFFFFF" d="M77.527,105.204v6.185h-3.402v-6.185l-2.927-8.599H74.6l1.217,5.341h0.04l1.218-5.341h3.403
			L77.527,105.204z"/>
	</g>
	<polygon fill="#FFC425" points="66.115,75.158 45.102,59.878 24.084,75.158 32.12,50.446 11.087,35.186 37.078,35.186 
		45.102,10.463 53.125,35.186 79.116,35.186 58.083,50.448 66.115,75.158 	"/>
	<polygon points="61.423,68.698 45.101,56.831 28.775,68.698 35.019,49.503 18.683,37.65 38.871,37.65 45.101,18.45 51.333,37.65 
		71.52,37.65 55.185,49.505 61.423,68.698 	"/>
	<polygon fill="#FFFFFF" points="45.101,26.143 49.607,40.025 64.203,40.025 52.393,48.596 56.905,62.475 45.101,53.894 
		33.296,62.475 37.811,48.596 26,40.025 40.595,40.025 	"/>
</g>
</svg>