<svg id="Layer_1" data-name="Layer 1" xmlns="http://www.w3.org/2000/svg" xmlns:xlink="http://www.w3.org/1999/xlink" viewBox="0 0 880.65 191.93"><defs><clipPath id="clip-path" transform="translate(-5.68 -4)"><rect x="-138" y="-222" width="1200" height="3500" fill="none"/></clipPath></defs><title>CORE logo - no glow shadow2</title><g clip-path="url(#clip-path)"><path d="M332.37,30.86C370,30.86,400.5,61.8,400.5,100c0,17.8-6,41.28-19.65,58.29-15.58,19.46-41.38,30-61.45,30-3.15,0-.19-11.08.21-17.28,0.13-2,1.26-4.48-1-4.51-32.27-.49-54.33-32.62-54.33-66.53,0-38.15,30.51-69.09,68.13-69.09m0,165.07c52.25,0,94.61-43,94.61-96S384.62,4,332.37,4s-94.62,43-94.62,96,42.36,96,94.62,96" transform="translate(-5.68 -4)" fill="#fec327"/></g><polygon points="773.34 21.99 773.34 83.35 866.19 83.35 866.19 103.9 773.34 103.9 773.34 167.91 880.65 167.91 880.65 188.19 752.29 188.19 752.29 1.46 877.22 1.46 877.22 21.99 773.34 21.99" fill="#fff"/><g clip-path="url(#clip-path)"><path d="M169,32.13L156.38,48.4c-14.2-14.68-34.19-23.47-54.44-23.47-41.55,0-75,32.54-75,73.63,0,40.81,33.41,73.62,75,73.62,20.26,0,40-8.53,54.44-22.4l12.89,14.67c-18.14,17.35-42.88,28.82-68.38,28.82-53.13,0-95.21-41.9-95.21-94.71,0-52.29,42.61-93.65,96-93.65A98.8,98.8,0,0,1,169,32.13" transform="translate(-5.68 -4)" fill="#fff"/><path d="M575,112.7c33.4,0,52.34-14.94,52.34-44C627.36,40.4,608.42,26,575,26H526.1v86.7H575Zm12.36,20c-3.94.26-8.15,0.53-12.36,0.53H526.1v59h-21V5.46h70c46,0,72.59,22.94,72.59,62.69,0,30.94-14.72,51.75-41.29,60.55l43.14,63.49H625.52Z" transform="translate(-5.68 -4)" fill="#fff"/></g></svg>