<svg enable-background="new 0 0 79.4 30" height="30" viewBox="0 0 79.4 30" width="79.4" xmlns="http://www.w3.org/2000/svg"><path d="m29.4 17.1c4.7 0 8.5-3.8 8.5-8.5s-3.8-8.6-8.5-8.6-8.5 3.8-8.5 8.5 3.8 8.6 8.5 8.6zm0-14.7c3.4 0 6.1 2.7 6.1 6.1 0 1.6-.5 3.7-1.8 5.2-1.4 1.7-3.7 2.7-5.5 2.7-.3 0 0-1 0-1.5 0-.2.1-.4-.1-.4-2.9 0-4.9-2.9-4.9-5.9.1-3.5 2.8-6.2 6.2-6.2z" fill="#ffc325"/><path d="m69.7 2v5.5h8.4v1.8h-8.4v5.7h9.7v1.8h-11.6v-16.7h11.2v1.9z" fill="#fff"/><path d="m14.7 2.5-1.1 1.4c-1.3-1.3-3.1-2.1-4.9-2.1-3.7 0-6.8 2.9-6.8 6.5s3 6.5 6.8 6.5c1.8 0 3.6-.8 4.9-2l1.2 1.3c-1.6 1.5-3.9 2.6-6.2 2.6-4.8.1-8.6-3.6-8.6-8.3 0-4.6 3.8-8.3 8.7-8.3 2.2 0 4.4.9 6 2.4z" fill="#fff"/><path d="m52.4 11.4c-.4 0-.7 0-1.1 0h-4.4v5.2h-1.9v-16.5h6.3c4.1 0 6.5 2 6.5 5.6 0 2.7-1.3 4.6-3.7 5.4l3.9 5.6h-2.2zm-1.1-1.7c3 0 4.7-1.3 4.7-3.9s-1.7-3.8-4.7-3.8h-4.4v7.7z" fill="#fff"/><g fill="#fec327"><path d="m7 21.6-.5 1c-.7-.6-1.7-.8-2.5-.8-1.2 0-2 .5-2 1.2 0 2.3 5.2 1.1 5.2 4.5 0 1.5-1.3 2.5-3.3 2.5-1.3 0-2.7-.6-3.5-1.4l.5-.9c.8.8 2 1.3 3 1.3 1.3 0 2.2-.5 2.2-1.4 0-2.4-5.2-1.1-5.2-4.4 0-1.4 1.3-2.4 3.2-2.4 1.1 0 2.2.3 2.9.8z"/><path d="m19.6 26.2c0 2.4-1.4 3.8-3.8 3.8s-3.8-1.4-3.8-3.8v-5.4h1v5.4c0 1.8 1 2.8 2.8 2.8s2.8-1 2.8-2.8v-5.4h1z"/><path d="m28.4 20.8c2.3 0 3.6 1.1 3.6 3.1s-1.3 3.2-3.6 3.2h-2.4v2.9h-1v-9.2zm-2.4 5.3h2.3c1.7 0 2.6-.7 2.6-2.2 0-1.4-1-2.1-2.6-2.1h-2.3z"/><path d="m39.9 20.8c2.3 0 3.6 1.1 3.6 3.1s-1.3 3.2-3.6 3.2h-2.4v2.9h-1v-9.2zm-2.4 5.3h2.3c1.7 0 2.6-.7 2.6-2.2 0-1.4-1-2.1-2.6-2.1h-2.3z"/><path d="m56.6 25.4c0 2.6-2.1 4.6-4.8 4.6s-4.8-2-4.8-4.6 2.1-4.6 4.8-4.6 4.8 2 4.8 4.6zm-8.5 0c0 2 1.7 3.6 3.7 3.6s3.7-1.6 3.7-3.6-1.7-3.6-3.7-3.6-3.7 1.6-3.7 3.6z"/><path d="m65.4 27.1c-.2 0-.4 0-.6 0h-2.4v2.9h-1v-9.2h3.5c2.3 0 3.6 1.1 3.6 3.1 0 1.5-.7 2.5-2 3l2.2 3.1h-1.2zm-.7-1c1.7 0 2.6-.7 2.6-2.2 0-1.4-.9-2.1-2.6-2.1h-2.4v4.2h2.4z"/><path d="m76.3 21.8v8.2h-1v-8.2h-3v-1h7v1z"/></g></svg>