<?xml version="1.0" encoding="utf-8"?>
<!-- Generator: Adobe Illustrator 22.1.0, SVG Export Plug-In . SVG Version: 6.00 Build 0)  -->
<svg version="1.1" id="Layer_1" xmlns="http://www.w3.org/2000/svg" xmlns:xlink="http://www.w3.org/1999/xlink" x="0px" y="0px"
	 viewBox="0 0 343 25" style="enable-background:new 0 0 343 25;" xml:space="preserve">
<style type="text/css">
	.st0{fill:#FEC327;}
	.st1{fill:#FFFFFF;}
</style>
<g>
	<g>
		<path class="st0" d="M42.6,24.4c6.6,0,12-5.4,12-12s-5.4-12-12-12s-12,5.4-12,12S35.9,24.4,42.6,24.4z M42.6,3.8
			c4.8,0,8.6,3.9,8.6,8.6c0,2.2-0.8,5.2-2.5,7.3c-2,2.4-5.2,3.8-7.8,3.8c-0.4,0,0-1.4,0-2.2c0-0.3,0.2-0.6-0.1-0.6
			c-4.1-0.1-6.9-4.1-6.9-8.3C33.9,7.7,37.8,3.8,42.6,3.8z"/>
		<path class="st1" d="M99.2,3.2v7.7H111v2.6H99.2v8h13.6V24H96.5V0.6h15.8v2.6H99.2z"/>
		<path class="st1" d="M21.8,3.9l-1.6,2C18.4,4.1,15.9,3,13.3,3c-5.3,0-9.5,4.1-9.5,9.2c0,5.1,4.2,9.2,9.5,9.2
			c2.6,0,5.1-1.1,6.9-2.8l1.6,1.8c-2.3,2.2-5.4,3.6-8.7,3.6c-6.7,0-12.1-5.2-12.1-11.8c0-6.5,5.4-11.7,12.2-11.7
			C16.5,0.5,19.6,1.8,21.8,3.9z"/>
		<path class="st1" d="M74.9,16.5c-0.5,0-1,0.1-1.6,0.1h-6.2V24h-2.7V0.6h8.9c5.8,0,9.2,2.9,9.2,7.8c0,3.9-1.9,6.5-5.2,7.6l5.5,7.9
			h-3L74.9,16.5z M73.3,14c4.2,0,6.6-1.9,6.6-5.5c0-3.5-2.4-5.3-6.6-5.3h-6.2V14C67.1,14,73.3,14,73.3,14z"/>
	</g>
	<g>
		<path class="st0" d="M155.1,2.7l-1.2,2.5c-2.1-1.4-4.7-2-6.6-2c-3.1,0-5.1,1.2-5.1,3.2c0,6.1,13.4,2.9,13.4,11.6
			c0,4-3.5,6.5-8.6,6.5c-3.5,0-6.9-1.5-9.1-3.6l1.2-2.4c2.2,2.1,5.2,3.4,7.9,3.4c3.4,0,5.6-1.4,5.6-3.7c0-6.3-13.4-2.9-13.4-11.5
			c0-3.7,3.3-6.2,8.2-6.2C150.3,0.5,153.1,1.4,155.1,2.7z"/>
		<path class="st0" d="M187.8,14.6c0,6.2-3.7,9.9-10,9.9c-6.3,0-10-3.7-10-9.9v-14h2.7v14c0,4.6,2.8,7.3,7.3,7.3
			c4.5,0,7.2-2.7,7.2-7.3v-14h2.7V14.6z"/>
		<path class="st0" d="M210.6,0.6c5.9,0,9.3,2.9,9.3,8c0,5.3-3.4,8.3-9.3,8.3h-6.2v7.5h-2.7V0.6H210.6z M204.4,14.3h6.1
			c4.3,0,6.8-1.9,6.8-5.6c0-3.6-2.5-5.4-6.8-5.4h-6.1V14.3z"/>
		<path class="st0" d="M240.5,0.6c5.9,0,9.3,2.9,9.3,8c0,5.3-3.4,8.3-9.3,8.3h-6.2v7.5h-2.7V0.6H240.5z M234.3,14.3h6.1
			c4.3,0,6.8-1.9,6.8-5.6c0-3.6-2.5-5.4-6.8-5.4h-6.1V14.3z"/>
		<path class="st0" d="M284.1,12.5c0,6.7-5.5,12-12.4,12c-7,0-12.5-5.3-12.5-12c0-6.7,5.5-12,12.5-12
			C278.6,0.6,284.1,5.8,284.1,12.5z M261.9,12.5c0,5.2,4.4,9.4,9.7,9.4c5.3,0,9.7-4.2,9.7-9.4c0-5.2-4.4-9.4-9.7-9.4
			C266.4,3.2,261.9,7.3,261.9,12.5z"/>
		<path class="st0" d="M306.8,16.9c-0.5,0-1.1,0.1-1.6,0.1h-6.3v7.5h-2.7V0.6h9c5.9,0,9.4,2.9,9.4,8c0,3.9-1.9,6.6-5.3,7.7l5.6,8.1
			h-3.1L306.8,16.9z M305.2,14.3c4.3,0,6.8-1.9,6.8-5.6c0-3.6-2.4-5.4-6.8-5.4h-6.3v11H305.2z"/>
		<path class="st0" d="M335.2,3.3v21.2h-2.7V3.3h-7.8V0.6H343v2.6H335.2z"/>
	</g>
</g>
</svg>
