<?xml version="1.0" encoding="utf-8"?>
<!-- Generator: Adobe Illustrator 21.1.0, SVG Export Plug-In . SVG Version: 6.00 Build 0)  -->
<svg version="1.1" id="Layer_1" xmlns="http://www.w3.org/2000/svg" xmlns:xlink="http://www.w3.org/1999/xlink" x="0px" y="0px"
	 width="105.9px" height="40px" viewBox="0 0 105.9 40" style="enable-background:new 0 0 105.9 40;" xml:space="preserve">
<style type="text/css">
	.st0{fill:#FFC325;}
	.st1{fill:#FFFFFF;}
	.st2{fill:#FEC327;}
</style>
<path class="st0" d="M39.2,22.8c6.3,0,11.3-5.1,11.3-11.3S45.5,0,39.2,0S27.9,5.1,27.9,11.3S32.9,22.8,39.2,22.8z M39.2,3.2
	c4.5,0,8.1,3.6,8.1,8.1c0,2.1-0.7,4.9-2.4,6.9c-1.9,2.3-4.9,3.6-7.3,3.6c-0.4,0,0-1.3,0-2c0-0.3,0.1-0.5-0.1-0.5
	c-3.9,0-6.5-3.9-6.5-7.9C31.1,6.8,34.7,3.2,39.2,3.2z"/>
<path class="st1" d="M92.9,2.7V10h11.2v2.4H92.9V20h12.9v2.4H90.4V0.1h14.9v2.5L92.9,2.7z"/>
<path class="st1" d="M19.6,3.3l-1.5,1.9c-1.7-1.7-4.1-2.8-6.5-2.8c-4.9,0-9.1,3.9-9.1,8.7s4,8.7,9.1,8.7c2.4,0,4.8-1.1,6.5-2.7
	l1.6,1.7c-2.1,2-5.2,3.5-8.3,3.5C5.1,22.4,0,17.5,0,11.2C0,5.1,5.1,0.1,11.6,0.1C14.5,0.1,17.5,1.3,19.6,3.3z"/>
<path class="st1" d="M69.9,15.2c-0.5,0-0.9,0-1.5,0h-5.9v6.9H60v-22h8.4c5.5,0,8.7,2.7,8.7,7.5c0,3.6-1.7,6.1-4.9,7.2l5.2,7.5h-2.9
	L69.9,15.2z M68.4,12.9c4,0,6.3-1.7,6.3-5.2s-2.3-5.1-6.3-5.1h-5.9v10.3H68.4z"/>
<g>
	<path class="st2" d="M9.3,28.8l-0.7,1.3c-0.9-0.8-2.3-1.1-3.3-1.1c-1.6,0-2.7,0.7-2.7,1.6c0,3.1,6.9,1.5,6.9,6c0,2-1.7,3.3-4.4,3.3
		c-1.7,0-3.6-0.8-4.7-1.9l0.7-1.2c1.1,1.1,2.7,1.7,4,1.7c1.7,0,2.9-0.7,2.9-1.9c0-3.2-6.9-1.5-6.9-5.9c0-1.9,1.7-3.2,4.3-3.2
		C6.9,27.7,8.4,28.1,9.3,28.8z"/>
	<path class="st2" d="M26.1,34.9c0,3.2-1.9,5.1-5.1,5.1S16,38.1,16,34.9v-7.2h1.3v7.2c0,2.4,1.3,3.7,3.7,3.7s3.7-1.3,3.7-3.7v-7.2
		h1.3V34.9z"/>
	<path class="st2" d="M37.9,27.7c3.1,0,4.8,1.5,4.8,4.1c0,2.7-1.7,4.3-4.8,4.3h-3.2V40h-1.3V27.7H37.9z M34.7,34.8h3.1
		c2.3,0,3.5-0.9,3.5-2.9c0-1.9-1.3-2.8-3.5-2.8h-3.1V34.8z"/>
	<path class="st2" d="M53.2,27.7c3.1,0,4.8,1.5,4.8,4.1c0,2.7-1.7,4.3-4.8,4.3H50V40h-1.3V27.7H53.2z M50,34.8h3.1
		c2.3,0,3.5-0.9,3.5-2.9c0-1.9-1.3-2.8-3.5-2.8H50V34.8z"/>
	<path class="st2" d="M75.5,33.9c0,3.5-2.8,6.1-6.4,6.1c-3.6,0-6.4-2.7-6.4-6.1s2.8-6.1,6.4-6.1C72.7,27.7,75.5,30.4,75.5,33.9z
		 M64.1,33.9c0,2.7,2.3,4.8,4.9,4.8c2.7,0,4.9-2.1,4.9-4.8c0-2.7-2.3-4.8-4.9-4.8C66.4,29.1,64.1,31.2,64.1,33.9z"/>
	<path class="st2" d="M87.2,36.1c-0.3,0-0.5,0-0.8,0h-3.2V40h-1.3V27.7h4.7c3.1,0,4.8,1.5,4.8,4.1c0,2-0.9,3.3-2.7,4l2.9,4.1H90
		L87.2,36.1z M86.3,34.8c2.3,0,3.5-0.9,3.5-2.9c0-1.9-1.2-2.8-3.5-2.8h-3.2v5.6h3.2V34.8z"/>
	<path class="st2" d="M101.7,29.1V40h-1.3V29.1h-4v-1.3h9.3v1.3H101.7z"/>
</g>
</svg>
