<?xml version="1.0" encoding="utf-8"?>
<!-- Generator: Adobe Illustrator 22.1.0, SVG Export Plug-In . SVG Version: 6.00 Build 0)  -->
<svg version="1.1" id="Layer_1" focusable="false" xmlns="http://www.w3.org/2000/svg" xmlns:xlink="http://www.w3.org/1999/xlink"
	 x="0px" y="0px" viewBox="0 0 518 168" style="enable-background:new 0 0 518 168;" xml:space="preserve">
<style type="text/css">
	.st0{fill:#252525;}
</style>
<path class="st0" d="M188,84c0-39.8,32.2-72,72-72s72,32.2,72,72s-32.2,72-72,72S188,123.8,188,84z M84,156c39.8,0,72-32.2,72-72
	s-32.2-72-72-72S12,44.2,12,84S44.2,156,84,156z M436,156c39.8,0,72-32.2,72-72s-32.2-72-72-72s-72,32.2-72,72S396.2,156,436,156z"
	/>
</svg>
