<?xml version="1.0" encoding="utf-8"?>
<!-- Generator: Adobe Illustrator 22.1.0, SVG Export Plug-In . SVG Version: 6.00 Build 0)  -->
<svg version="1.1" id="Layer_1" focusable="false" xmlns="http://www.w3.org/2000/svg" xmlns:xlink="http://www.w3.org/1999/xlink"
	 x="0px" y="0px" viewBox="0 0 512 401" style="enable-background:new 0 0 512 401;" xml:space="preserve">
<style type="text/css">
	.st0{fill:#252525;}
</style>
<path class="st0" d="M464,8H48C21.5,8,0,29.5,0,56v288c0,26.5,21.5,48,48,48h416c26.5,0,48-21.5,48-48V56C512,29.5,490.5,8,464,8z
	 M458,344H54c-3.3,0-6-2.7-6-6V62c0-3.3,2.7-6,6-6h404c3.3,0,6,2.7,6,6v276C464,341.3,461.3,344,458,344z M128,96
	c-22.1,0-40,17.9-40,40s17.9,40,40,40s40-17.9,40-40S150.1,96,128,96z M96,296h320v-80l-87.5-87.5c-4.7-4.7-12.3-4.7-17,0L192,248
	l-39.5-39.5c-4.7-4.7-12.3-4.7-17,0L96,248V296z"/>
</svg>
