<?xml version="1.0" encoding="utf-8"?>
<!-- Generator: Adobe Illustrator 22.1.0, SVG Export Plug-In . SVG Version: 6.00 Build 0)  -->
<svg version="1.1" id="Layer_1" focusable="false" xmlns="http://www.w3.org/2000/svg" xmlns:xlink="http://www.w3.org/1999/xlink"
	 x="0px" y="0px" viewBox="0 0 576 423" style="enable-background:new 0 0 576 423;" xml:space="preserve">
<style type="text/css">
	.st0{fill:#252525;}
</style>
<path class="st0" d="M567.9,200.9L462.3,42.4C453.3,29,438.4,21,422.3,21H153.7c-16,0-31,8-39.9,21.4L8.1,200.9
	C2.8,208.8,0,218.1,0,227.5V357c0,26.5,21.5,48,48,48h480c26.5,0,48-21.5,48-48V227.5C576,218.1,573.2,208.8,567.9,200.9
	L567.9,200.9z M162.3,85h251.5l85.3,128H376l-32,64H232l-32-64H76.9L162.3,85z"/>
</svg>
