<?xml version="1.0" encoding="utf-8"?>
<!-- Generator: Adobe Illustrator 21.1.0, SVG Export Plug-In . SVG Version: 6.00 Build 0)  -->
<svg version="1.1" id="Layer_1" focusable="false" xmlns="http://www.w3.org/2000/svg" xmlns:xlink="http://www.w3.org/1999/xlink"
	 x="0px" y="0px" viewBox="0 0 320 512" style="enable-background:new 0 0 320 512;" xml:space="preserve">
<style type="text/css">
	.st0{fill:#252525;}
</style>
<path class="st0" d="M320,48v32c0,8.8-7.2,16-16,16h-62.8l-80,320H208c8.8,0,16,7.2,16,16v32c0,8.8-7.2,16-16,16H16
	c-8.8,0-16-7.2-16-16v-32c0-8.8,7.2-16,16-16h62.8l80-320H112c-8.8,0-16-7.2-16-16V48c0-8.8,7.2-16,16-16h192
	C312.8,32,320,39.2,320,48z"/>
</svg>
