<?xml version="1.0" encoding="utf-8"?>
<!-- Generator: Adobe Illustrator 22.1.0, SVG Export Plug-In . SVG Version: 6.00 Build 0)  -->
<svg version="1.1" id="Layer_1" focusable="false" xmlns="http://www.w3.org/2000/svg" xmlns:xlink="http://www.w3.org/1999/xlink"
	 x="0px" y="0px" viewBox="0 0 448 456" style="enable-background:new 0 0 448 456;" xml:space="preserve">
<style type="text/css">
	.st0{fill:#252525;}
</style>
<path class="st0" d="M257.5,417.1l-22.2,22.2c-9.4,9.4-24.6,9.4-33.9,0L7,245c-9.4-9.4-9.4-24.6,0-33.9L201.4,16.7
	c9.4-9.4,24.6-9.4,33.9,0l22.2,22.2c9.5,9.5,9.3,25-0.4,34.3L136.6,188H424c13.3,0,24,10.7,24,24v32c0,13.3-10.7,24-24,24H136.6
	l120.5,114.8C267,392.1,267.1,407.6,257.5,417.1z"/>
</svg>
