<?xml version="1.0" encoding="utf-8"?>
<!-- Generator: Adobe Illustrator 21.1.0, SVG Export Plug-In . SVG Version: 6.00 Build 0)  -->
<svg version="1.1" id="Layer_1" focusable="false" xmlns="http://www.w3.org/2000/svg" xmlns:xlink="http://www.w3.org/1999/xlink"
	 x="0px" y="0px" viewBox="0 0 512 512" style="enable-background:new 0 0 512 512;" xml:space="preserve">
<style type="text/css">
	.st0{fill:#252525;}
</style>
<path class="st0" d="M185.4,326.6c-59.7-59.8-58.9-155.7-0.4-214.6c0.1-0.1,0.2-0.3,0.4-0.4l67.2-67.2c59.3-59.3,155.7-59.3,215,0
	c59.3,59.3,59.3,155.7,0,215l-37.1,37.1c-9.8,9.8-26.8,3.3-27.3-10.6c-0.6-17.7-3.8-35.5-9.7-52.7c-2-5.8-0.6-12.3,3.8-16.6
	l13.1-13.1c28-28,28.9-73.7,1.2-102c-28-28.6-74.1-28.7-102.3-0.5L242,168.2c-28.2,28.2-28.1,73.8,0,101.8c3.7,3.7,7.4,6.6,10.3,8.6
	c4.2,2.9,6.8,7.5,6.9,12.6c0.4,10.6-3.3,21.5-11.7,29.8l-21.1,21.1c-5.5,5.5-14.2,6.2-20.6,1.7C198.6,338.7,191.7,332.9,185.4,326.6
	L185.4,326.6z M44.5,467.6c59.3,59.3,155.7,59.3,215,0l67.2-67.2c0.1-0.1,0.3-0.3,0.4-0.4c58.6-58.9,59.4-154.8-0.4-214.6
	c-6.3-6.3-13.2-12.1-20.5-17.2c-6.4-4.5-15.1-3.8-20.6,1.7L264.5,191c-8.4,8.4-12.1,19.2-11.7,29.8c0.2,5.1,2.8,9.7,6.9,12.6
	c2.9,2,6.6,4.9,10.3,8.6c28.1,28.1,28.2,73.6,0,101.8L202.8,411c-28.2,28.2-74.3,28.1-102.3-0.5c-27.8-28.3-26.9-73.9,1.2-102
	l13.1-13.1c4.4-4.4,5.8-10.8,3.8-16.6c-5.9-17.2-9-35-9.7-52.7c-0.5-13.9-17.5-20.4-27.3-10.6l-37.1,37.1
	C-14.8,311.9-14.8,408.3,44.5,467.6L44.5,467.6z"/>
</svg>
