<?xml version="1.0" encoding="utf-8"?>
<!-- Generator: Adobe Illustrator 22.1.0, SVG Export Plug-In . SVG Version: 6.00 Build 0)  -->
<svg version="1.1" id="Layer_1" focusable="false" xmlns="http://www.w3.org/2000/svg" xmlns:xlink="http://www.w3.org/1999/xlink"
	 x="0px" y="0px" viewBox="0 0 512 430" style="enable-background:new 0 0 512 430;" xml:space="preserve">
<style type="text/css">
	.st0{fill:#252525;}
</style>
<path class="st0" d="M96,55c0,26.5-21.5,48-48,48S0,81.5,0,55S21.5,7,48,7S96,28.5,96,55z M48,167c-26.5,0-48,21.5-48,48
	s21.5,48,48,48s48-21.5,48-48S74.5,167,48,167z M48,327c-26.5,0-48,21.5-48,48s21.5,48,48,48s48-21.5,48-48S74.5,327,48,327z
	 M144,91h352c8.8,0,16-7.2,16-16V35c0-8.8-7.2-16-16-16H144c-8.8,0-16,7.2-16,16v40C128,83.8,135.2,91,144,91z M144,251h352
	c8.8,0,16-7.2,16-16v-40c0-8.8-7.2-16-16-16H144c-8.8,0-16,7.2-16,16v40C128,243.8,135.2,251,144,251z M144,411h352
	c8.8,0,16-7.2,16-16v-40c0-8.8-7.2-16-16-16H144c-8.8,0-16,7.2-16,16v40C128,403.8,135.2,411,144,411z"/>
</svg>
