<?xml version="1.0" encoding="utf-8"?>
<!-- Generator: Adobe Illustrator 22.1.0, SVG Export Plug-In . SVG Version: 6.00 Build 0)  -->
<svg version="1.1" xmlns="http://www.w3.org/2000/svg" xmlns:xlink="http://www.w3.org/1999/xlink" x="0px" y="0px"
	 viewBox="0 0 505.5 502.5" style="enable-background:new 0 0 505.5 502.5;" xml:space="preserve">
<style type="text/css">
	.st0{display:none;}
	.st1{display:inline;}
	.st2{fill:#252525;}
	.st3{fill:#4C4C4C;}
	.st4{fill:#FFFFFF;}
</style>
<g id="Layer_1" class="st0">
	<g class="st1">
		<path class="st2" d="M726.8,577v-55.2c0-2.9-1.2-6-3.2-8c-1.9-1.9-5.1-3.2-8-3.2H612.7H507.4v-85.2c0-5.8-2.2-11.4-6.3-15.5
			c-8.5-8.5-22.5-8.5-31,0L346.2,533.9c-8.5,8.5-8.5,22.5,0,31l123.9,123.9c8.5,8.5,22.5,8.5,31,0c4.1-4.1,6.3-9.7,6.3-15.5v-85.2
			h105.3l102.9,0c2.9,0,6.1-1.2,8-3.1C725.6,583,726.8,579.9,726.8,577"/>
	</g>
	<g class="st1">
		<path class="st2" d="M726.8,576.2V521c0-2.9-1.2-6-3.2-8c-1.9-1.9-5.1-3.2-8-3.2H612.7H507.4v-85.2c0-5.8-2.2-11.4-6.3-15.5
			c-8.5-8.5-22.5-8.5-31,0L346.2,533.1c-8.5,8.5-8.5,22.5,0,31l123.9,123.9c8.5,8.5,22.5,8.5,31,0c4.1-4.1,6.3-9.7,6.3-15.5v-85.2
			h105.3l102.9,0c2.9,0,6.1-1.2,8-3.1C725.6,582.3,726.8,579.1,726.8,576.2"/>
	</g>
</g>
<g id="Layer_2">
	<path class="st3" d="M441.1,8.5H61.7C33.1,8.5,10,31.7,10,60.3v379.4c0,28.6,23.2,51.7,51.7,51.7h379.4c28.6,0,51.7-23.2,51.7-51.7
		V60.3C492.9,31.7,469.7,8.5,441.1,8.5z M434.7,439.7H68.2c-3.6,0-6.5-2.9-6.5-6.5V66.7c0-3.6,2.9-6.5,6.5-6.5h366.5
		c3.6,0,6.5,2.9,6.5,6.5v366.5C441.1,436.8,438.2,439.7,434.7,439.7z"/>
	<rect x="412.4" y="136.5" class="st4" width="86.5" height="226.9"/>
	<g>
		<path class="st3" d="M493.7,274.6v-49.3c0-2.6-1.1-5.4-2.8-7.1c-1.7-1.7-4.5-2.8-7.1-2.8H392h-94v-76.1c0-5.2-1.9-10.1-5.6-13.8
			c-7.6-7.6-20.1-7.6-27.7,0L154.2,236.1c-7.6,7.6-7.6,20.1,0,27.7l110.6,110.7c7.6,7.6,20.1,7.6,27.7,0c3.7-3.7,5.6-8.7,5.6-13.9
			v-76.1h94l91.8,0c2.6,0,5.4-1.1,7.1-2.8C492.7,280,493.7,277.2,493.7,274.6"/>
	</g>
</g>
</svg>
