<?xml version="1.0" encoding="utf-8"?>
<!-- Generator: Adobe Illustrator 22.1.0, SVG Export Plug-In . SVG Version: 6.00 Build 0)  -->
<svg version="1.1" id="Layer_1" focusable="false" xmlns="http://www.w3.org/2000/svg" xmlns:xlink="http://www.w3.org/1999/xlink"
	 x="0px" y="0px" viewBox="0 0 103 292" style="enable-background:new 0 0 103 292;" xml:space="preserve">
<style type="text/css">
	.st0{fill:#252525;}
</style>
<path class="st0" d="M50,106.2c22.1,0,40,17.9,40,40c0,22.1-17.9,40-40,40s-40-17.9-40-40S27.9,106.2,50,106.2z M10,48.4
	c0,22.1,17.9,40,40,40s40-17.9,40-40s-17.9-40-40-40S10,26.3,10,48.4z M10,244c0,22.1,17.9,40,40,40s40-17.9,40-40s-17.9-40-40-40
	S10,221.9,10,244z"/>
</svg>
