<?xml version="1.0" encoding="utf-8"?>
<!-- Generator: Adobe Illustrator 22.1.0, SVG Export Plug-In . SVG Version: 6.00 Build 0)  -->
<svg version="1.1" id="Layer_1" focusable="false" xmlns="http://www.w3.org/2000/svg" xmlns:xlink="http://www.w3.org/1999/xlink"
	 x="0px" y="0px" viewBox="0 0 617 424" style="enable-background:new 0 0 617 424;" xml:space="preserve">
<style type="text/css">
	.st0{fill:#666666;}
	.st1{fill:#FFFFFF;stroke:#000000;stroke-miterlimit:10;}
</style>
<rect class="st0" width="617" height="424"/>
<path class="st1" d="M588.9,199.9L483.3,41.4C474.3,28,459.4,20,443.3,20H174.7c-16,0-31,8-39.9,21.4L29.1,199.9
	c-5.3,7.9-8.1,17.1-8.1,26.6V356c0,26.5,21.5,48,48,48h480c26.5,0,48-21.5,48-48V226.5C597,217.1,594.2,207.8,588.9,199.9
	L588.9,199.9z M183.3,84h251.5l85.3,128H397l-32,64H253l-32-64H97.9L183.3,84z"/>
</svg>
