<?xml version="1.0" encoding="utf-8"?>
<!-- Generator: Adobe Illustrator 22.1.0, SVG Export Plug-In . SVG Version: 6.00 Build 0)  -->
<svg version="1.1" id="Layer_1" focusable="false" xmlns="http://www.w3.org/2000/svg" xmlns:xlink="http://www.w3.org/1999/xlink"
	 x="0px" y="0px" viewBox="0 0 448 460" style="enable-background:new 0 0 448 460;" xml:space="preserve">
<style type="text/css">
	.st0{fill:#252525;}
</style>
<path class="st0" d="M108,258c-6.6,0-12-5.4-12-12v-32c0-6.6,5.4-12,12-12h232c6.6,0,12,5.4,12,12v32c0,6.6-5.4,12-12,12H108z
	 M448,54v352c0,26.5-21.5,48-48,48H48c-26.5,0-48-21.5-48-48V54C0,27.5,21.5,6,48,6h352C426.5,6,448,27.5,448,54z M400,400V60
	c0-3.3-2.7-6-6-6H54c-3.3,0-6,2.7-6,6v340c0,3.3,2.7,6,6,6h340C397.3,406,400,403.3,400,400z"/>
</svg>
