<?xml version="1.0" encoding="utf-8"?>
<!-- Generator: Adobe Illustrator 22.1.0, SVG Export Plug-In . SVG Version: 6.00 Build 0)  -->
<svg version="1.1" id="Layer_1" focusable="false" xmlns="http://www.w3.org/2000/svg" xmlns:xlink="http://www.w3.org/1999/xlink"
	 x="0px" y="0px" viewBox="0 0 448 448" style="enable-background:new 0 0 448 448;" xml:space="preserve">
<style type="text/css">
	.st0{fill:#333333;}
</style>
<path class="st0" d="M400,0H48C21.5,0,0,21.5,0,48v352c0,26.5,21.5,48,48,48h352c26.5,0,48-21.5,48-48V48C448,21.5,426.5,0,400,0z
	 M112,384c-26.5,0-48-21.5-48-48s21.5-48,48-48s48,21.5,48,48S138.5,384,112,384z M269.5,384h-34.3c-6,0-11.1-4.6-11.4-10.6
	c-5.2-80.1-69.2-143.9-149.1-149.1c-6-0.4-10.6-5.4-10.6-11.4v-34.3c0-6.5,5.5-11.8,12-11.4c110.5,6,199,94.5,205,205
	C281.3,378.5,276.1,384,269.5,384L269.5,384z M372.6,384h-34.3c-6.2,0-11.2-4.9-11.4-11C321.2,236.4,211.6,126.8,75,121.2
	c-6.2-0.3-11-5.3-11-11.4V75.4C64,69,69.3,63.8,75.8,64C243.6,70,378,205.2,384,372.2C384.2,378.7,379,384,372.6,384L372.6,384z"/>
</svg>
