<?xml version="1.0" encoding="utf-8"?>
<!-- Generator: Adobe Illustrator 22.1.0, SVG Export Plug-In . SVG Version: 6.00 Build 0)  -->
<svg version="1.1" id="Layer_1" focusable="false" xmlns="http://www.w3.org/2000/svg" xmlns:xlink="http://www.w3.org/1999/xlink"
	 x="0px" y="0px" viewBox="0 0 448 465" style="enable-background:new 0 0 448 465;" xml:space="preserve">
<style type="text/css">
	.st0{fill:#252525;}
</style>
<path class="st0" d="M128.1,390c0,35.4-28.7,64-64,64S0,425.3,0,390s28.7-64,64-64S128.1,354.6,128.1,390L128.1,390z M303.7,437.2
	c-8.4-154.6-132.2-278.6-287-287c-9.1-0.5-16.8,6.8-16.8,16v48.1c0,8.4,6.5,15.5,14.9,16c111.8,7.3,201.5,96.7,208.8,208.8
	c0.5,8.4,7.6,14.9,16,14.9h48.1C296.9,454,304.2,446.3,303.7,437.2L303.7,437.2z M448,437.5C439.6,203.7,251.5,14.4,16.5,6
	C7.5,5.7,0,13,0,22v48.1c0,8.6,6.8,15.6,15.5,16c191.2,7.8,344.6,161.3,352.5,352.5c0.4,8.6,7.4,15.5,16,15.5H432
	C441,454,448.3,446.5,448,437.5z"/>
</svg>
